<?xml version="1.0" standalone="no"?>
<!DOCTYPE svg PUBLIC "-//W3C//DTD SVG 20010904//EN"
 "http://www.w3.org/TR/2001/REC-SVG-20010904/DTD/svg10.dtd">
<svg version="1.0" xmlns="http://www.w3.org/2000/svg"
 width="626.000000pt" height="626.000000pt" viewBox="0 0 626.000000 626.000000"
 preserveAspectRatio="xMidYMid meet">

<g transform="translate(0.000000,626.000000) scale(0.100000,-0.100000)"
fill="#000000" stroke="none">
<path d="M3410 5763 c-71 -11 -189 -47 -220 -67 -19 -13 -51 -33 -71 -45 -34
-19 -51 -39 -86 -96 -30 -48 -53 -109 -53 -138 0 -22 -3 -28 -9 -18 -13 21
-19 2 -32 -100 -11 -88 -9 -164 7 -284 6 -47 4 -51 -19 -64 -63 -34 -63 -155
-1 -279 l39 -77 3 52 3 53 34 -23 c28 -17 35 -29 35 -54 0 -18 6 -47 14 -65 7
-18 21 -58 31 -88 23 -72 72 -147 126 -194 54 -46 159 -103 218 -118 37 -9 42
-13 28 -23 -15 -11 -15 -18 -2 -81 16 -77 13 -93 -8 -43 l-15 34 -12 -30 c-23
-58 9 -142 61 -156 13 -4 53 -7 89 -7 36 1 53 3 38 5 -32 5 -33 11 -13 84 22
75 35 99 66 114 30 16 63 75 49 89 -5 5 -22 10 -37 11 -49 5 -187 50 -241 81
-51 29 -52 30 -52 77 0 36 -5 51 -21 65 -52 42 -67 59 -71 77 -3 19 4 20 102
26 65 3 83 6 48 7 -48 2 -58 5 -63 23 -7 20 27 69 47 69 5 0 17 7 26 17 16 15
14 16 -26 9 -42 -6 -54 -2 -111 40 -2 2 4 24 13 50 9 26 16 68 16 94 0 111 58
106 117 -10 59 -115 150 -173 237 -149 21 6 35 13 32 16 -3 4 15 14 41 22 65
22 87 56 93 143 3 49 10 73 20 79 70 35 133 60 147 57 15 -3 18 -17 21 -91 3
-87 17 -116 26 -54 3 17 8 72 11 121 l6 88 -23 -5 c-137 -33 -205 -39 -308
-27 -137 16 -155 26 -61 36 78 7 97 22 67 52 -16 16 -17 16 -10 -2 7 -18 4
-19 -36 -12 -65 10 -84 25 -35 27 l40 1 -35 10 c-51 15 -198 4 -218 -16 -14
-13 -14 -22 -5 -58 11 -40 10 -44 -10 -60 -15 -12 -41 -18 -84 -18 -55 0 -64
3 -79 25 -8 13 -13 29 -10 34 4 6 -5 28 -19 51 -22 34 -30 40 -61 40 l-36 0
30 25 c26 22 181 75 219 75 8 0 27 6 41 14 15 7 45 19 67 26 22 7 58 21 80 30
22 10 82 34 134 53 109 42 116 40 160 -38 25 -43 65 -161 85 -247 l6 -27 47
14 c27 8 64 12 88 8 38 -5 43 -3 48 18 19 71 -3 261 -38 328 -14 27 -78 84
-105 93 -5 2 -14 27 -20 56 -10 54 -37 112 -53 112 -4 0 -3 -10 3 -22 11 -22
11 -22 -5 -3 -8 11 -13 25 -11 32 3 7 -1 10 -10 6 -8 -3 -14 1 -14 8 0 25 -72
61 -179 90 -87 24 -124 29 -206 28 -55 -1 -111 -4 -125 -6z m473 -171 c9 -8
17 -21 17 -29 0 -8 5 -11 10 -8 14 9 12 -8 -4 -30 -13 -18 -15 -17 -45 16 -18
18 -37 42 -42 51 -8 15 -5 18 18 16 15 -1 36 -8 46 -16z m-85 -15 c7 -6 11
-16 8 -24 -3 -8 2 -13 14 -13 21 0 27 -24 10 -35 -5 -3 -10 -15 -10 -26 0 -25
-5 -24 -43 5 -49 37 -81 84 -68 100 12 14 68 10 89 -7z m-161 -52 c35 -32 39
-34 51 -18 11 16 15 15 44 -15 25 -25 29 -32 15 -32 -9 0 -17 5 -17 10 0 14
-27 13 -32 -2 -3 -7 -9 -8 -20 -2 -28 16 -88 73 -88 84 0 16 6 13 47 -25z
m-64 -66 c49 -40 47 -56 -3 -23 -22 15 -37 30 -35 34 3 5 -1 11 -7 13 -7 3 -8
6 -3 6 6 1 27 -13 48 -30z m397 -98 c0 -24 -17 -30 -59 -19 -31 9 -32 10 -15
23 29 22 74 19 74 -4z m-460 -39 c-9 -3 -70 25 -70 33 0 2 18 -4 40 -13 21 -9
35 -18 30 -20z m77 -18 c-3 -3 -12 -4 -19 -1 -8 3 -5 6 6 6 11 1 17 -2 13 -5z
m-531 -83 c-7 -12 13 -71 31 -93 16 -18 10 -38 -12 -38 -17 0 -55 -47 -55 -69
0 -13 10 -16 52 -14 l53 3 -45 -13 c-25 -7 -56 -17 -69 -21 l-24 -8 5 68 c7
90 36 194 55 194 8 0 12 -4 9 -9z m-19 -288 c-3 -77 4 -104 31 -132 19 -20 32
-27 41 -21 8 4 28 4 45 -1 69 -20 95 -8 107 47 8 39 8 39 4 -6 -4 -42 -10 -86
-13 -102 -1 -4 -16 -15 -34 -24 -25 -13 -49 -15 -112 -11 -94 6 -107 10 -125
39 -11 18 -11 20 2 15 12 -4 16 12 21 84 6 81 19 139 30 139 2 0 4 -12 3 -27z
m781 2 c23 -29 35 -116 22 -169 -15 -67 -36 -79 -144 -84 -137 -6 -175 11
-225 102 -38 68 -7 168 52 165 21 -1 21 -1 -3 -9 -21 -7 -22 -8 -5 -10 17 -2
16 -3 -5 -9 -27 -7 -36 -35 -26 -76 7 -27 78 -50 125 -40 27 6 31 11 31 40 0
19 -7 41 -16 49 -23 23 -1 19 30 -5 15 -12 30 -18 34 -14 9 9 -39 44 -63 46
-29 1 -8 7 60 15 48 6 55 9 35 15 -19 5 -13 7 27 8 43 1 55 -3 71 -24z m-834
-24 c3 -5 -1 -11 -9 -15 -9 -3 -15 0 -15 9 0 16 16 20 24 6z m544 -58 c0 -34
0 -36 -9 -14 -9 22 -6 51 4 51 2 0 4 -17 5 -37z m-581 -35 c-2 -13 -4 -3 -4
22 0 25 2 35 4 23 2 -13 2 -33 0 -45z m206 13 c3 -11 2 -22 -1 -25 -7 -8 -31
27 -26 36 9 14 22 8 27 -11z"/>
<path d="M3668 4913 c7 -3 16 -2 19 1 4 3 -2 6 -13 5 -11 0 -14 -3 -6 -6z"/>
<path d="M3330 5115 c-11 -30 -4 -52 21 -65 25 -14 32 -12 25 5 -3 8 2 18 11
23 11 7 14 17 9 36 -9 36 -52 37 -66 1z"/>
<path d="M4139 4950 l-24 -19 31 -1 c18 0 48 -12 73 -30 23 -17 46 -28 51 -25
34 21 -28 95 -80 95 -15 0 -38 -9 -51 -20z"/>
<path d="M4150 4680 l-45 -7 40 -1 c22 0 49 3 60 8 23 10 9 10 -55 0z"/>
<path d="M3653 4522 c-7 -4 -9 -13 -4 -21 11 -17 64 -6 58 12 -4 14 -37 20
-54 9z"/>
<path d="M3538 4493 c7 -3 16 -2 19 1 4 3 -2 6 -13 5 -11 0 -14 -3 -6 -6z"/>
<path d="M3933 4152 c-46 -5 -45 -36 2 -52 38 -13 92 -68 101 -105 5 -19 16
-27 48 -35 95 -24 226 -74 295 -113 96 -54 153 -106 196 -177 75 -123 261
-606 316 -820 32 -124 39 -224 19 -284 -11 -33 -30 -50 -30 -26 0 12 -57 13
-64 1 -3 -5 -52 -14 -108 -21 -57 -7 -112 -18 -124 -25 -11 -8 -43 -14 -70
-16 -27 -1 -54 -6 -60 -11 -6 -4 -33 -11 -60 -14 -27 -4 -53 -10 -59 -14 -5
-4 -50 -17 -100 -29 -49 -12 -106 -26 -126 -31 -20 -6 -57 -10 -83 -10 -32 0
-48 -5 -52 -15 -4 -8 -13 -15 -20 -15 -11 0 -14 13 -13 53 2 66 -24 146 -57
178 -17 16 -37 23 -64 24 -72 0 -26 13 170 44 107 18 276 48 375 67 158 32
193 35 290 31 61 -2 103 -2 94 0 -19 5 -52 59 -44 73 3 5 -3 13 -13 19 -19 10
-141 210 -147 241 -5 24 -65 144 -99 199 -14 22 -26 47 -26 55 0 7 -6 19 -14
25 -8 6 -24 37 -36 69 -13 36 -42 80 -80 122 l-59 65 -12 -30 c-8 -19 -12 -78
-12 -157 0 -79 -3 -125 -9 -121 -6 3 -8 -6 -4 -24 8 -34 -20 -206 -34 -211 -5
-2 -6 -11 -3 -20 6 -15 3 -14 -15 2 -13 11 -22 31 -22 46 0 15 -7 47 -15 71
-9 24 -17 76 -19 114 -4 87 -5 90 -12 82 -4 -3 -13 0 -21 8 -8 8 -30 15 -49
15 -22 0 -33 4 -29 10 4 6 -16 33 -44 59 -48 46 -55 49 -104 49 -28 -1 -73 3
-99 7 -45 7 -47 9 -45 39 3 38 57 206 66 204 11 -3 73 36 105 65 l31 29 -33
-22 c-29 -19 -39 -21 -87 -12 -40 6 -60 6 -72 -3 -13 -10 -13 -14 -3 -20 9 -5
15 -4 18 3 6 19 21 14 17 -5 -19 -78 -28 -109 -49 -169 -69 -194 -87 -340 -86
-699 1 -154 -2 -288 -5 -297 -11 -29 76 -58 184 -60 31 0 64 -5 73 -10 26 -13
47 -59 54 -120 6 -49 4 -57 -21 -86 -43 -51 -149 -70 -173 -31 -16 25 -68 23
-66 -3 1 -9 -4 -14 -10 -12 -13 5 -66 -42 -66 -57 0 -19 -27 -8 -53 22 -29 33
-36 86 -15 107 8 8 8 15 -2 27 -11 13 -9 15 12 15 26 0 78 34 78 50 0 17 -61
1 -94 -23 -18 -14 -43 -45 -56 -69 -20 -39 -22 -52 -16 -110 l7 -66 36 -4 c33
-4 121 7 98 12 -27 6 49 18 115 19 42 1 147 10 235 21 88 11 161 20 162 20 2
0 3 -8 3 -18 0 -24 -38 -37 -180 -61 -63 -11 -146 -27 -185 -35 -173 -36 -297
-57 -314 -51 -9 3 -27 24 -38 48 -24 48 -62 226 -69 319 -2 35 -8 77 -14 93
-5 17 -16 82 -24 145 -9 63 -22 165 -30 225 -8 61 -17 149 -21 198 -5 61 -13
94 -25 110 -10 13 -22 39 -27 58 -12 44 -18 45 -328 59 -132 6 -252 15 -267
19 -15 5 -84 9 -155 10 -70 1 -184 6 -253 11 -69 5 -199 14 -290 20 -91 6
-169 16 -174 21 -38 37 -34 -15 24 -306 56 -283 59 -309 31 -300 -27 8 -131
-21 -156 -45 -12 -11 -25 -20 -29 -20 -5 0 -31 -25 -60 -55 -32 -34 -60 -55
-73 -55 -27 0 -38 -15 -42 -55 -1 -20 -21 -19 -21 1 0 8 -4 12 -10 9 -5 -3
-19 -1 -29 5 -24 12 -81 93 -81 113 0 9 -3 17 -7 19 -15 6 -53 93 -53 121 0
15 -5 27 -11 27 -6 0 -9 9 -6 19 2 10 1 25 -3 32 -6 8 -11 0 -15 -23 -9 -46
15 -131 50 -177 32 -44 31 -51 -2 -52 -16 0 -22 -3 -15 -6 13 -5 62 -94 62
-113 0 -5 -10 -10 -23 -10 -25 0 -169 31 -227 49 -19 6 -57 11 -83 11 -34 0
-58 7 -79 21 -36 26 -47 19 -24 -17 17 -25 20 -26 84 -19 37 3 78 2 91 -3 22
-8 18 -10 -30 -16 -61 -8 -139 -34 -139 -47 0 -5 -19 -28 -42 -51 -22 -22 -37
-38 -31 -35 16 10 372 -117 409 -147 19 -15 34 -31 34 -35 0 -5 -26 -2 -57 5
-71 17 -108 17 -190 3 -82 -14 -123 -46 -123 -95 0 -42 24 -50 108 -38 31 4
47 9 35 12 -28 4 -31 22 -4 22 10 0 21 7 25 15 7 20 82 20 93 0 7 -12 14 -13
39 -4 26 10 35 8 82 -20 57 -36 122 -105 122 -131 0 -14 -14 -18 -83 -23 -141
-10 -208 -34 -194 -71 6 -15 33 -25 142 -50 l60 -15 -50 5 c-27 3 -75 12 -105
19 -30 7 -62 15 -70 17 -8 1 -18 12 -22 23 -3 12 -6 -1 -7 -32 -1 -43 3 -54
19 -63 19 -10 20 -21 20 -186 0 -191 12 -250 67 -337 20 -32 23 -44 15 -58
-14 -22 -32 -128 -32 -186 0 -36 -3 -43 -19 -43 -36 0 -199 90 -247 136 -26
25 -44 39 -41 30 3 -8 7 -52 8 -96 1 -44 6 -80 11 -80 6 0 7 -7 4 -16 -4 -9
11 -33 40 -64 45 -48 143 -106 254 -150 83 -33 290 -90 325 -90 18 0 35 -3 39
-7 13 -13 119 -32 182 -32 40 -1 66 -6 73 -15 7 -8 49 -19 99 -25 48 -6 121
-17 162 -23 222 -33 336 -41 900 -64 349 -14 460 -15 702 -5 158 6 300 16 315
20 15 5 96 12 178 15 88 4 170 12 199 21 27 8 80 15 118 15 38 0 101 6 141 14
40 8 92 17 117 21 24 3 50 10 56 16 7 6 60 17 119 24 58 8 121 19 138 24 18 6
91 28 163 51 162 49 302 118 356 174 31 31 37 42 24 44 -11 3 -16 14 -16 43 0
28 -4 39 -15 39 -11 0 -13 8 -8 32 l6 31 -46 -31 c-25 -18 -52 -32 -59 -32 -7
0 -22 -6 -33 -13 -19 -13 -126 -49 -280 -96 -109 -33 -359 -91 -433 -101 -37
-4 -132 -17 -212 -28 -171 -24 -338 -39 -585 -52 -341 -18 -306 -2 55 25 293
22 568 53 650 74 30 8 31 9 9 10 -33 1 -51 36 -35 71 15 34 46 59 73 60 12 0
25 4 28 10 3 5 15 10 25 10 18 0 19 -5 13 -62 -3 -35 -11 -67 -17 -71 -22 -17
132 1 244 28 82 20 109 30 95 35 -16 6 -13 9 18 15 21 4 41 5 44 1 3 -3 13 7
21 22 11 20 15 67 16 189 2 179 7 196 57 186 18 -3 29 -1 29 6 0 6 7 11 15 11
36 0 31 109 -7 140 l-23 18 27 129 c15 70 50 216 78 323 56 218 91 376 89 412
-1 15 -4 9 -10 -17 -8 -31 -17 -43 -42 -55 -25 -12 -33 -22 -35 -49 -4 -39
-48 -111 -69 -111 -7 0 -18 -12 -24 -27 -22 -57 -41 -92 -71 -124 -16 -19 -40
-45 -51 -59 -12 -14 -35 -35 -51 -48 -16 -12 -22 -22 -15 -22 10 -1 8 -4 -4
-11 -9 -5 -22 -7 -29 -3 -7 4 -8 3 -4 -4 4 -7 2 -12 -4 -12 -6 0 -9 -4 -6 -9
6 -9 -81 -47 -124 -54 -17 -3 -14 -5 13 -6 20 0 37 -5 37 -10 0 -9 -63 -6 -80
4 -6 3 -10 1 -10 -4 0 -6 -12 -11 -28 -11 -15 0 -35 -9 -45 -20 -15 -18 -17
-51 -17 -319 0 -174 -4 -311 -10 -326 -15 -38 -65 -55 -166 -55 -111 0 -185
21 -201 57 -9 18 -13 81 -13 190 0 123 -4 173 -15 200 -23 54 -19 117 8 148
24 28 91 43 212 46 33 1 -12 5 -100 9 -160 7 -245 20 -298 47 -23 12 -26 17
-16 29 15 18 28 18 51 -3 47 -43 508 -28 508 17 0 4 -11 11 -24 14 -23 6 -23
8 -13 41 8 28 15 35 36 35 14 0 39 7 55 15 17 9 50 20 75 26 81 18 152 69 194
139 27 46 38 46 12 0 -8 -14 -14 -29 -15 -35 0 -16 45 57 60 95 7 19 31 69 52
111 21 41 38 80 38 86 0 11 35 105 50 134 17 32 61 271 75 405 17 162 19 466
5 647 -12 150 -45 340 -60 345 -5 2 -10 11 -10 20 -1 18 -62 68 -115 95 -62
31 -232 97 -286 111 -144 37 -652 81 -786 68z m-103 -702 c0 -5 -7 -10 -15
-10 -8 0 -15 5 -15 10 0 6 7 10 15 10 8 0 15 -4 15 -10z m-2057 -57 c-7 -2
-19 -2 -25 0 -7 3 -2 5 12 5 14 0 19 -2 13 -5z m-362 -845 c9 -7 21 -31 27
-54 11 -38 56 -93 70 -86 14 7 11 -15 -3 -33 -13 -16 -18 -17 -22 -6 -6 15
-38 -67 -55 -144 l-11 -50 -9 40 c-5 22 -15 96 -22 165 l-12 125 -8 -100 c-9
-112 -22 -175 -37 -175 -5 0 -12 13 -15 30 -4 16 -10 27 -14 25 -5 -3 -6 -15
-3 -28 4 -22 4 -22 -12 -2 -17 21 -16 51 3 48 6 -2 14 16 17 40 9 56 -11 103
-64 156 l-41 41 43 1 c23 0 62 4 87 8 65 12 65 12 81 -1z m413 -44 c15 -40 7
-51 -40 -58 -26 -3 -61 -6 -78 -6 -30 0 -28 2 24 31 30 16 59 34 64 39 14 14
23 12 30 -6z m-566 -240 c25 -29 30 -56 7 -48 -8 4 -15 1 -15 -5 0 -6 -18 9
-40 33 -22 24 -40 46 -40 50 0 16 67 -7 88 -30z m624 -1 c23 -49 39 -52 418
-84 228 -19 263 -24 267 -35 2 -6 -11 -17 -28 -24 -55 -23 -126 -87 -157 -142
-39 -68 -68 -183 -81 -328 -6 -63 -14 -135 -17 -159 -5 -41 -4 -43 15 -38 30
7 26 -7 -9 -36 -32 -27 -50 -64 -50 -101 0 -22 5 -23 168 -40 92 -10 190 -22
217 -26 109 -17 -29 -10 -220 11 -104 11 -238 24 -296 29 -59 4 -116 11 -127
14 -18 6 -20 2 -20 -46 -1 -29 4 -58 9 -65 7 -8 7 -23 -2 -47 -11 -29 -10 -38
5 -60 9 -14 26 -26 39 -27 12 0 75 -4 139 -8 107 -6 119 -9 142 -33 27 -26 50
-91 59 -165 7 -58 15 -57 -228 -32 -114 11 -301 37 -327 45 -14 4 -16 9 -8 24
14 26 12 240 -2 297 -7 27 -22 64 -34 83 l-21 35 27 55 c44 88 52 142 48 322
-2 144 -1 166 15 190 12 17 17 40 15 64 -3 36 -6 39 -58 57 -30 10 -95 21
-145 24 -123 6 -120 5 -93 54 37 66 129 145 190 163 29 8 69 24 88 35 46 26
47 26 62 -6z m-502 -40 c0 -35 -3 -44 -10 -33 -16 25 -11 80 7 80 2 0 3 -21 3
-47z m2413 30 c-7 -2 -19 -2 -25 0 -7 3 -2 5 12 5 14 0 19 -2 13 -5z m-2259
-67 c-3 -9 -11 -16 -16 -16 -6 0 -5 7 2 15 7 9 10 18 7 22 -7 6 -37 -57 -37
-77 0 -5 -5 -10 -11 -10 -11 0 -8 18 18 89 l16 44 13 -26 c8 -14 11 -33 8 -41z
m86 -11 c-24 -25 -45 -45 -47 -45 -6 0 -2 7 22 41 22 29 43 45 65 48 2 1 -16
-19 -40 -44z m2646 34 c3 -6 7 -97 8 -203 2 -156 1 -177 -7 -116 -5 41 -9 94
-10 117 -1 37 -4 42 -32 49 l-30 8 31 3 c34 4 33 0 20 126 -3 28 7 36 20 16z
m-2702 -46 c-15 -27 -34 -55 -42 -63 -13 -13 -14 -13 -8 5 25 73 43 105 59
105 16 0 15 -5 -9 -47z m-343 11 c17 -21 -5 -17 -32 5 -24 20 -24 20 -2 14 12
-3 28 -11 34 -19z m3371 -21 c-10 -28 -10 -28 -11 12 -1 28 2 36 10 28 8 -8 8
-19 1 -40z m-452 -19 c22 -50 28 -116 9 -97 -6 6 -12 18 -13 27 -1 10 -7 21
-13 24 -15 10 -28 92 -14 92 5 0 19 -21 31 -46z m347 -19 c-3 -18 -1 -37 3
-41 5 -5 2 -33 -8 -64 l-17 -55 -3 53 c-2 36 -7 52 -17 52 -8 0 -16 4 -19 8
-3 5 5 8 17 8 19 -1 22 4 19 31 -4 37 4 56 20 47 6 -4 8 -21 5 -39z m91 -1
c12 -4 22 -10 22 -15 0 -15 -37 -10 -50 6 -13 16 -8 18 28 9z m-181 -90 c17
-5 21 -12 17 -37 -2 -18 -6 -71 -10 -119 -5 -76 -8 -88 -24 -88 -23 0 -30 27
-30 117 l0 72 -37 18 c-31 14 -34 18 -18 21 11 2 24 8 30 13 10 10 40 11 72 3z
m154 -55 l-10 -24 0 26 c-1 14 2 29 6 33 12 12 14 -9 4 -35z m-3114 -16 c-3
-10 -5 -4 -5 12 0 17 2 24 5 18 2 -7 2 -21 0 -30z m2438 28 c3 -5 -13 -30 -35
-56 -22 -25 -40 -52 -40 -58 0 -22 -158 -177 -174 -171 -19 7 -56 95 -56 134
0 32 13 65 36 87 41 42 251 91 269 64z m-2468 -33 c-3 -7 -5 -2 -5 12 0 14 2
19 5 13 2 -7 2 -19 0 -25z m3114 -108 c-18 -61 -19 -62 -18 -24 1 23 5 40 10
37 4 -2 7 9 7 26 0 16 3 38 7 48 18 43 13 -24 -6 -87z m-2761 85 c0 -3 -12
-10 -27 -16 -20 -7 -24 -12 -14 -18 10 -7 10 -11 -2 -22 -7 -8 -12 -19 -10
-25 5 -15 -40 -23 -159 -31 -94 -6 -98 -5 -98 14 0 27 -18 41 -60 45 -23 2 -7
6 45 11 178 16 278 31 323 46 1 1 2 -1 2 -4z m-477 -42 c-7 -2 -19 -2 -25 0
-7 3 -2 5 12 5 14 0 19 -2 13 -5z m428 -134 c17 -32 -19 -150 -60 -197 -10
-13 -25 -31 -33 -42 -11 -16 -21 -17 -77 -10 -72 9 -87 20 -96 70 -3 19 -12
38 -20 42 -7 5 -16 27 -20 49 -6 33 -4 44 9 51 9 5 14 13 11 18 -10 17 113 38
213 37 50 0 65 -4 73 -18z m2336 -181 c-3 -7 -5 -2 -5 12 0 14 2 19 5 13 2 -7
2 -19 0 -25z m-659 -248 l1 -50 -62 -29 c-34 -16 -119 -54 -188 -84 l-125 -55
-260 23 c-531 49 -768 75 -778 85 -7 7 -5 10 7 10 9 0 17 5 17 10 0 13 240 5
440 -14 80 -8 237 -19 350 -26 l205 -13 124 52 c68 29 149 62 180 73 69 25 90
43 41 33 -47 -9 -90 -26 -90 -35 0 -5 -15 -12 -32 -16 -18 -3 -42 -12 -53 -19
-11 -7 -48 -25 -81 -39 l-62 -25 -152 14 c-83 7 -155 16 -158 20 -4 4 63 3
148 -1 141 -6 160 -5 205 13 160 64 237 93 248 93 7 0 23 9 37 19 13 11 27 18
31 16 3 -2 6 -27 7 -55z m-138 -164 c-13 -17 -76 -40 -103 -38 -9 0 -15 -3
-12 -8 3 -5 -4 -15 -16 -23 -19 -14 -19 -16 -3 -19 10 -2 -6 -12 -40 -27 -48
-20 -60 -21 -67 -10 -5 8 -9 17 -9 21 0 11 80 48 102 48 11 0 17 4 14 9 -7 11
18 22 64 28 19 2 44 10 55 18 26 18 30 18 15 1z"/>
<path d="M1225 2247 c10 -15 20 -25 23 -22 3 3 -5 16 -17 28 l-23 22 17 -28z"/>
<path d="M3874 3988 l-19 -23 23 19 c21 18 27 26 19 26 -2 0 -12 -10 -23 -22z"/>
<path d="M3321 3951 c-7 -12 -26 -20 -55 -24 -25 -4 -73 -20 -108 -36 -35 -16
-75 -33 -90 -36 -16 -4 -36 -21 -49 -41 -11 -19 -25 -34 -30 -34 -14 0 -11 11
8 32 9 10 12 18 7 18 -14 0 -117 -109 -152 -161 -31 -46 -103 -184 -121 -231
-10 -26 -10 -26 57 -31 37 -4 123 -9 192 -13 152 -7 188 -16 222 -51 38 -40
45 -64 73 -261 15 -97 29 -186 33 -197 14 -43 20 98 15 342 -4 181 -2 277 7
342 7 50 16 91 19 91 4 0 12 15 19 33 7 21 27 42 53 57 22 14 48 32 57 40 14
14 11 16 -31 20 -29 4 -56 15 -74 30 -40 35 -40 36 -37 85 3 49 0 54 -15 26z"/>
<path d="M2138 3413 c7 -3 16 -2 19 1 4 3 -2 6 -13 5 -11 0 -14 -3 -6 -6z"/>
<path d="M2203 3403 c9 -2 25 -2 35 0 9 3 1 5 -18 5 -19 0 -27 -2 -17 -5z"/>
<path d="M5346 2829 c-3 -17 -5 -57 -5 -88 2 -50 3 -47 10 29 8 87 6 114 -5
59z"/>
<path d="M5332 2640 c0 -19 2 -27 5 -17 2 9 2 25 0 35 -3 9 -5 1 -5 -18z"/>
<path d="M5301 2474 c0 -11 3 -14 6 -6 3 7 2 16 -1 19 -3 4 -6 -2 -5 -13z"/>
<path d="M637 2416 c-11 -27 -8 -64 5 -72 8 -5 9 3 5 30 -3 20 -2 34 3 31 5
-3 12 0 16 6 4 7 3 9 -4 5 -5 -3 -12 -1 -14 6 -3 7 -7 5 -11 -6z"/>
<path d="M1008 2173 c7 -3 16 -2 19 1 4 3 -2 6 -13 5 -11 0 -14 -3 -6 -6z"/>
</g>
</svg>
