<?xml version="1.0" encoding="UTF-8"?>
<svg version="1.1" xmlns="http://www.w3.org/2000/svg" width="1129" height="277">
<path d="M0 0 C372.57 0 745.14 0 1129 0 C1129 91.41 1129 182.82 1129 277 C756.43 277 383.86 277 0 277 C0 185.59 0 94.18 0 0 Z " fill="#6366F1" transform="translate(0,0)"/>
<path d="M0 0 C0.935522 -0.01460266 1.87104401 -0.02920532 2.83491516 -0.04425049 C11.50905897 -0.17080782 20.1841257 -0.23917739 28.85900116 -0.29209328 C34.67573463 -0.32769143 40.49106648 -0.38058928 46.30712891 -0.47753906 C51.94531133 -0.57122466 57.58225933 -0.61915484 63.22117615 -0.63648605 C65.35477119 -0.65044136 67.48833111 -0.67975804 69.62147522 -0.72578812 C96.7747282 -1.28248714 116.54786606 12.07163193 135.87304688 30.25634766 C149.50702166 43.65328346 164.92570605 63.69509921 168.36523438 83.02197266 C168.5328125 83.75931641 168.70039063 84.49666016 168.87304688 85.25634766 C171.07237623 86.42148378 171.07237623 86.42148378 173.87304688 87.25634766 C181.19052023 90.71551688 185.44038816 95.34909662 188.24804688 103.00634766 C188.87304688 106.25634766 188.87304688 106.25634766 188.87304688 110.25634766 C183.42804688 111.24634766 183.42804688 111.24634766 177.87304688 112.25634766 C176.88304687 109.94634766 175.89304687 107.63634766 174.87304688 105.25634766 C167.94304687 104.76134766 167.94304687 104.76134766 160.87304688 104.25634766 C160.54304687 105.24634766 160.21304688 106.23634766 159.87304688 107.25634766 C158.92429687 107.85447266 157.97554687 108.45259766 156.99804688 109.06884766 C153.51422221 111.50752492 152.50141631 113.3996832 150.87304688 117.25634766 C150.54304687 117.58634766 150.21304688 117.91634766 149.87304688 118.25634766 C149.59198586 121.99871768 149.64119276 125.75468544 149.62304688 129.50634766 C149.60242188 130.55693359 149.58179688 131.60751953 149.56054688 132.68994141 C149.55539062 133.70701172 149.55023438 134.72408203 149.54492188 135.77197266 C149.53090332 137.16851074 149.53090332 137.16851074 149.51660156 138.59326172 C150.26479451 144.18318547 153.92548835 147.51122803 157.87304688 151.25634766 C158.53304687 151.91634766 159.19304687 152.57634766 159.87304688 153.25634766 C164.09430142 154.6307096 168.49301136 154.962805 172.87304688 154.25634766 C175.66531201 152.02253554 177.54452514 149.67247519 179.74804688 146.88134766 C181.87304688 145.25634766 181.87304688 145.25634766 185.62304688 145.50634766 C187.23179687 145.87759766 187.23179687 145.87759766 188.87304688 146.25634766 C190.84481895 151.24663502 188.23007674 155.45393045 186.31835938 160.12353516 C183.03449373 167.24153582 178.1579363 171.31111508 170.87304688 174.25634766 C169.55304688 174.25634766 168.23304688 174.25634766 166.87304688 174.25634766 C166.79957031 175.06072266 166.72609375 175.86509766 166.65039062 176.69384766 C165.63708408 181.33774498 163.67278398 185.08782757 161.43554688 189.25634766 C160.98743652 190.09504395 160.53932617 190.93374023 160.07763672 191.79785156 C142.44294316 224.13737529 113.64160226 247.04236355 78.64648438 258.19384766 C50.71465559 266.05871042 21.13923913 265.24495274 -6.12695312 255.25634766 C-7.12339844 254.89927734 -8.11984375 254.54220703 -9.14648438 254.17431641 C-23.01483781 248.80530954 -36.11635041 241.24930376 -47.12695312 231.25634766 C-48.12210938 230.39138672 -49.11726563 229.52642578 -50.14257812 228.63525391 C-77.86588334 204.2880583 -92.72703473 170.41232903 -95.29101562 133.92138672 C-96.86929674 103.60523689 -88.06000635 72.75027401 -70.12695312 48.25634766 C-69.57523438 47.49322266 -69.02351563 46.73009766 -68.45507812 45.94384766 C-60.54688168 35.39958573 -51.63457494 26.21057094 -41.12695312 18.25634766 C-40.38574219 17.67626953 -39.64453125 17.09619141 -38.88085938 16.49853516 C-27.52397185 8.0349968 -14.27466341 0.17005539 0 0 Z " fill="#59C9FB" transform="translate(155.126953125,-0.25634765625)"/>
<path d="M0 0 C1.20970459 0.00523682 2.41940918 0.01047363 3.66577148 0.01586914 C4.97094727 0.0190918 6.27612305 0.02231445 7.62084961 0.02563477 C9.00952213 0.03399138 10.39819401 0.04245634 11.78686523 0.05102539 C13.17944179 0.05603873 14.57202005 0.06060193 15.96459961 0.06469727 C19.38453974 0.07653097 22.80445773 0.09446708 26.22436523 0.11352539 C26.22436523 6.71352539 26.22436523 13.31352539 26.22436523 20.11352539 C34.47436523 20.11352539 42.72436523 20.11352539 51.22436523 20.11352539 C51.22436523 13.51352539 51.22436523 6.91352539 51.22436523 0.11352539 C61.12436523 0.11352539 71.02436523 0.11352539 81.22436523 0.11352539 C84.41538853 7.13377664 87.16988043 13.28589755 89.03686523 20.61352539 C89.35530396 21.83519409 89.35530396 21.83519409 89.68017578 23.08154297 C91.1755945 29.13964366 91.85597322 34.86762423 91.22436523 41.11352539 C88.58436523 41.11352539 85.94436523 41.11352539 83.22436523 41.11352539 C83.22436523 49.36352539 83.22436523 57.61352539 83.22436523 66.11352539 C85.86436523 66.11352539 88.50436523 66.11352539 91.22436523 66.11352539 C91.60256024 73.30400575 90.7041603 79.2276381 88.47436523 86.05102539 C88.09538086 87.27595703 88.09538086 87.27595703 87.70874023 88.52563477 C85.73920873 94.80351643 83.4763083 100.92068195 81.22436523 107.11352539 C71.32436523 107.11352539 61.42436523 107.11352539 51.22436523 107.11352539 C51.22436523 103.48352539 51.22436523 99.85352539 51.22436523 96.11352539 C42.97436523 96.11352539 34.72436523 96.11352539 26.22436523 96.11352539 C26.22436523 99.41352539 26.22436523 102.71352539 26.22436523 106.11352539 C16.65436523 106.11352539 7.08436523 106.11352539 -2.77563477 106.11352539 C-8.77563477 94.11352539 -8.77563477 94.11352539 -8.77563477 88.11352539 C-9.43563477 88.11352539 -10.09563477 88.11352539 -10.77563477 88.11352539 C-11.29030687 86.15899679 -11.78649829 84.19960034 -12.27563477 82.23852539 C-12.55407227 81.14797852 -12.83250977 80.05743164 -13.11938477 78.93383789 C-13.77563477 75.11352539 -13.77563477 75.11352539 -13.77563477 65.11352539 C-7.17563477 65.11352539 -0.57563477 65.11352539 6.22436523 65.11352539 C6.22436523 57.19352539 6.22436523 49.27352539 6.22436523 41.11352539 C-0.37563477 41.11352539 -6.97563477 41.11352539 -13.77563477 41.11352539 C-13.90956334 29.86352539 -13.90956334 29.86352539 -12.77563477 26.11352539 C-12.11563477 26.11352539 -11.45563477 26.11352539 -10.77563477 26.11352539 C-10.67250977 24.95852539 -10.56938477 23.80352539 -10.46313477 22.61352539 C-9.99639848 18.87306133 -9.01324228 15.6895263 -7.60375977 12.20727539 C-6.39548405 9.15238962 -5.42224397 6.0273596 -4.42407227 2.89868164 C-3.38316619 0.03305467 -3.20242356 0.13098135 0 0 Z " fill="#6267F0" transform="translate(158.775634765625,75.886474609375)"/>
<path d="M0 0 C0.74958984 0.00451172 1.49917969 0.00902344 2.27148438 0.01367188 C4.11852383 0.02543646 5.96552213 0.04337135 7.8125 0.0625 C4.65057567 1.78417608 1.3519302 2.98750488 -2.02514648 4.21826172 C-17.25291691 9.83867266 -31.08316009 17.13765648 -43.1875 28.0625 C-44.03570312 28.78050781 -44.88390625 29.49851562 -45.7578125 30.23828125 C-70.98801552 51.95785969 -85.42060187 84.21762966 -88.1875 117.0625 C-90.2731758 154.60466439 -78.00279712 189.05620605 -53 217.125 C-31.65825656 240.29765029 0.76108718 255.5317608 32.20336914 257.18847656 C70.65203421 258.35863723 104.53801866 246.50750989 132.8125 220.0625 C145.89402939 206.98097061 155.79288583 191.1537345 162.8125 174.0625 C161.85988281 173.95292969 160.90726563 173.84335938 159.92578125 173.73046875 C158.67152344 173.57191406 157.41726563 173.41335937 156.125 173.25 C154.26294922 173.02376953 154.26294922 173.02376953 152.36328125 172.79296875 C147.50644611 171.79381785 144.90302789 170.5046675 141.8984375 166.53125 C141.33382812 165.5515625 140.76921875 164.571875 140.1875 163.5625 C139.61773437 162.6034375 139.04796875 161.644375 138.4609375 160.65625 C134.4933481 152.00652904 133.32919822 143.82603171 133.5 134.375 C133.51909424 132.80733887 133.51909424 132.80733887 133.53857422 131.20800781 C134.08124431 102.06527853 134.08124431 102.06527853 143.92578125 91.875 C149.86805641 86.94876153 155.96479708 83.83248112 163.8125 84.0625 C158.08955899 68.44223749 150.95704545 54.55273036 139.8125 42.0625 C139.05453125 41.16144531 138.2965625 40.26039062 137.515625 39.33203125 C120.92289464 20.10940735 98.75863386 8.54773686 74.8125 1.0625 C74.8125 0.7325 74.8125 0.4025 74.8125 0.0625 C94.30698795 -2.11550486 109.68690355 7.6539502 124.54150391 19.43359375 C143.55333703 34.73845641 164.86140385 57.86110257 169.3046875 82.828125 C169.47226562 83.56546875 169.63984375 84.3028125 169.8125 85.0625 C172.01182935 86.22763613 172.01182935 86.22763613 174.8125 87.0625 C182.12997335 90.52166922 186.37984129 95.15524897 189.1875 102.8125 C189.8125 106.0625 189.8125 106.0625 189.8125 110.0625 C184.3675 111.0525 184.3675 111.0525 178.8125 112.0625 C177.8225 109.7525 176.8325 107.4425 175.8125 105.0625 C168.8825 104.5675 168.8825 104.5675 161.8125 104.0625 C161.4825 105.0525 161.1525 106.0425 160.8125 107.0625 C159.86375 107.660625 158.915 108.25875 157.9375 108.875 C154.45367534 111.31367726 153.44086944 113.20583555 151.8125 117.0625 C151.4825 117.3925 151.1525 117.7225 150.8125 118.0625 C150.53143898 121.80487002 150.58064589 125.56083779 150.5625 129.3125 C150.541875 130.36308594 150.52125 131.41367188 150.5 132.49609375 C150.49484375 133.51316406 150.4896875 134.53023437 150.484375 135.578125 C150.47035645 136.97466309 150.47035645 136.97466309 150.45605469 138.39941406 C151.20424763 143.98933781 154.86494148 147.31738037 158.8125 151.0625 C159.4725 151.7225 160.1325 152.3825 160.8125 153.0625 C165.03375454 154.43686194 169.43246448 154.76895734 173.8125 154.0625 C176.60476514 151.82868789 178.48397827 149.47862753 180.6875 146.6875 C182.8125 145.0625 182.8125 145.0625 186.5625 145.3125 C188.17125 145.68375 188.17125 145.68375 189.8125 146.0625 C191.78427208 151.05278736 189.16952986 155.2600828 187.2578125 159.9296875 C183.97394686 167.04768816 179.09738942 171.11726742 171.8125 174.0625 C170.4925 174.0625 169.1725 174.0625 167.8125 174.0625 C167.73902344 174.866875 167.66554688 175.67125 167.58984375 176.5 C166.57653721 181.14389733 164.6122371 184.89397991 162.375 189.0625 C161.92688965 189.90119629 161.4787793 190.73989258 161.01708984 191.60400391 C143.38239628 223.94352764 114.58105539 246.84851589 79.5859375 258 C51.65410871 265.86486276 22.07869225 265.05110508 -5.1875 255.0625 C-6.18394531 254.70542969 -7.18039063 254.34835938 -8.20703125 253.98046875 C-22.07538468 248.61146188 -35.17689728 241.0554561 -46.1875 231.0625 C-47.18265625 230.19753906 -48.1778125 229.33257812 -49.203125 228.44140625 C-76.92643022 204.09421064 -91.78758161 170.21848137 -94.3515625 133.72753906 C-95.92984362 103.41138923 -87.12055323 72.55642636 -69.1875 48.0625 C-68.63578125 47.299375 -68.0840625 46.53625 -67.515625 45.75 C-59.60742856 35.20573807 -50.69512181 26.01672329 -40.1875 18.0625 C-39.44628906 17.48242188 -38.70507812 16.90234375 -37.94140625 16.3046875 C-27.08447955 8.21373693 -13.7159524 -0.15572697 0 0 Z " fill="#FDFEFE" transform="translate(154.1875,-0.0625)"/>
<path d="M0 0 C7.38732675 -0.02290249 14.77453132 -0.04283157 22.16186523 -0.05493164 C24.67716895 -0.05997363 27.19246972 -0.06680703 29.70776367 -0.07543945 C33.31429775 -0.08751094 36.92079323 -0.09322949 40.52734375 -0.09765625 C42.22575661 -0.10539818 42.22575661 -0.10539818 43.95848083 -0.11329651 C45.51998619 -0.11340981 45.51998619 -0.11340981 47.11303711 -0.11352539 C48.03459091 -0.115746 48.95614471 -0.11796661 49.90562439 -0.12025452 C52 0 52 0 53 1 C53.10099488 3.72724279 53.13970529 6.42862523 53.1328125 9.15625 C53.13376923 9.97371704 53.13472595 10.79118408 53.13571167 11.63342285 C53.13639345 13.36515378 53.13453929 15.09688724 53.13037109 16.82861328 C53.12502279 19.48866482 53.13031612 22.1485475 53.13671875 24.80859375 C53.13605797 26.48697954 53.1347768 28.16536523 53.1328125 29.84375 C53.13483673 30.64478149 53.13686096 31.44581299 53.13894653 32.27111816 C53.11495079 37.88504921 53.11495079 37.88504921 52 39 C50.37325222 39.09340434 48.74245949 39.11745171 47.11303711 39.11352539 C46.07203354 39.11344986 45.03102997 39.11337433 43.95848083 39.11329651 C42.8262056 39.10813522 41.69393036 39.10297394 40.52734375 39.09765625 C39.37456436 39.0962413 38.22178497 39.09482635 37.03407288 39.09336853 C33.33518936 39.08775005 29.63636536 39.07519442 25.9375 39.0625 C23.43684983 39.05748738 20.93619871 39.05292406 18.43554688 39.04882812 C12.29032295 39.0386235 6.14522845 39.01905169 0 39 C0 26.13 0 13.26 0 0 Z " fill="#4DD7FC" transform="translate(178,101)"/>
<path d="M0 0 C5.28 0 10.56 0 16 0 C16.45572917 2.99479167 16.91145833 5.98958333 17.3671875 8.984375 C17.93223882 11.67708871 18.63422914 13.63572439 20 16 C25.00594368 16.46821409 25.00594368 16.46821409 29.3125 14.25 C32.85479317 9.52694245 33.41824264 5.81757357 34 0 C38.95 0 43.9 0 49 0 C49.0994991 5.53176738 49.17176423 11.06300426 49.21972656 16.59545898 C49.2397382 18.47413213 49.26695637 20.3527438 49.30175781 22.23120117 C49.3507397 24.94465373 49.37307329 27.65727696 49.390625 30.37109375 C49.41127014 31.19959335 49.43191528 32.02809296 49.45318604 32.88169861 C49.45566025 39.43445252 48.00951603 45.61075763 43.55230713 50.63035583 C37.9103968 55.60837173 32.32215111 55.20860971 25.1875 55.25 C24.31029297 55.270625 23.43308594 55.29125 22.52929688 55.3125 C16.89746226 55.34619834 12.92730634 54.80756415 8 52 C6.00390625 49.94921875 6.00390625 49.94921875 4.5625 47.6875 C4.06878906 46.94886719 3.57507813 46.21023437 3.06640625 45.44921875 C2 43 2 43 2 37 C7.94 37.33 13.88 37.66 20 38 C20.66 39.32 21.32 40.64 22 42 C24.18541552 42.6993514 24.18541552 42.6993514 26.625 42.75 C27.85089844 42.83507812 27.85089844 42.83507812 29.1015625 42.921875 C29.72804688 42.94765625 30.35453125 42.9734375 31 43 C33.35108558 39.29178372 33.43155058 35.51394762 33.625 31.25 C33.68300781 30.20392578 33.68300781 30.20392578 33.7421875 29.13671875 C33.83598624 27.42489182 33.91906174 25.71248318 34 24 C33.47792969 24.433125 32.95585938 24.86625 32.41796875 25.3125 C27.08838893 29.34468649 23.21662709 30.82350014 16.5078125 30.375 C11.96864025 29.69624527 9.31609017 28.61736382 6.37890625 25.0078125 C0.45168294 16.56471743 -0.22689688 10.21035961 0 0 Z " fill="#FBFBFE" transform="translate(980,142)"/>
<path d="M0 0 C3.37597295 1.6519324 5.51832273 3.72699579 6.875 7.3125 C6.91625 7.869375 6.9575 8.42625 7 9 C7.66 9 8.32 9 9 9 C9.2578125 8.39671875 9.515625 7.7934375 9.78125 7.171875 C11.89015441 3.41369919 15.09206057 1.64510595 19 0 C23.86172601 -0.88739773 28.41021895 -0.62556478 32.9375 1.4375 C37.10777501 4.92691379 38.23110979 7.66760401 39 13 C39.30080781 18.3472547 39.13508322 23.64169897 39 29 C33.72 29 28.44 29 23 29 C22.77213542 25.38671875 22.54427083 21.7734375 22.31640625 18.16015625 C22.35080812 15.13976043 22.35080812 15.13976043 21 14 C18.12693772 13.49904977 18.12693772 13.49904977 15 14 C10.23909955 17.96741704 9.93194096 23.17536901 9 29 C3.72 29 -1.56 29 -7 29 C-7.1953125 25.97265625 -7.390625 22.9453125 -7.5859375 19.91796875 C-7.81195733 16.81373814 -7.81195733 16.81373814 -10 14 C-13.40614946 14.02126462 -13.40614946 14.02126462 -17 15 C-20.1812129 19.34765763 -20.54976493 23.77727321 -21 29 C-26.28 29 -31.56 29 -37 29 C-37 19.76 -37 10.52 -37 1 C-32.05 1 -27.1 1 -22 1 C-21.67 3.31 -21.34 5.62 -21 8 C-20.278125 7.236875 -19.55625 6.47375 -18.8125 5.6875 C-12.9312633 0.06765159 -8.09356073 -1.2798017 0 0 Z " fill="#F9F9FE" transform="translate(451,109)"/>
<path d="M0 0 C5.28 0 10.56 0 16 0 C16.68359375 3.28776042 17.3671875 6.57552083 18.05078125 9.86328125 C18.9717096 12.9065136 19.42042931 14.21990885 22 16 C25.5 16.66666667 25.5 16.66666667 29 16 C33.02858437 11.97141563 33.15685136 5.38317976 34 0 C39.28 0 44.56 0 50 0 C50.62665012 9.39975183 49.22750617 17.96251365 43.6953125 25.86328125 C40.96737219 28.73524325 37.82122128 30.74078736 33.88671875 31.30078125 C28.46989566 31.32964532 24.78604672 30.58446523 20 28 C19.01 27.01 18.02 26.02 17 25 C16.67 34.57 16.34 44.14 16 54 C10.72 54 5.44 54 0 54 C0 36.18 0 18.36 0 0 Z " fill="#F9F9FE" transform="translate(504,143)"/>
<path d="M0 0 C19.47 0 38.94 0 59 0 C62.375 10.125 62.375 10.125 62.1875 16.5625 C62.14689453 18.38974609 62.14689453 18.38974609 62.10546875 20.25390625 C62.07066406 21.16011719 62.03585938 22.06632812 62 23 C53.54232666 23.02312659 45.08466644 23.0409167 36.62696934 23.05181217 C32.70011342 23.05704031 28.77327906 23.06413669 24.84643555 23.07543945 C21.05985743 23.0862708 17.2733001 23.09227736 13.48670769 23.09487724 C12.03895681 23.09673105 10.59120712 23.10035081 9.14346504 23.10573006 C7.12242865 23.11294367 5.10137152 23.11340808 3.08032227 23.11352539 C1.35157616 23.11685631 1.35157616 23.11685631 -0.41209412 23.12025452 C-3 23 -3 23 -4 22 C-3.40902283 14.46504107 -1.60041236 7.46859102 0 0 Z " fill="#C2BED3" transform="translate(174,142)"/>
<path d="M0 0 C5.28 0 10.56 0 16 0 C16.33 9.24 16.66 18.48 17 28 C19.97 25.525 19.97 25.525 23 23 C28.45115277 21.18294908 34.61999011 20.91799298 39.875 23.5 C43.83992886 26.23701945 45.88327881 29.31653902 47 34 C47.43944144 39.34901639 47.17889881 44.63303568 47 50 C41.72 50 36.44 50 31 50 C30.8046875 46.94010417 30.609375 43.88020833 30.4140625 40.8203125 C30.26746509 37.86953526 30.26746509 37.86953526 28 36 C25.31160615 35.73008094 22.70858064 35.91262643 20 36 C17.94651367 40.54700545 17.01611983 45.13714083 16 50 C10.72 50 5.44 50 0 50 C0 33.5 0 17 0 0 Z " fill="#F9FAFE" transform="translate(801,87)"/>
<path d="M0 0 C1.72974441 0.00015918 3.45949355 0.0058569 5.18920898 0.01586914 C6.09783188 0.01728409 7.00645477 0.01869904 7.94261169 0.02015686 C10.85687494 0.02577346 13.77106254 0.03832874 16.68530273 0.05102539 C18.65600475 0.05603825 20.62670797 0.06060153 22.59741211 0.06469727 C27.43923832 0.07574828 32.28100768 0.09302401 37.12280273 0.11352539 C37.17122396 1.64363607 37.21964518 3.17374674 37.26806641 4.70385742 C37.29710052 5.60767151 37.32613464 6.5114856 37.35604858 7.44268799 C37.41407295 9.3065728 37.46457751 11.17069586 37.51074219 13.03491211 C37.76975895 19.50970097 39.04486633 24.97442105 41.12280273 31.11352539 C35.84280273 31.11352539 30.56280273 31.11352539 25.12280273 31.11352539 C24.79280273 29.46352539 24.46280273 27.81352539 24.12280273 26.11352539 C23.46280273 25.78352539 22.80280273 25.45352539 22.12280273 25.11352539 C21.79280273 26.10352539 21.46280273 27.09352539 21.12280273 28.11352539 C16.2840781 31.98191755 10.78263025 32.80991712 4.73999023 32.55883789 C-0.98000054 31.58558573 -3.81189149 28.45198649 -7.31469727 24.05102539 C-9.83640579 19.06219078 -9.63307464 13.53676208 -8.87719727 8.11352539 C-6.97342593 3.10225286 -5.51641544 0.16152214 0 0 Z " fill="#F9F9FE" transform="translate(868.877197265625,141.886474609375)"/>
<path d="M0 0 C14.19 0 28.38 0 43 0 C43.495 10.395 43.495 10.395 44 21 C44.66 23.97 45.32 26.94 46 30 C43.52076199 30.02685095 41.0418116 30.04676547 38.5625 30.0625 C37.85544922 30.07087891 37.14839844 30.07925781 36.41992188 30.08789062 C34.61306441 30.09653588 32.80612397 30.05220011 31 30 C30 29 30 29 29.9375 26.4375 C29.958125 25.633125 29.97875 24.82875 30 24 C28.948125 24.78375 27.89625 25.5675 26.8125 26.375 C20.87192998 30.56067109 16.22252158 31.60737841 9 31 C4.28474235 29.90342845 0.88288013 26.81343005 -2 23 C-3.23540616 19.61734027 -3.20000263 16.1998118 -3.25 12.625 C-3.27578125 11.52414063 -3.3015625 10.42328125 -3.328125 9.2890625 C-3 6 -3 6 0 0 Z " fill="#F8F8FE" transform="translate(357,143)"/>
<path d="M0 0 C9.24 0 18.48 0 28 0 C27 5 27 5 26.06640625 7.28125 C24.62915685 10.94544628 23.79523282 14.66466239 22.9375 18.5 C22.67743164 19.59054688 22.67743164 19.59054688 22.41210938 20.703125 C20.86188684 27.59300295 20.5582825 33.74232752 20 41 C9.44 41 -1.12 41 -12 41 C-12 29.74483821 -12 29.74483821 -10.64453125 26.03515625 C-10.35126953 25.21466797 -10.05800781 24.39417969 -9.75585938 23.54882812 C-9.44455078 22.72833984 -9.13324219 21.90785156 -8.8125 21.0625 C-8.52052734 20.24587891 -8.22855469 19.42925781 -7.92773438 18.58789062 C-5.59866811 12.20174119 -2.82879608 6.22335137 0 0 Z " fill="#6267F1" transform="translate(101,76)"/>
<path d="M0 0 C4.39656173 -0.02465504 8.7930872 -0.04283842 13.18969727 -0.05493164 C14.68644918 -0.05997121 16.18319616 -0.06680287 17.67993164 -0.07543945 C19.82699807 -0.08752159 21.97399962 -0.09323191 24.12109375 -0.09765625 C26.06133423 -0.10551147 26.06133423 -0.10551147 28.04077148 -0.11352539 C31 0 31 0 32 1 C32.32739335 3.66676764 32.61217599 6.32683274 32.875 9 C33.47482031 14.6076224 34.24233723 19.7224546 36.2734375 25.015625 C38.14632013 30.13080982 38.93508165 35.67540823 40 41 C31.09 41 22.18 41 13 41 C5.98168069 28.71794121 -0.19015887 14.33521662 0 0 Z " fill="#6267F1" transform="translate(89,141)"/>
<path d="M0 0 C5.94 0 11.88 0 18 0 C22.5 7.875 22.5 7.875 24.25 11.9375 C24.58515625 12.70964844 24.9203125 13.48179688 25.265625 14.27734375 C25.50796875 14.84582031 25.7503125 15.41429688 26 16 C28.7422981 13.62490421 29.81917416 11.38265167 31.0625 8 C32.18561571 4.96894073 33.18945941 2.71581089 35 0 C37.95064148 -0.2208564 40.68368231 -0.28060989 43.625 -0.1875 C44.42679688 -0.17396484 45.22859375 -0.16042969 46.0546875 -0.14648438 C48.03674378 -0.11109051 50.01845551 -0.05728234 52 0 C50.3959712 5.46006198 48.53113154 10.06458607 45.40625 14.828125 C43.75089257 17.38473258 42.20174053 19.98222171 40.6875 22.625 C40.17574219 23.50414063 39.66398438 24.38328125 39.13671875 25.2890625 C37.82493343 28.4175127 37.72335298 30.63803536 38 34 C38.94978897 36.15028304 38.94978897 36.15028304 40 38 C40 38.99 40 39.98 40 41 C30.76 41 21.52 41 12 41 C14 35 14 35 15 34 C14.67166053 28.11973856 12.76942197 24.22673571 9.75 19.25 C6.07392984 12.97781032 2.87949402 6.68785708 0 0 Z " fill="#FBFBFE" transform="translate(682,96)"/>
<path d="M0 0 C11.88 0 23.76 0 36 0 C47 20.625 47 20.625 47 24 C47.66 24 48.32 24 49 24 C50.4606285 26.64738916 51 27.89448334 51 31 C44.73 31 38.46 31 32 31 C31.525625 29.72125 31.05125 28.4425 30.5625 27.125 C27.26692449 18.83213363 23.0546378 10.94054868 19 3 C16.83149137 5.75406098 15.12491254 8.49347527 13.5546875 11.625 C13.11769531 12.49640625 12.68070313 13.3678125 12.23046875 14.265625 C11.55951172 15.61914062 11.55951172 15.61914062 10.875 17 C10.41996094 17.90234375 9.96492187 18.8046875 9.49609375 19.734375 C9.06167969 20.60578125 8.62726562 21.4771875 8.1796875 22.375 C7.78507324 23.16648438 7.39045898 23.95796875 6.98388672 24.7734375 C5.82065061 27.23495608 5.82065061 27.23495608 5 31 C-1.6 31 -8.2 31 -15 31 C-14.02430009 27.09720038 -12.69821813 24.25245265 -10.83984375 20.703125 C-10.27386475 19.61676758 -9.70788574 18.53041016 -9.12475586 17.41113281 C-8.40296143 16.03795898 -7.68116699 14.66478516 -6.9375 13.25 C-4.648125 8.8775 -2.35875 4.505 0 0 Z " fill="#F7F8FE" transform="translate(690,142)"/>
<path d="M0 0 C6.26923029 3.59693277 11.14850212 9.20618915 13.1875 16.25 C13.5669662 19.4375161 13.5 22.66497609 13.5 25.875 C-3 25.875 -19.5 25.875 -36.5 25.875 C-35.51907175 16.06571746 -34.43763309 9.06562191 -27 2.375 C-19.37163737 -3.81404893 -8.72471983 -4.06804778 0 0 Z " fill="#F8F8FE" transform="translate(1078.5,111.125)"/>
<path d="M0 0 C0.04898438 1.13179687 0.09796875 2.26359375 0.1484375 3.4296875 C0.22346514 4.91148339 0.29901297 6.393253 0.375 7.875 C0.4059375 8.62136719 0.436875 9.36773437 0.46875 10.13671875 C0.55643831 14.53473188 0.55643831 14.53473188 3 18 C6.39597063 18.21676408 8.75778445 18.08073852 12 17 C14.12323258 11.45600382 14.51580799 5.89100284 15 0 C20.28 0 25.56 0 31 0 C31 9.9 31 19.8 31 30 C26.38 30 21.76 30 17 30 C17 27.69 17 25.38 17 23 C16.34 23.7425 15.68 24.485 15 25.25 C10.20027666 29.955874 5.15835996 32.22450066 -1.5625 32.75 C-4.87696843 32.63491429 -6.50813136 32.3645098 -9.1875 30.37890625 C-15.14387679 23.81448266 -16.30193985 18.30991513 -16.125 9.6875 C-16.11597656 8.85154297 -16.10695313 8.01558594 -16.09765625 7.15429688 C-16.07420989 5.10274031 -16.03834266 3.05133223 -16 1 C-14.08351538 0.83125293 -12.16680367 0.66508357 -10.25 0.5 C-9.18265625 0.4071875 -8.1153125 0.314375 -7.015625 0.21875 C-4.6820782 0.04947717 -2.33967818 0 0 0 Z " fill="#FAFAFE" transform="translate(582,142)"/>
<path d="M0 0 C5.72314516 2.80758064 9.8811285 6.78212558 11.9765625 12.80859375 C13.50398639 18.5257271 14 22.95846147 14 29 C8.72 29 3.44 29 -2 29 C-2.390625 25.97265625 -2.78125 22.9453125 -3.171875 19.91796875 C-3.76494233 16.93631452 -3.76494233 16.93631452 -5.85546875 15.12109375 C-8.12344434 13.73889913 -8.12344434 13.73889913 -11.5625 13.875 C-15.2671151 14.67200995 -15.2671151 14.67200995 -16.875 18.125 C-18.19175124 21.74189898 -18.43666185 25.05663292 -19 29 C-24.61 29 -30.22 29 -36 29 C-36 19.76 -36 10.52 -36 1 C-30.72 1 -25.44 1 -20 1 C-20 2.98 -20 4.96 -20 7 C-19.44570313 6.57847656 -18.89140625 6.15695313 -18.3203125 5.72265625 C-17.23363281 4.90087891 -17.23363281 4.90087891 -16.125 4.0625 C-15.40570312 3.51722656 -14.68640625 2.97195312 -13.9453125 2.41015625 C-9.5648373 -0.76524847 -5.26427674 -0.57590701 0 0 Z " fill="#F8F8FE" transform="translate(540,109)"/>
<path d="M0 0 C16.83 0 33.66 0 51 0 C51 1.65 51 3.3 51 5 C39.45 5 27.9 5 16 5 C17.78032511 15.1110844 17.78032511 15.1110844 21 18 C23.44012949 18.24287489 23.44012949 18.24287489 26.125 18.125 C27.03507812 18.10695312 27.94515625 18.08890625 28.8828125 18.0703125 C29.93082031 18.03550781 29.93082031 18.03550781 31 18 C31.309375 17.030625 31.61875 16.06125 31.9375 15.0625 C33 12 33 12 34 11 C39.15197086 10.82234583 43.92193071 11.15365512 49 12 C48.73160155 18.44156291 46.49057033 22.38914654 42 27 C34.38513385 32.71114961 26.19762925 32.70116456 17 32 C10.61182668 30.51344394 7.59910087 26.73319273 4.2265625 21.31640625 C0.13269918 13.58500196 0.71217099 9.9703938 0 0 Z " fill="#F6F6FE" transform="translate(1042,142)"/>
<path d="M0 0 C5.03573167 3.68865085 5.03573167 3.68865085 6.55078125 6.71875 C6.88078125 4.40875 7.21078125 2.09875 7.55078125 -0.28125 C12.50078125 -0.28125 17.45078125 -0.28125 22.55078125 -0.28125 C22.55078125 8.62875 22.55078125 17.53875 22.55078125 26.71875 C17.27078125 26.71875 11.99078125 26.71875 6.55078125 26.71875 C6.32390625 25.336875 6.09703125 23.955 5.86328125 22.53125 C4.82739137 17.97765073 3.56176572 15.39273965 -0.44921875 12.71875 C-4.18065036 12.65441497 -6.37781951 12.86163061 -9.32421875 15.21875 C-11.02468659 18.99756742 -11.14587978 22.59334004 -11.44921875 26.71875 C-16.72921875 26.71875 -22.00921875 26.71875 -27.44921875 26.71875 C-27.26252225 17.1972283 -26.81464593 10.10899652 -20.44921875 2.71875 C-15.09895708 -2.4046926 -6.54444883 -3.42357132 0 0 Z " fill="#F8F8FE" transform="translate(1007.44921875,110.28125)"/>
<path d="M0 0 C3.79841669 1.42088921 7.64654494 3.65561649 10 7 C12.85709021 13.76679261 12.1379638 20.75690027 12 28 C6.72 28 1.44 28 -4 28 C-4.45572917 24.64713542 -4.91145833 21.29427083 -5.3671875 17.94140625 C-5.57601562 16.97074219 -5.78484375 16.00007813 -6 15 C-8.82883747 13.58558126 -10.87376745 13.68099668 -14 14 C-16.72848886 16.85370937 -17.53046324 19.40886205 -18.1875 23.25 C-18.455625 24.8175 -18.72375 26.385 -19 28 C-24.28 28 -29.56 28 -35 28 C-35 19.42 -35 10.84 -35 2 C-30.38 2 -25.76 2 -21 2 C-21 4.31 -21 6.62 -21 9 C-20.34 9 -19.68 9 -19 9 C-18.773125 8.4225 -18.54625 7.845 -18.3125 7.25 C-14.08303177 -0.00051697 -7.66593677 -0.84922054 0 0 Z " fill="#FBFBFE" transform="translate(956,109)"/>
<path d="M0 0 C4.05664947 -0.0990914 8.1128277 -0.17157106 12.17041016 -0.21972656 C13.5497668 -0.23980642 14.92903869 -0.26707666 16.30810547 -0.30175781 C18.29356979 -0.35042817 20.27966254 -0.37086418 22.265625 -0.390625 C24.05661621 -0.4220459 24.05661621 -0.4220459 25.88378906 -0.45410156 C29 0 29 0 31.42089844 1.83691406 C33 4 33 4 33 7 C33.66 7 34.32 7 35 7 C35.39043555 15.12684367 35.05798657 20.1325464 29.875 26.6875 C22.3153579 32.76808169 13.37691833 32.82372447 4 32 C-1.8893576 30.69686599 -5.75271897 27.11052231 -9.23046875 22.296875 C-11.08632516 19.38324378 -12.04652885 17.54671396 -11.75 14.0625 C-11.5025 13.381875 -11.255 12.70125 -11 12 C-6.23692563 11.04738513 -1.8333472 10.91666643 3 11 C4.00911458 12.79036458 5.01822917 14.58072917 6.02734375 16.37109375 C6.8972513 17.97878146 6.8972513 17.97878146 8 19 C13.87646031 19.46331437 13.87646031 19.46331437 19 17 C18.6792558 13.99111394 18.4711286 12.43813929 16.21484375 10.33984375 C15.46332031 9.87707031 14.71179688 9.41429687 13.9375 8.9375 C13.13183594 8.43605469 12.32617188 7.93460938 11.49609375 7.41796875 C9.19566994 6.11115522 6.87857027 4.90702605 4.5 3.75 C1 2 1 2 0 0 Z " fill="#F8F8FE" transform="translate(636,142)"/>
<path d="M0 0 C8.91 0 17.82 0 27 0 C33 12 33 12 32 16 C31.07226911 17.51195793 30.0883288 18.99030386 29.0625 20.4375 C25.81749738 25.02196316 23.8874095 29.04927246 23.4375 34.6875 C23.09859155 38.8028169 23.09859155 38.8028169 22 41 C17.38 41 12.76 41 8 41 C7.79375 38.793125 7.5875 36.58625 7.375 34.3125 C6.49268081 26.27672667 4.40277764 18.72169841 2.03271484 11.0090332 C1.64140381 9.72838989 1.64140381 9.72838989 1.2421875 8.421875 C1.0035498 7.66487305 0.76491211 6.90787109 0.51904297 6.12792969 C0 4 0 4 0 0 Z " fill="#6367F1" transform="translate(267,76)"/>
<path d="M0 0 C4.29 0 8.58 0 13 0 C13.20753906 1.01578125 13.41507812 2.0315625 13.62890625 3.078125 C15.46456571 11.46124245 17.69999593 18.15251505 22.609375 25.3515625 C24.2569775 28.48941221 24.3331367 30.50206467 24 34 C23.67 34.66 23.34 35.32 23 36 C22.34 36 21.68 36 21 36 C20.01 38.475 20.01 38.475 19 41 C10.09 41 1.18 41 -8 41 C-7.29375538 36.05628763 -6.84872951 33.26018602 -5.125 28.9375 C-1.86322811 19.64025969 -1.14355998 9.73758648 0 0 Z " fill="#6267F1" transform="translate(275,141)"/>
<path d="M0 0 C4.95 0 9.9 0 15 0 C15.28875 1.85625 15.5775 3.7125 15.875 5.625 C16.58516111 9.91640213 17.4171541 13.92982482 19 18 C22.3634269 17.97350778 22.3634269 17.97350778 26 17 C28.44113607 14.04494054 29.79175346 11.62473961 31 8 C36.15171623 7.90961901 40.91913204 8.15318867 46 9 C45.09938324 16.43785219 43.23890093 22.46817128 38 28 C31.76410433 32.58122237 24.48312191 32.98139304 17 32 C10.39694957 30.20325158 5.6472861 25.6780465 2 20 C-0.62480686 13.63046869 -0.17128743 6.76585345 0 0 Z " fill="#FAFAFE" transform="translate(745,142)"/>
<path d="M0 0 C7.25410897 2.5619118 10.05054139 5.62452027 13.47265625 12.46875 C13.47265625 17.74875 13.47265625 23.02875 13.47265625 28.46875 C2.58265625 28.46875 -8.30734375 28.46875 -19.52734375 28.46875 C-16.41540784 26.91278204 -13.7570042 25.82692914 -10.46484375 24.84375 C-9.17900391 24.45316406 -9.17900391 24.45316406 -7.8671875 24.0546875 C-5.52734375 23.46875 -5.52734375 23.46875 -2.52734375 23.46875 C-2.80976016 22.00859709 -3.10360989 20.55065207 -3.40234375 19.09375 C-3.56476563 18.28164062 -3.7271875 17.46953125 -3.89453125 16.6328125 C-4.39393307 14.28201077 -4.39393307 14.28201077 -6.52734375 12.46875 C-10.67773839 12.01091317 -10.67773839 12.01091317 -14.33984375 13.71875 C-15.64078325 15.635924 -16.02258772 17.22744801 -16.52734375 19.46875 C-18.29854178 19.32741501 -20.06929662 19.18051792 -21.83984375 19.03125 C-22.82597656 18.95003906 -23.81210937 18.86882812 -24.828125 18.78515625 C-27.52734375 18.46875 -27.52734375 18.46875 -30.52734375 17.46875 C-30.14517917 11.83182241 -29.79332198 8.51020306 -25.52734375 4.46875 C-17.42136935 -0.88698308 -9.63275085 -2.02481316 0 0 Z " fill="#F7F7FE" transform="translate(386.52734375,109.53125)"/>
<path d="M0 0 C3.714074 3.61090528 5.15096864 6.8802861 5.54296875 12.0546875 C5.52611557 13.39098123 5.48756874 14.72703825 5.4375 16.0625 C5.3446875 19.589375 5.3446875 19.589375 5.25 23.1875 C-3.99 23.1875 -13.23 23.1875 -22.75 23.1875 C-18.43630028 20.31170019 -14.94265239 19.1875 -9.75 19.1875 C-9.87375 17.90875 -9.9975 16.63 -10.125 15.3125 C-10.19460938 14.59320313 -10.26421875 13.87390625 -10.3359375 13.1328125 C-10.61374749 10.96081755 -10.61374749 10.96081755 -12.75 9.1875 C-18.02255894 8.59650252 -18.02255894 8.59650252 -22.6875 10.5 C-23.92571726 12.31820391 -23.92571726 12.31820391 -24.75 15.1875 C-29.37 14.5275 -33.99 13.8675 -38.75 13.1875 C-37.70437494 5.86812455 -36.80185642 3.89768497 -31.75 -0.8125 C-22.13344895 -7.68146503 -9.44862324 -6.22750168 0 0 Z " fill="#F9F9FE" transform="translate(900.75,113.8125)"/>
<path d="M0 0 C5.28085698 3.41805884 10.02901588 7.79952024 12.22265625 13.83203125 C12.22265625 15.81203125 12.22265625 17.79203125 12.22265625 19.83203125 C7.27265625 20.16203125 2.32265625 20.49203125 -2.77734375 20.83203125 C-3.10734375 18.85203125 -3.43734375 16.87203125 -3.77734375 14.83203125 C-7.25059556 13.67428065 -10.13801823 13.76336473 -13.77734375 13.83203125 C-16.41576551 18.53530482 -16.96865513 21.17121091 -17.77734375 26.83203125 C-22.72734375 26.83203125 -27.67734375 26.83203125 -32.77734375 26.83203125 C-32.48388134 17.44123421 -32.01922297 11.07391047 -25.25390625 4.30859375 C-18.15920985 -1.92177415 -8.94378867 -3.76117132 0 0 Z " fill="#F8F8FE" transform="translate(777.77734375,110.16796875)"/>
<path d="M0 0 C8.29044643 4.98154018 8.29044643 4.98154018 9.4921875 8.67578125 C9.94791667 10.69401042 10.40364583 12.71223958 10.859375 14.73046875 C0.06976918 17.41588176 0.06976918 17.41588176 -4.140625 16.73046875 C-4.78 15.90546875 -5.419375 15.08046875 -6.078125 14.23046875 C-6.75875 13.40546875 -7.439375 12.58046875 -8.140625 11.73046875 C-11.80862315 11.31275071 -11.80862315 11.31275071 -15.140625 11.73046875 C-15.81229207 14.47350771 -15.81229207 14.47350771 -15.140625 17.73046875 C-12.7303043 20.12357287 -9.97781837 21.88215117 -7.140625 23.73046875 C-5.820625 24.72046875 -4.500625 25.71046875 -3.140625 26.73046875 C-11.720625 26.73046875 -20.300625 26.73046875 -29.140625 26.73046875 C-31.52188205 20.77732612 -31.82821657 16.06490605 -31.140625 9.73046875 C-28.84433041 4.78460349 -25.82738635 2.42286357 -21.140625 -0.26953125 C-14.64214048 -2.43569276 -6.37629015 -2.57748047 0 0 Z " fill="#F8F8FE" transform="translate(658.140625,110.26953125)"/>
<path d="M0 0 C4.95 0 9.9 0 15 0 C14.67 1.65 14.34 3.3 14 5 C10.37 5 6.74 5 3 5 C2.67 6.65 2.34 8.3 2 10 C1.67 10.66 1.34 11.32 1 12 C2.32 12 3.64 12 5 12 C4.67 13.65 4.34 15.3 4 17 C2.02 17 0.04 17 -2 17 C-2.17015625 17.56847656 -2.3403125 18.13695312 -2.515625 18.72265625 C-4.14822159 23.92438689 -5.96793478 28.45190217 -9 33 C-10.485 33.495 -10.485 33.495 -12 34 C-12 34.66 -12 35.32 -12 36 C-16.4077913 36.34570912 -19.95027638 36.44988155 -24.0625 34.6875 C-27.15500072 30.39790223 -26.79721931 26.10220359 -26 21 C-23.83297975 16.75625202 -20.52793308 14.69897233 -16.3046875 12.71484375 C-12.2417799 11.45465377 -8.20301099 11.68994181 -4 12 C-3.896875 11.13375 -3.79375 10.2675 -3.6875 9.375 C-3 6 -3 6 0 0 Z " fill="#F1F2FD" transform="translate(603,201)"/>
<path d="M0 0 C4.29 0 8.58 0 13 0 C13 0.99 13 1.98 13 3 C13.66 2.01 14.32 1.02 15 0 C17.1640625 -0.29296875 17.1640625 -0.29296875 19.625 -0.1875 C20.44226563 -0.16042969 21.25953125 -0.13335937 22.1015625 -0.10546875 C23.04128906 -0.05326172 23.04128906 -0.05326172 24 0 C24 2.31 24 4.62 24 7 C21.36 7 18.72 7 16 7 C16 7.66 16 8.32 16 9 C20.62 9 25.24 9 30 9 C30 8.34 30 7.68 30 7 C28.68 7 27.36 7 26 7 C26 4.69 26 2.38 26 0 C32.93 0 39.86 0 47 0 C46.67 0.99 46.34 1.98 46 3 C45.96079185 4.99961564 45.95556653 7.00049364 46 9 C46.66 9 47.32 9 48 9 C48 6.36 48 3.72 48 1 C48.99 1 49.98 1 51 1 C51.36116046 2.4774746 51.71375048 3.95704675 52.0625 5.4375 C52.35833984 6.67306641 52.35833984 6.67306641 52.66015625 7.93359375 C52.77230469 8.61550781 52.88445312 9.29742187 53 10 C52 11 52 11 49.71580505 11.12025452 C48.70542679 11.11803391 47.69504852 11.11581329 46.65405273 11.11352539 C45.5129454 11.11344986 44.37183807 11.11337433 43.19615173 11.11329651 C41.9545076 11.10813522 40.71286346 11.10297394 39.43359375 11.09765625 C37.53795433 11.09553383 37.53795433 11.09553383 35.60401917 11.09336853 C32.23875111 11.08870582 28.8735501 11.0797148 25.50830078 11.06866455 C22.0765033 11.05844846 18.64469891 11.05387049 15.21289062 11.04882812 C8.47524176 11.0377738 1.73762475 11.0210171 -5 11 C-4.54177532 7.53058454 -4.10868317 4.32604951 -3 1 C-2.34 1 -1.68 1 -1 1 C-0.875 6.75 -0.875 6.75 -2 9 C-1.34 9 -0.68 9 0 9 C0 6.03 0 3.06 0 0 Z " fill="#B7B4C6" transform="translate(180,143)"/>
<path d="M0 0 C5.28 0 10.56 0 16 0 C16 10.23 16 20.46 16 31 C10.72 31 5.44 31 0 31 C0 20.77 0 10.54 0 0 Z " fill="#F9F9FE" transform="translate(952,142)"/>
<path d="M0 0 C5.28 0 10.56 0 16 0 C16 10.23 16 20.46 16 31 C10.72 31 5.44 31 0 31 C0 20.77 0 10.54 0 0 Z " fill="#F8F8FE" transform="translate(801,142)"/>
<path d="M0 0 C1.32 0 2.64 0 4 0 C3.38169051 5.02474293 1.87023224 9.24720494 -0.0625 13.875 C-0.34416016 14.56335938 -0.62582031 15.25171875 -0.91601562 15.9609375 C-1.60515266 17.64289909 -2.30180798 19.32177697 -3 21 C-1.68 21 -0.36 21 1 21 C1.24234375 20.36191406 1.4846875 19.72382813 1.734375 19.06640625 C2.06953125 18.24011719 2.4046875 17.41382813 2.75 16.5625 C3.07484375 15.73878906 3.3996875 14.91507813 3.734375 14.06640625 C5 12 5 12 7.140625 11.21484375 C7.75421875 11.14394531 8.3678125 11.07304687 9 11 C10.13643966 14.40931897 9.86747764 15.00335456 8.5625 18.1875 C8.27503906 18.90292969 7.98757813 19.61835938 7.69140625 20.35546875 C7.46324219 20.89816406 7.23507812 21.44085938 7 22 C7.99 22 8.98 22 10 22 C10.19335938 21.37351563 10.38671875 20.74703125 10.5859375 20.1015625 C10.84632813 19.28429687 11.10671875 18.46703125 11.375 17.625 C11.63023437 16.81289062 11.88546875 16.00078125 12.1484375 15.1640625 C13 13 13 13 15 11 C17.125 11.375 17.125 11.375 19 12 C18.21302675 15.41021743 17.12880057 18.68885166 16 22 C18.45224694 21.89386164 18.45224694 21.89386164 21 21 C22.37466625 18.52363988 22.37466625 18.52363988 23 16 C22.34 16 21.68 16 21 16 C21.33 14.35 21.66 12.7 22 11 C23.32 11 24.64 11 26 11 C26.33 9.68 26.66 8.36 27 7 C28.32 6.67 29.64 6.34 31 6 C32.83691257 9.78187881 33.15837626 11.94568308 32 16 C30.68 16 29.36 16 28 16 C27.67 17.98 27.34 19.96 27 22 C28.32 22 29.64 22 31 22 C30.67 23.32 30.34 24.64 30 26 C17 26 4 26 -9 26 C-8.49061827 19.76714851 -6.98229723 14.77975889 -4.5 9.0625 C-4.17902344 8.29615234 -3.85804688 7.52980469 -3.52734375 6.74023438 C-1.16826277 1.16826277 -1.16826277 1.16826277 0 0 Z " fill="#EEEEFD" transform="translate(833,201)"/>
<path d="M0 0 C5.28 0 10.56 0 16 0 C16 9.9 16 19.8 16 30 C10.72 30 5.44 30 0 30 C0 20.1 0 10.2 0 0 Z " fill="#F7F7FE" transform="translate(474,143)"/>
<path d="M0 0 C5.28 0 10.56 0 16 0 C16 9.9 16 19.8 16 30 C10.72 30 5.44 30 0 30 C0 20.1 0 10.2 0 0 Z " fill="#F9F9FE" transform="translate(444,143)"/>
<path d="M0 0 C5.28 0 10.56 0 16 0 C16 9.9 16 19.8 16 30 C10.72 30 5.44 30 0 30 C0 20.1 0 10.2 0 0 Z " fill="#F7F7FE" transform="translate(414,143)"/>
<path d="M0 0 C4.95 0 9.9 0 15 0 C15 9.9 15 19.8 15 30 C10.05 30 5.1 30 0 30 C0 20.1 0 10.2 0 0 Z " fill="#FDFDFE" transform="translate(921,142)"/>
<path d="M0 0 C4.95 0 9.9 0 15 0 C15 9.9 15 19.8 15 30 C10.05 30 5.1 30 0 30 C0 20.1 0 10.2 0 0 Z " fill="#FDFDFE" transform="translate(833,142)"/>
<path d="M0 0 C1.32 0 2.64 0 4 0 C3.44894091 3.9492568 2.61064629 7.34920174 1 11 C1.61875 11.103125 2.2375 11.20625 2.875 11.3125 C5 12 5 12 7 15 C7.66688308 21.1130949 7.66688308 21.1130949 5.35205078 24.19165039 C2.37188755 26.48291768 0.72251494 26.50264218 -3.0078125 26.49609375 C-4.15894531 26.49673828 -5.31007813 26.49738281 -6.49609375 26.49804688 C-7.69363281 26.47806641 -8.89117188 26.45808594 -10.125 26.4375 C-11.93291016 26.44813477 -11.93291016 26.44813477 -13.77734375 26.45898438 C-20.4083173 26.41061027 -20.4083173 26.41061027 -23 26 C-25.36086122 22.45870816 -25.57269578 21.17249782 -25 17 C-22.9375 13.625 -22.9375 13.625 -20 11 C-16.3125 10.5 -16.3125 10.5 -13 11 C-11 13 -11 13 -10.8125 16.0625 C-11 19 -11 19 -12 20 C-11.01 20.33 -10.02 20.66 -9 21 C-8.68546875 20.154375 -8.3709375 19.30875 -8.046875 18.4375 C-5.65617365 12.10070124 -3.16934587 5.9865422 0 0 Z " fill="#EDEDFD" transform="translate(775,201)"/>
<path d="M0 0 C5.28 0 10.56 0 16 0 C16 8.91 16 17.82 16 27 C12 28 12 28 0 28 C0 18.76 0 9.52 0 0 Z " fill="#F8F8FE" transform="translate(566,110)"/>
<path d="M0 0 C5.28 0 10.56 0 16 0 C16 8.91 16 17.82 16 27 C10.72 27 5.44 27 0 27 C0 18.09 0 9.18 0 0 Z " fill="#F8F8FE" transform="translate(597,110)"/>
<path d="M0 0 C1.11785889 -0.00315216 2.23571777 -0.00630432 3.38745117 -0.009552 C5.21240112 -0.00651566 5.21240112 -0.00651566 7.07421875 -0.00341797 C8.31341064 -0.00437469 9.55260254 -0.00533142 10.8293457 -0.00631714 C13.45560156 -0.00699921 16.08176508 -0.00564085 18.70800781 -0.00097656 C22.08100589 0.00472073 25.4539244 0.00144151 28.82691956 -0.00454903 C32.03435552 -0.00902317 35.24178175 -0.00589429 38.44921875 -0.00341797 C39.66585205 -0.0054422 40.88248535 -0.00746643 42.13598633 -0.009552 C43.81277466 -0.00482376 43.81277466 -0.00482376 45.5234375 0 C46.51303467 0.00079559 47.50263184 0.00159119 48.5222168 0.00241089 C50.76171875 0.12939453 50.76171875 0.12939453 51.76171875 1.12939453 C51.85045407 4.23169597 51.87697562 7.31226812 51.859375 10.41455078 C51.85836792 11.23918823 51.85736084 12.06382568 51.85632324 12.91345215 C51.85107467 16.00628034 51.83711352 19.09908877 51.82421875 22.19189453 C51.80359375 29.10126953 51.78296875 36.01064453 51.76171875 43.12939453 C32.62171875 43.12939453 13.48171875 43.12939453 -6.23828125 43.12939453 C-6.25890625 36.22001953 -6.27953125 29.31064453 -6.30078125 22.19189453 C-6.30988525 20.00830322 -6.31898926 17.82471191 -6.32836914 15.57495117 C-6.33128823 13.85481834 -6.3338368 12.13468481 -6.3359375 10.41455078 C-6.34105347 9.51281128 -6.34616943 8.61107178 -6.35144043 7.68200684 C-6.35175007 5.49747708 -6.30073995 3.31303123 -6.23828125 1.12939453 C-4.53262507 -0.57626165 -2.3309463 0.00187398 0 0 Z M-3.23828125 2.12939453 C-3.23828125 14.99939453 -3.23828125 27.86939453 -3.23828125 41.12939453 C4.1490455 41.15229703 11.53625007 41.1722261 18.92358398 41.18432617 C21.4388877 41.18936816 23.95418847 41.19620156 26.46948242 41.20483398 C30.0760165 41.21690547 33.68251198 41.22262402 37.2890625 41.22705078 C38.42133774 41.23221207 39.55361298 41.23737335 40.72019958 41.24269104 C41.76120316 41.24276657 42.80220673 41.2428421 43.87475586 41.24291992 C44.79630966 41.24514053 45.71786346 41.24736115 46.66734314 41.24964905 C48.74980237 41.36311434 48.74980237 41.36311434 49.76171875 40.12939453 C49.86271363 37.40215175 49.90142404 34.7007693 49.89453125 31.97314453 C49.89548798 31.15567749 49.8964447 30.33821045 49.89743042 29.49597168 C49.8981122 27.76424076 49.89625804 26.03250729 49.89208984 24.30078125 C49.88674154 21.64072971 49.89203487 18.98084703 49.8984375 16.32080078 C49.89777672 14.64241499 49.89649555 12.9640293 49.89453125 11.28564453 C49.89655548 10.48461304 49.89857971 9.68358154 49.90066528 8.85827637 C50.23385543 5.19357152 50.23385543 5.19357152 48.76171875 2.12939453 C47.13497097 2.03599019 45.50417824 2.01194282 43.87475586 2.01586914 C42.3132505 2.01598244 42.3132505 2.01598244 40.72019958 2.01609802 C39.02178673 2.02383995 39.02178673 2.02383995 37.2890625 2.03173828 C36.13628311 2.03315323 34.98350372 2.03456818 33.79579163 2.036026 C30.09690811 2.04164448 26.39808411 2.05420012 22.69921875 2.06689453 C20.19856858 2.07190715 17.69791746 2.07647047 15.19726562 2.08056641 C9.0520417 2.09077103 2.9069472 2.11034284 -3.23828125 2.12939453 Z " fill="#7574AD" transform="translate(181.23828125,98.87060546875)"/>
<path d="M0 0 C8.58 0 17.16 0 26 0 C26 1.65 26 3.3 26 5 C32.27 5.33 38.54 5.66 45 6 C45 6.99 45 7.98 45 9 C36.54232666 9.02312659 28.08466644 9.0409167 19.62696934 9.05181217 C15.70011342 9.05704031 11.77327906 9.06413669 7.84643555 9.07543945 C4.05985743 9.0862708 0.2733001 9.09227736 -3.51329231 9.09487724 C-4.96104319 9.09673105 -6.40879288 9.10035081 -7.85653496 9.10573006 C-9.87757135 9.11294367 -11.89862848 9.11340808 -13.91967773 9.11352539 C-15.64842384 9.11685631 -15.64842384 9.11685631 -17.41209412 9.12025452 C-20 9 -20 9 -21 8 C-21.04063832 6.33382885 -21.042721 4.66611905 -21 3 C-20.67 3.66 -20.34 4.32 -20 5 C-13.4 5.33 -6.8 5.66 0 6 C0 4.02 0 2.04 0 0 Z " fill="#A5A1B2" transform="translate(191,156)"/>
<path d="M0 0 C0.66 0.33 1.32 0.66 2 1 C1.85811015 3.54194161 1.71160845 6.08347993 1.5625 8.625 C1.50352539 9.69427734 1.50352539 9.69427734 1.44335938 10.78515625 C1.25614655 13.92457135 1.00907678 16.94748915 0.47265625 20.05078125 C-1.27273831 30.94146634 -0.53083839 43.98561077 1.53125 54.78125 C2.1454818 58.99897504 2.10660975 63.12010526 2.0625 67.375 C2.05798828 68.20644531 2.05347656 69.03789062 2.04882812 69.89453125 C2.03713164 71.92971897 2.01919935 73.96486923 2 76 C0.21572069 73.32358104 -0.35537884 72.06113952 -1 69.0625 C-1.47081416 66.88078082 -1.94188939 65.11103717 -2.97973633 63.12792969 C-4.65007868 59.64415272 -5.06279542 55.9757332 -5.6875 52.1875 C-5.82994141 51.40568359 -5.97238281 50.62386719 -6.11914062 49.81835938 C-6.94518722 44.89906696 -6.97406437 40.89647124 -6 36 C-6.33 36 -6.66 36 -7 36 C-7.43147592 29.31212319 -6.63373212 23.37502476 -5.1875 16.875 C-5.02217773 16.1236377 -4.85685547 15.37227539 -4.68652344 14.59814453 C-3.51231771 9.54640634 -1.90816264 4.82234798 0 0 Z " fill="#4DAEF3" transform="translate(74,94)"/>
<path d="M0 0 C17.76008798 -1.79737621 17.76008798 -1.79737621 22.5703125 2.0625 C24.1875 4.8125 24.1875 4.8125 25.546875 7.828125 C27.21141261 11.46147055 29.33302913 14.04259206 31.9375 17.0625 C36 21.78964942 36 21.78964942 36 24 C31.09029603 23.38388029 27.18332588 21.29056295 22.875 19 C22.12524902 18.60280762 21.37549805 18.20561523 20.60302734 17.79638672 C14.06829686 14.2295656 8.47505849 10.06799094 3 5 C2.40960938 4.46117187 1.81921875 3.92234375 1.2109375 3.3671875 C0 2 0 2 0 0 Z " fill="#616BF1" transform="translate(122,207)"/>
<path d="M0 0 C0 3.60949632 -0.50990825 3.82986081 -2.9375 6.3125 C-5.44895562 8.94237396 -7.24757294 11.34280781 -8.73046875 14.63671875 C-12.46907694 22.50930738 -12.46907694 22.50930738 -16 25 C-22.81740649 26.74263263 -30.09308331 25.85970376 -37 25 C-28.46786831 13.56978083 -13.46411121 4.48803707 0 0 Z " fill="#616AF1" transform="translate(158,26)"/>
<path d="M0 0 C0.56396484 0.0628418 1.12792969 0.12568359 1.70898438 0.19042969 C0.43054468 4.02574878 -1.86723184 5.53018149 -4.97851562 7.87792969 C-5.55432373 8.31637207 -6.13013184 8.75481445 -6.72338867 9.20654297 C-12.91766633 13.81736505 -19.48388567 17.55717628 -26.29101562 21.19042969 C-27.14566406 21.65835938 -28.0003125 22.12628906 -28.88085938 22.60839844 C-30.64656918 23.54393727 -32.46355432 24.3821295 -34.29101562 25.19042969 C-34.95101562 24.86042969 -35.61101562 24.53042969 -36.29101562 24.19042969 C-35.66195312 23.46339844 -35.03289062 22.73636719 -34.38476562 21.98730469 C-33.52008812 20.97175986 -32.65551275 19.95612807 -31.79101562 18.94042969 C-31.32743652 18.40772461 -30.86385742 17.87501953 -30.38623047 17.32617188 C-27.20388729 13.57849349 -25.11586462 9.86117886 -22.91601562 5.44042969 C-17.7984237 -2.78197742 -8.56429926 -0.83117892 0 0 Z " fill="#626AF1" transform="translate(272.291015625,206.8095703125)"/>
<path d="M0 0 C0.99 0 1.98 0 3 0 C3.28875 0.94875 3.5775 1.8975 3.875 2.875 C4.76825109 6.05211578 4.76825109 6.05211578 7 8 C7.55645806 13.23070574 7.55645806 13.23070574 5.79296875 15.66870117 C3.4193806 17.43111623 1.93851431 17.37315816 -1 17.36328125 C-1.969375 17.36263672 -2.93875 17.36199219 -3.9375 17.36132812 C-5.4534375 17.3371582 -5.4534375 17.3371582 -7 17.3125 C-8.010625 17.31572266 -9.02125 17.31894531 -10.0625 17.32226562 C-17.59928571 17.26714286 -17.59928571 17.26714286 -21 15 C-21.70740777 11.94635648 -21.5782682 9.07136789 -21 6 C-18.40185329 2.86694073 -16.88875841 2.12442618 -12.875 1.5625 C-10 2 -10 2 -8.0625 3.1875 C-7 5 -7 5 -7.25 7.5625 C-8 10 -8 10 -9 12 C-5.7 12 -2.4 12 1 12 C1.33 10.68 1.66 9.36 2 8 C1.34 8 0.68 8 0 8 C0 8.66 0 9.32 0 10 C-1.32 10 -2.64 10 -4 10 C-3.5289356 5.85463326 -3.0080208 3.0080208 0 0 Z " fill="#EEEFFD" transform="translate(695,210)"/>
<path d="M0 0 C1.32 0 2.64 0 4 0 C3.38169051 5.02474293 1.87023224 9.24720494 -0.0625 13.875 C-0.34416016 14.56335938 -0.62582031 15.25171875 -0.91601562 15.9609375 C-1.60515266 17.64289909 -2.30180798 19.32177697 -3 21 C-2.01 21 -1.02 21 0 21 C0 22.65 0 24.3 0 26 C-3.31248187 26.02888146 -6.62493167 26.04675799 -9.9375 26.0625 C-10.88302734 26.07087891 -11.82855469 26.07925781 -12.80273438 26.08789062 C-14.15141602 26.09272461 -14.15141602 26.09272461 -15.52734375 26.09765625 C-16.77632446 26.10551147 -16.77632446 26.10551147 -18.05053711 26.11352539 C-20 26 -20 26 -21 25 C-21.04254356 23.00045254 -21.04080783 20.99958364 -21 19 C-21 18.34 -21 17.68 -21 17 C-21.33 17.66 -21.66 18.32 -22 19 C-22.99 19 -23.98 19 -25 19 C-25.17942163 15.05272412 -25.09350689 12.4019487 -23 9 C-21.68 9 -20.36 9 -19 9 C-19 9.66 -19 10.32 -19 11 C-16.36 11 -13.72 11 -11 11 C-10.67 12.65 -10.34 14.3 -10 16 C-10.804375 16.268125 -11.60875 16.53625 -12.4375 16.8125 C-13.283125 17.204375 -14.12875 17.59625 -15 18 C-15.33 18.99 -15.66 19.98 -16 21 C-14.02 21.33 -12.04 21.66 -10 22 C-7.22130724 15.85272439 -4.59835084 9.65292218 -2.05078125 3.40625 C-1 1 -1 1 0 0 Z " fill="#EFF0FD" transform="translate(672,201)"/>
<path d="M0 0 C5.625 -0.25 5.625 -0.25 9 2 C11.04986814 2.40380439 13.11601751 2.72801168 15.1875 3 C18.85360857 3.51164372 22.2411123 4.06719523 25.8125 5.0625 C29.81633018 6.13815587 33.8786796 6.40790464 38 6.6875 C38.66491455 6.73592041 39.3298291 6.78434082 40.01489258 6.83422852 C44.09356188 7.07049137 47.88489766 6.83835521 51.94628906 6.25610352 C54.82633652 5.89695352 57.69852026 5.81322061 60.59716797 5.70849609 C67.44206869 5.45758977 73.59943435 5.04538228 80.0546875 2.5234375 C82.39375979 1.89404857 83.70412731 2.34889599 86 3 C56.73130298 11.99078888 28.57635104 14.18560682 -1 5 C-0.01 4.34 0.98 3.68 2 3 C1.34 2.67 0.68 2.34 0 2 C0 1.34 0 0.68 0 0 Z " fill="#4CADF3" transform="translate(156,247)"/>
<path d="M0 0 C12.47863494 2.49572699 28.01190273 12.51785409 35 23 C28.40836265 23.73449673 21.52316044 24.4926226 15 23 C10.92608215 19.6486051 9.22550318 15.70454469 7 11 C5.71458292 9.25532711 4.38437776 7.54223687 3 5.875 C0 2.21875 0 2.21875 0 0 Z " fill="#6269F1" transform="translate(239,28)"/>
<path d="M0 0 C1.20849609 0.00644531 2.41699219 0.01289062 3.66210938 0.01953125 C5.55606445 0.04466797 5.55606445 0.04466797 7.48828125 0.0703125 C8.76251953 0.07933594 10.03675781 0.08835937 11.34960938 0.09765625 C14.50018752 0.12125609 17.65039108 0.15418056 20.80078125 0.1953125 C21.921875 2.5 21.921875 2.5 22.80078125 5.1953125 C21.53417592 7.23822432 20.20191741 9.24221362 18.80078125 11.1953125 C19.13078125 12.1853125 19.46078125 13.1753125 19.80078125 14.1953125 C20.91081378 17.5254101 20.73509745 18.17374691 19.55078125 21.3203125 C19.298125 22.02414063 19.04546875 22.72796875 18.78515625 23.453125 C17.80078125 25.1953125 17.80078125 25.1953125 14.80078125 26.1953125 C12.43755033 32.02373033 12.29353427 38.98403105 11.80078125 45.1953125 C11.47078125 45.1953125 11.14078125 45.1953125 10.80078125 45.1953125 C10.05615711 37.20301337 11.25679922 30.13245918 13.11328125 22.3828125 C13.43268677 21.04053589 13.43268677 21.04053589 13.75854492 19.67114258 C15.05768966 14.47795059 16.64442225 10.22681683 18.80078125 5.1953125 C9.56078125 5.1953125 0.32078125 5.1953125 -9.19921875 5.1953125 C-9.19921875 4.2053125 -9.19921875 3.2153125 -9.19921875 2.1953125 C-5.6590865 -0.16477567 -4.1879992 -0.03932394 0 0 Z " fill="#44B1F0" transform="translate(110.19921875,70.8046875)"/>
<path d="M0 0 C1.32 0 2.64 0 4 0 C4.33 1.32 4.66 2.64 5 4 C5.5775 3.319375 6.155 2.63875 6.75 1.9375 C7.4925 1.298125 8.235 0.65875 9 0 C11.25 0.25 11.25 0.25 13 1 C13.33 2.32 13.66 3.64 14 5 C14.86625 3.7625 14.86625 3.7625 15.75 2.5 C16.4925 1.675 17.235 0.85 18 0 C19.32 0 20.64 0 22 0 C21.46517165 4.36514314 19.95615066 6.87894418 17.25 10.3125 C16.57453125 11.19550781 15.8990625 12.07851562 15.203125 12.98828125 C13 15 13 15 10.234375 15.29296875 C9.49703125 15.19628906 8.7596875 15.09960938 8 15 C8 13.35 8 11.7 8 10 C7.34 10 6.68 10 6 10 C5.690625 10.639375 5.38125 11.27875 5.0625 11.9375 C4 14 4 14 3 15 C1.33382885 15.04063832 -0.33388095 15.042721 -2 15 C-1.85973717 12.68715544 -1.71264442 10.37472409 -1.5625 8.0625 C-1.48128906 6.77472656 -1.40007813 5.48695313 -1.31640625 4.16015625 C-1 1 -1 1 0 0 Z " fill="#EEEEFD" transform="translate(729,212)"/>
<path d="M0 0 C0.56905158 11.84470327 0.56905158 11.84470327 -3 17 C-6.70415293 19.46943529 -8.62144505 19.46913089 -13 19 C-15.28412799 17.23164284 -15.83469473 15.90639292 -16.34765625 13.09375 C-16.61822087 9.37522086 -16.50702037 7.60515335 -14.0625 4.6875 C-9.83105605 2.35588803 -4.92091513 0 0 0 Z " fill="#686BF1" transform="translate(891,143)"/>
<path d="M0 0 C0.55607983 11.76005866 0.55607983 11.76005866 -3 16 C-5 18 -5 18 -8.9375 18.375 C-11.79152833 18.28694468 -12.69940383 18.23484076 -15 16.4375 C-16.40962258 13.00154495 -16.5168609 10.68263393 -16 7 C-11.82726297 1.30990405 -6.85635295 0 0 0 Z " fill="#6A6DF1" transform="translate(384,144)"/>
<path d="M0 0 C1.08784335 3.31395986 1.07262544 3.83580335 -0.4375 7.25 C-0.953125 8.1575 -1.46875 9.065 -2 10 C-0.68 10.33 0.64 10.66 2 11 C1.67 12.32 1.34 13.64 1 15 C-1.45862401 15.05383848 -3.9160755 15.09359038 -6.375 15.125 C-7.42300781 15.15013672 -7.42300781 15.15013672 -8.4921875 15.17578125 C-10.32897486 15.19344267 -12.16601963 15.10303261 -14 15 C-16 13 -16 13 -16.4375 9.1875 C-16.31944329 5.94684335 -15.94362511 4.90668984 -14.1875 2 C-9.54501743 -0.91293024 -5.33972223 -0.42081874 0 0 Z " fill="#EDEEFD" transform="translate(644,212)"/>
<path d="M0 0 C2.96858157 2.20740681 3.82865791 3.48597373 5 7 C5 9.31 5 11.62 5 14 C-0.94 14 -6.88 14 -13 14 C-13 4.80769231 -13 4.80769231 -10 1 C-6.80508241 -0.59745879 -3.46790611 -0.50816842 0 0 Z " fill="#6B6EF1" transform="translate(1071,122)"/>
<path d="M0 0 C4.6633307 -0.04586883 9.3258814 -0.08570572 13.98925781 -0.10986328 C15.57619883 -0.11993188 17.16312125 -0.13358767 18.75 -0.15087891 C21.02869247 -0.17509001 23.30714006 -0.18647422 25.5859375 -0.1953125 C26.29744965 -0.20563507 27.00896179 -0.21595764 27.74203491 -0.22659302 C29.49631665 -0.22699422 31.24996709 -0.12202209 33 0 C35.59704447 2.59704447 35.43781054 4.41604218 36 8 C36.6599679 9.66933058 37.32558869 11.3364521 38 13 C38 13.99 38 14.98 38 16 C38.66 16 39.32 16 40 16 C43.16801648 25.78690805 43.32476018 34.84823738 43 45 C38.545 45.495 38.545 45.495 34 46 C34 45.34 34 44.68 34 44 C36.64 44 39.28 44 42 44 C40.47018001 29.80890672 37.34240187 17.35600468 32 4 C17.15 3.505 17.15 3.505 2 3 C2 9.6 2 16.2 2 23 C1.67 23 1.34 23 1 23 C0.67 15.41 0.34 7.82 0 0 Z " fill="#44A2F1" transform="translate(208,73)"/>
<path d="M0 0 C2.375 1.0625 2.375 1.0625 4 3 C4.72437391 7.34624346 4.49368836 9.27489523 2 12.9375 C-2.08436307 15.74549961 -4.12166689 15.55980872 -9 15 C-11.38125912 12.61874088 -11.34521641 11.89292462 -11.4375 8.625 C-11.35183607 5.07851319 -11.22734772 4.2741546 -8.875 1.4375 C-5.53248818 -0.23375591 -3.68818005 -0.54930341 0 0 Z " fill="#F0F1FD" transform="translate(888,212)"/>
<path d="M0 0 C2.4375 1.5625 2.4375 1.5625 4 4 C4 7.86021246 3.52399261 10.18257152 1.4375 13.4375 C-2.21917658 15.78152345 -4.69735633 15.41638487 -9 15 C-11.38125912 12.61874088 -11.34521641 11.89292462 -11.4375 8.625 C-11.35183607 5.07851319 -11.22734772 4.2741546 -8.875 1.4375 C-5.51364699 -0.2431765 -3.70532093 -0.63069292 0 0 Z " fill="#F3F3FD" transform="translate(819,212)"/>
<path d="M0 0 C0.99 0.66 1.98 1.32 3 2 C3.1875 5 3.1875 5 3 8 C2.9122942 10.03471688 2.9122942 10.03471688 3.5625 12.0625 C3.706875 12.701875 3.85125 13.34125 4 14 C2.18880181 15.81119819 -0.49781392 15.21518878 -2.9375 15.25 C-4.01902344 15.27578125 -5.10054687 15.3015625 -6.21484375 15.328125 C-7.13394531 15.21984375 -8.05304687 15.1115625 -9 15 C-11.50031654 11.24952518 -11.53603554 9.44143734 -11 5 C-7.78103132 0.55024918 -5.47495108 -0.83314473 0 0 Z " fill="#EDEDFD" transform="translate(623,212)"/>
<path d="M0 0 C3.63 0 7.26 0 11 0 C10.95117188 3.75976562 10.95117188 3.75976562 10.90234375 7.51953125 C10.88990033 10.13413791 10.88990033 10.13413791 12 13 C11.92111143 16.36186666 11.44823142 19.66959237 11 23 C10.91105469 23.81855469 10.82210937 24.63710937 10.73046875 25.48046875 C9.85739208 31.20823546 9.85739208 31.20823546 7.41796875 33.4609375 C6.19290231 34.27077089 4.94907819 35.05299716 3.6875 35.8046875 C1.08174962 37.65042735 0.14729457 40.09801962 -1 43 C-2.30879058 39.07362826 -0.94137099 37.64128504 0.74609375 34.0546875 C4.77097084 24.24953521 7.48784376 13.58456224 8 3 C5.36 3 2.72 3 0 3 C0 2.01 0 1.02 0 0 Z " fill="#47B1F2" transform="translate(242,139)"/>
<path d="M0 0 C0.89589844 -0.01417969 1.79179688 -0.02835938 2.71484375 -0.04296875 C5.0625 0.1875 5.0625 0.1875 7.0625 2.1875 C6.72333005 5.37569752 6.07656317 8.14531049 5.0625 11.1875 C6.3825 11.1875 7.7025 11.1875 9.0625 11.1875 C9.0625 12.5075 9.0625 13.8275 9.0625 15.1875 C5.7625 15.1875 2.4625 15.1875 -0.9375 15.1875 C-0.27083333 11.85416667 0.39583333 8.52083333 1.0625 5.1875 C-2.0302781 7.24935207 -2.61826198 8.09119802 -4.125 11.3125 C-4.46917969 12.03695312 -4.81335938 12.76140625 -5.16796875 13.5078125 C-5.42191406 14.06210938 -5.67585937 14.61640625 -5.9375 15.1875 C-7.2575 15.1875 -8.5775 15.1875 -9.9375 15.1875 C-8.39389944 0.06021449 -8.39389944 0.06021449 0 0 Z " fill="#EFF0FD" transform="translate(902.9375,211.8125)"/>
<path d="M0 0 C6.93 0 13.86 0 21 0 C20.67 0.99 20.34 1.98 20 3 C20 4.98 20 6.96 20 9 C14.72 9 9.44 9 4 9 C4 8.34 4 7.68 4 7 C2.68 7 1.36 7 0 7 C0 4.69 0 2.38 0 0 Z " fill="#BCB9CC" transform="translate(206,143)"/>
<path d="M0 0 C3.3125 0.5 3.3125 0.5 5.3125 2.5 C5.5 5.5625 5.5 5.5625 5.3125 8.5 C4.3125 9.5 4.3125 9.5 2.46484375 9.59765625 C0.4140625 9.56510417 -1.63671875 9.53255208 -3.6875 9.5 C-3.6875 10.16 -3.6875 10.82 -3.6875 11.5 C-0.7175 11.5 2.2525 11.5 5.3125 11.5 C5.3125 12.82 5.3125 14.14 5.3125 15.5 C3.35483719 15.58082094 1.39623272 15.63910778 -0.5625 15.6875 C-1.65304687 15.72230469 -2.74359375 15.75710937 -3.8671875 15.79296875 C-4.79789063 15.69628906 -5.72859375 15.59960938 -6.6875 15.5 C-9.04836122 11.95870816 -9.26019578 10.67249782 -8.6875 6.5 C-6.1174205 2.29441537 -4.96450251 0.67315288 0 0 Z " fill="#F1F1FD" transform="translate(758.6875,211.5)"/>
<path d="M0 0 C0.66 0 1.32 0 2 0 C2.125 5.75 2.125 5.75 1 8 C17.5 8 34 8 51 8 C51 5.36 51 2.72 51 0 C51.99 0 52.98 0 54 0 C54.36116046 1.4774746 54.71375048 2.95704675 55.0625 4.4375 C55.35833984 5.67306641 55.35833984 5.67306641 55.66015625 6.93359375 C55.77230469 7.61550781 55.88445312 8.29742187 56 9 C55 10 55 10 52.71580505 10.12025452 C51.70542679 10.11803391 50.69504852 10.11581329 49.65405273 10.11352539 C48.5129454 10.11344986 47.37183807 10.11337433 46.19615173 10.11329651 C44.9545076 10.10813522 43.71286346 10.10297394 42.43359375 10.09765625 C40.53795433 10.09553383 40.53795433 10.09553383 38.60401917 10.09336853 C35.23875111 10.08870582 31.8735501 10.0797148 28.50830078 10.06866455 C25.0765033 10.05844846 21.64469891 10.05387049 18.21289062 10.04882812 C11.47524176 10.0377738 4.73762475 10.0210171 -2 10 C-1.54177532 6.53058454 -1.10868317 3.32604951 0 0 Z " fill="#9D9BAC" transform="translate(177,144)"/>
<path d="M0 0 C0.33 0 0.66 0 1 0 C1.0093457 0.90951416 1.01869141 1.81902832 1.02832031 2.75610352 C1.25677863 20.52097753 1.99624201 37.52432597 5.64111328 54.97900391 C6.06127557 57.34506063 6.15325022 59.60237554 6 62 C4.21572069 59.32358104 3.64462116 58.06113952 3 55.0625 C2.52918584 52.88078082 2.05811061 51.11103717 1.02026367 49.12792969 C-0.65007868 45.64415272 -1.06279542 41.9757332 -1.6875 38.1875 C-1.82994141 37.40568359 -1.97238281 36.62386719 -2.11914062 35.81835938 C-2.94518722 30.89906696 -2.97406437 26.89647124 -2 22 C-2.33 22 -2.66 22 -3 22 C-3.46530864 14.21038876 -2.15721701 7.47321608 0 0 Z " fill="#4A97E5" transform="translate(70,108)"/>
<path d="M0 0 C1.78277344 -0.01836914 1.78277344 -0.01836914 3.6015625 -0.03710938 C5.31472656 -0.04000977 5.31472656 -0.04000977 7.0625 -0.04296875 C8.10535156 -0.04707764 9.14820313 -0.05118652 10.22265625 -0.05541992 C13 0.1875 13 0.1875 17 2.1875 C17 9.4475 17 16.7075 17 24.1875 C16.67 24.1875 16.34 24.1875 16 24.1875 C16 17.5875 16 10.9875 16 4.1875 C11.90610127 4.28436684 7.81301238 4.38704872 3.71972656 4.50488281 C2.32691428 4.54319327 0.93400235 4.57804259 -0.45898438 4.609375 C-2.45986308 4.65497907 -4.46042146 4.71401623 -6.4609375 4.7734375 C-7.66540527 4.8048584 -8.86987305 4.8362793 -10.11083984 4.86865234 C-13.1260018 4.89665226 -13.1260018 4.89665226 -15 7.1875 C-15.99 6.5275 -16.98 5.8675 -18 5.1875 C-17.67 3.8675 -17.34 2.5475 -17 1.1875 C-11.48514627 -0.46976645 -5.70378386 0.00309316 0 0 Z " fill="#45A2EF" transform="translate(169,71.8125)"/>
<path d="M0 0 C0.99261337 0.00222061 1.98522675 0.00444122 3.00791931 0.00672913 C4.12900589 0.00680466 5.25009247 0.00688019 6.40515137 0.00695801 C8.2348069 0.01469994 8.2348069 0.01469994 10.10142517 0.02259827 C11.96377052 0.02472069 11.96377052 0.02472069 13.86373901 0.02688599 C17.16982383 0.03154861 20.47584039 0.04053955 23.78190613 0.05158997 C27.15338042 0.06180625 30.52486175 0.06638407 33.89634705 0.07142639 C40.51550667 0.08248056 47.13463385 0.09923715 53.75376892 0.12025452 C53.75376892 0.78025452 53.75376892 1.44025452 53.75376892 2.12025452 C35.93376892 2.12025452 18.11376892 2.12025452 -0.24623108 2.12025452 C-0.24623108 14.66025452 -0.24623108 27.20025452 -0.24623108 40.12025452 C-0.57623108 40.12025452 -0.90623108 40.12025452 -1.24623108 40.12025452 C-1.24623108 27.58025452 -1.24623108 15.04025452 -1.24623108 2.12025452 C-1.90623108 1.79025452 -2.56623108 1.46025452 -3.24623108 1.12025452 C-2.24623108 0.12025452 -2.24623108 0.12025452 0 0 Z " fill="#657AC2" transform="translate(178.24623107910156,98.87974548339844)"/>
<path d="M0 0 C5.625 -0.25 5.625 -0.25 9 2 C11.32108669 2.70812814 13.65377147 3.38024152 16 4 C16 4.66 16 5.32 16 6 C16.89307861 6.08302368 16.89307861 6.08302368 17.80419922 6.16772461 C20.49487215 6.42018865 23.18492286 6.67876816 25.875 6.9375 C26.81214844 7.02451172 27.74929687 7.11152344 28.71484375 7.20117188 C30.05869141 7.33168945 30.05869141 7.33168945 31.4296875 7.46484375 C32.25710449 7.543396 33.08452148 7.62194824 33.93701172 7.70288086 C36 8 36 8 38 9 C40.0374763 9.22858114 42.08040303 9.41024278 44.125 9.5625 C45.76855469 9.68818359 45.76855469 9.68818359 47.4453125 9.81640625 C48.28835937 9.87699219 49.13140625 9.93757813 50 10 C50 10.33 50 10.66 50 11 C32.32519907 11.48529797 15.95665731 10.26627463 -1 5 C-0.01 4.34 0.98 3.68 2 3 C1.34 2.67 0.68 2.34 0 2 C0 1.34 0 0.68 0 0 Z " fill="#4B9DE9" transform="translate(156,247)"/>
<path d="M0 0 C0.33 0 0.66 0 1 0 C1.12375 1.299375 1.2475 2.59875 1.375 3.9375 C1.89863328 8.71849952 2.86313835 13.33114101 4 18 C4.99 17.34 5.98 16.68 7 16 C7.70350553 18.68419062 8.38795993 21.37101833 9.0625 24.0625 C9.26166016 24.81466797 9.46082031 25.56683594 9.66601562 26.34179688 C10.8880953 31.29443555 11.13631093 35.0067251 10 40 C9 41 9 41 6.22436523 41.11352539 C5.01466064 41.10828857 3.80495605 41.10305176 2.55859375 41.09765625 C1.25341797 41.09443359 -0.05175781 41.09121094 -1.39648438 41.08789062 C-2.7851569 41.07953401 -4.17382877 41.07106905 -5.5625 41.0625 C-6.95507656 41.05748666 -8.34765481 41.05292347 -9.74023438 41.04882812 C-13.1601987 41.03699434 -16.58007844 41.0205088 -20 41 C-19.67 40.34 -19.34 39.68 -19 39 C-5.635 39.495 -5.635 39.495 8 40 C7.01 37.36 6.02 34.72 5 32 C4.14852209 28.97252298 3.42194331 25.93449816 2.6953125 22.875 C2.28994185 21.19886066 1.85936222 19.52773485 1.3671875 17.875 C-0.38325632 11.9580068 -0.18388824 6.1296081 0 0 Z " fill="#50A8F3" transform="translate(121,142)"/>
<path d="M0 0 C0.99 0 1.98 0 3 0 C3.33 0.66 3.66 1.32 4 2 C6.54941373 2.31241371 9.00361513 2.51303421 11.5625 2.625 C12.62887695 2.68300781 12.62887695 2.68300781 13.71679688 2.7421875 C15.47742425 2.83671783 17.23867728 2.91945817 19 3 C19 5.31 19 7.62 19 10 C16.04160645 10.02689449 13.08345573 10.04678741 10.125 10.0625 C8.86236328 10.07506836 8.86236328 10.07506836 7.57421875 10.08789062 C6.76855469 10.09111328 5.96289062 10.09433594 5.1328125 10.09765625 C4.38918457 10.10289307 3.64555664 10.10812988 2.87939453 10.11352539 C1 10 1 10 -1 9 C-0.67 6.03 -0.34 3.06 0 0 Z " fill="#D3CFE0" transform="translate(172,152)"/>
<path d="M0 0 C3.73467652 1.86733826 4.97520816 2.85610633 7.5 5.9375 C9.32353727 8.15475555 10.86672512 9.90590981 13.21875 11.56640625 C13.8065625 12.03949219 14.394375 12.51257812 15 13 C15 13.99 15 14.98 15 16 C10.05 16 5.1 16 0 16 C0 10.72 0 5.44 0 0 Z " fill="#5F71F1" transform="translate(210,36)"/>
<path d="M0 0 C4.80548597 -0.04936883 9.61082494 -0.08570443 14.41650391 -0.10986328 C16.05194672 -0.11993254 17.68737149 -0.13358881 19.32275391 -0.15087891 C21.6709437 -0.17508705 24.01889588 -0.18647357 26.3671875 -0.1953125 C27.10057343 -0.20563507 27.83395935 -0.21595764 28.58956909 -0.22659302 C30.39462697 -0.22699368 32.1990783 -0.12212755 34 0 C34.66 0.66 35.32 1.32 36 2 C35.34 2.99 34.68 3.98 34 5 C30.92724609 5.2487793 30.92724609 5.2487793 27.0234375 5.07421875 C26.33819 5.04777786 25.6529425 5.02133698 24.94692993 4.99409485 C22.7554101 4.90622738 20.56552901 4.7971224 18.375 4.6875 C16.89068397 4.62425157 15.40630836 4.56238515 13.921875 4.50195312 C10.28042197 4.35067376 6.64014284 4.1803333 3 4 C3 5.65 3 7.3 3 9 C2.67 9 2.34 9 2 9 C2 6.69 2 4.38 2 2 C1.34 2 0.68 2 0 2 C0 1.34 0 0.68 0 0 Z " fill="#47B1F0" transform="translate(86,137)"/>
<path d="M0 0 C0.33 0.66 0.66 1.32 1 2 C1.66 2 2.32 2 3 2 C3 2.66 3 3.32 3 4 C23.79 3.67 44.58 3.34 66 3 C66 3.99 66 4.98 66 6 C57.54232666 6.02312659 49.08466644 6.0409167 40.62696934 6.05181217 C36.70011342 6.05704031 32.77327906 6.06413669 28.84643555 6.07543945 C25.05985743 6.0862708 21.2733001 6.09227736 17.48670769 6.09487724 C16.03895681 6.09673105 14.59120712 6.10035081 13.14346504 6.10573006 C11.12242865 6.11294367 9.10137152 6.11340808 7.08032227 6.11352539 C5.35157616 6.11685631 5.35157616 6.11685631 3.58790588 6.12025452 C1 6 1 6 0 5 C-0.04063832 3.33382885 -0.042721 1.66611905 0 0 Z " fill="#9087A4" transform="translate(170,159)"/>
<path d="M0 0 C4.95 0 9.9 0 15 0 C15 5.28 15 10.56 15 16 C14.34 16 13.68 16 13 16 C11.4140625 14.390625 11.4140625 14.390625 9.625 12.25 C7.66242273 9.93096298 5.7411705 7.74780716 3.5625 5.625 C2 4 2 4 2 2 C1.34 2 0.68 2 0 2 C0 1.34 0 0.68 0 0 Z " fill="#606EF2" transform="translate(171,207)"/>
<path d="M0 0 C0.66 0 1.32 0 2 0 C2.33 12.54 2.66 25.08 3 38 C20.49 38.33 37.98 38.66 56 39 C56 39.33 56 39.66 56 40 C37.52 40 19.04 40 0 40 C0 26.8 0 13.6 0 0 Z " fill="#595388" transform="translate(175,101)"/>
<path d="M0 0 C11.88 0 23.76 0 36 0 C34.68 0.33 33.36 0.66 32 1 C32 3.31 32 5.62 32 8 C33.32 8 34.64 8 36 8 C36 8.66 36 9.32 36 10 C31.38 10 26.76 10 22 10 C22 9.34 22 8.68 22 8 C24.64 8 27.28 8 30 8 C30 5.69 30 3.38 30 1 C25.545 1.495 25.545 1.495 21 2 C20.34 3.65 19.68 5.3 19 7 C18.67 7 18.34 7 18 7 C18 5.35 18 3.7 18 2 C14.37 2 10.74 2 7 2 C6.67 4.64 6.34 7.28 6 10 C5.34 10 4.68 10 4 10 C4.33 7.36 4.66 4.72 5 2 C4.34 2 3.68 2 3 2 C2.7834375 3.423125 2.7834375 3.423125 2.5625 4.875 C2 8 2 8 1 10 C0.34 10 -0.32 10 -1 10 C-1.125 3.375 -1.125 3.375 0 0 Z " fill="#C1BED5" transform="translate(174,142)"/>
<path d="M0 0 C4.62 0 9.24 0 14 0 C12.05613861 3.88772277 9.76298958 6.95020101 7 10.25 C6.54882812 10.80429688 6.09765625 11.35859375 5.6328125 11.9296875 C4.46926971 13.32731582 3.23905262 14.66885563 2 16 C1.34 16 0.68 16 0 16 C0 10.72 0 5.44 0 0 Z " fill="#606DF1" transform="translate(210,207)"/>
<path d="M0 0 C0.99 0 1.98 0 3 0 C3.28875 0.94875 3.5775 1.8975 3.875 2.875 C4.76825109 6.05211578 4.76825109 6.05211578 7 8 C7.55528672 13.21969514 7.55528672 13.21969514 5.8046875 15.6796875 C3.37261522 17.45899579 1.79170104 17.30357277 -1.1875 17.1875 C-2.53908203 17.14689453 -2.53908203 17.14689453 -3.91796875 17.10546875 C-4.60503906 17.07066406 -5.29210937 17.03585938 -6 17 C-6 15.68 -6 14.36 -6 13 C-2.535 12.505 -2.535 12.505 1 12 C1.33 10.68 1.66 9.36 2 8 C1.34 8 0.68 8 0 8 C0 8.66 0 9.32 0 10 C-1.32 10 -2.64 10 -4 10 C-3.5289356 5.85463326 -3.0080208 3.0080208 0 0 Z " fill="#F1F1FD" transform="translate(799,210)"/>
<path d="M0 0 C0.99 0 1.98 0 3 0 C3.28875 0.928125 3.5775 1.85625 3.875 2.8125 C4.8875 6.09791667 4.8875 6.09791667 7 9 C7.35031189 11.80249512 7.49026234 13.32548874 5.8046875 15.64453125 C3.37447119 17.46982359 1.81539556 17.30449593 -1.1875 17.1875 C-2.53908203 17.14689453 -2.53908203 17.14689453 -3.91796875 17.10546875 C-4.60503906 17.07066406 -5.29210937 17.03585938 -6 17 C-5.67 15.68 -5.34 14.36 -5 13 C-3.02 12.67 -1.04 12.34 1 12 C1.33 10.68 1.66 9.36 2 8 C1.34 8 0.68 8 0 8 C0 8.66 0 9.32 0 10 C-1.32 10 -2.64 10 -4 10 C-3.5289356 5.85463326 -3.0080208 3.0080208 0 0 Z " fill="#F2F2FD" transform="translate(709,210)"/>
<path d="M0 0 C2 3 2 3 2 8 C-4.27 8 -10.54 8 -17 8 C-16.67 5.69 -16.34 3.38 -16 1 C-13.3755252 0.75190045 -10.75232855 0.5258301 -8.125 0.3125 C-7.37863281 0.23966797 -6.63226563 0.16683594 -5.86328125 0.09179688 C-3.6953125 -0.07421875 -3.6953125 -0.07421875 0 0 Z " fill="#D5D0E0" transform="translate(233,154)"/>
<path d="M0 0 C-0.58727973 4.69823783 -2.14813213 9.19750951 -5 13 C-8.25 14 -8.25 14 -11 14 C-13 11 -13 11 -13 8.125 C-10.96111796 1.75349363 -6.49563728 -0.77329015 0 0 Z " fill="#6E71F2" transform="translate(595,218)"/>
<path d="M0 0 C9.24 0 18.48 0 28 0 C27.67 3.3 27.34 6.6 27 10 C27.66 10 28.32 10 29 10 C28.77169299 11.62818946 28.51656424 13.2526349 28.25 14.875 C28.11078125 15.77992187 27.9715625 16.68484375 27.828125 17.6171875 C27 20 27 20 24.99609375 21.0703125 C24.33738281 21.37710938 23.67867187 21.68390625 23 22 C22.11706633 23.82741154 22.11706633 23.82741154 21.8125 26 C21.66683594 26.79277344 21.52117187 27.58554688 21.37109375 28.40234375 C20.77279704 32.59042075 20.33453686 36.78307488 20 41 C19.67 41 19.34 41 19 41 C18.25537586 33.00770087 19.45601797 25.93714668 21.3125 18.1875 C21.63190552 16.84522339 21.63190552 16.84522339 21.95776367 15.47583008 C23.25690841 10.28263809 24.843641 6.03150433 27 1 C18.09 1 9.18 1 0 1 C0 0.67 0 0.34 0 0 Z " fill="#4B9AF1" transform="translate(102,75)"/>
<path d="M0 0 C0 4.95 0 9.9 0 15 C-4.29 15 -8.58 15 -13 15 C-11.33259913 10.83149783 -10.40333433 8.97101903 -7.5625 5.8125 C-6.66724609 4.80123047 -6.66724609 4.80123047 -5.75390625 3.76953125 C-2.01766004 0 -2.01766004 0 0 0 Z " fill="#6269F1" transform="translate(185,36)"/>
<path d="M0 0 C7.26 0 14.52 0 22 0 C21.67 0.99 21.34 1.98 21 3 C20.01 3 19.02 3 18 3 C17.67 3.99 17.34 4.98 17 6 C17 5.34 17 4.68 17 4 C12.38 4 7.76 4 3 4 C3 9.28 3 14.56 3 20 C2.67 20 2.34 20 2 20 C2 15.05 2 10.1 2 5 C1.01 5 0.02 5 -1 5 C-0.67 3.35 -0.34 1.7 0 0 Z " fill="#4BB6F4" transform="translate(207,203)"/>
<path d="M0 0 C1.00023193 0.00523682 2.00046387 0.01047363 3.03100586 0.01586914 C4.1105957 0.0190918 5.19018555 0.02231445 6.30249023 0.02563477 C8.00695312 0.03820312 8.00695312 0.03820312 9.74584961 0.05102539 C11.45611328 0.05779297 11.45611328 0.05779297 13.20092773 0.06469727 C16.02845312 0.07652792 18.85587601 0.09301129 21.68334961 0.11352539 C22.34334961 1.43352539 23.00334961 2.75352539 23.68334961 4.11352539 C20.08094001 4.50690477 16.47638984 4.87505463 12.87084961 5.23852539 C11.84668945 5.35067383 10.8225293 5.46282227 9.76733398 5.57836914 C8.29296875 5.72338867 8.29296875 5.72338867 6.78881836 5.87133789 C5.4298645 6.01273193 5.4298645 6.01273193 4.04345703 6.15698242 C1.68334961 6.11352539 1.68334961 6.11352539 -1.31665039 4.11352539 C-0.98665039 3.78352539 -0.65665039 3.45352539 -0.31665039 3.11352539 C-1.30665039 2.45352539 -2.29665039 1.79352539 -3.31665039 1.11352539 C-2.31665039 0.11352539 -2.31665039 0.11352539 0 0 Z " fill="#47B4F2" transform="translate(162.316650390625,202.886474609375)"/>
<path d="M0 0 C0.99 0 1.98 0 3 0 C2.125 7.75 2.125 7.75 1 10 C1.99 10 2.98 10 4 10 C4 11.65 4 13.3 4 15 C1.03 15 -1.94 15 -5 15 C-5.56102731 9.38972689 -3.79491313 5.70308675 -1 1 C-0.67 0.67 -0.34 0.34 0 0 Z " fill="#EEEEFD" transform="translate(871,212)"/>
<path d="M0 0 C3.77076545 -0.05899621 7.54140926 -0.09392568 11.3125 -0.125 C12.36501953 -0.14175781 13.41753906 -0.15851563 14.50195312 -0.17578125 C21.55781803 -0.21920196 28.10987473 0.4776333 35 2 C34.67 2.66 34.34 3.32 34 4 C25.09 3.67 16.18 3.34 7 3 C6.67 3.66 6.34 4.32 6 5 C4.02 4.34 2.04 3.68 0 3 C0 2.01 0 1.02 0 0 Z " fill="#409DEC" transform="translate(260,73)"/>
<path d="M0 0 C3.37483413 -0.08767555 6.74937215 -0.14061628 10.125 -0.1875 C11.55199219 -0.22520508 11.55199219 -0.22520508 13.0078125 -0.26367188 C18.46921074 -0.32056144 22.2531332 -0.04470749 27 3 C27 3.33 27 3.66 27 4 C20.4 4 13.8 4 7 4 C6.67 4.66 6.34 5.32 6 6 C4.35 5.67 2.7 5.34 1 5 C2.32 4.34 3.64 3.68 5 3 C2.525 2.01 2.525 2.01 0 1 C0 0.67 0 0.34 0 0 Z " fill="#46ADF1" transform="translate(115,203)"/>
<path d="M0 0 C0.556875 0.639375 1.11375 1.27875 1.6875 1.9375 C1.0275 2.5975 0.3675 3.2575 -0.3125 3.9375 C-0.3125 3.2775 -0.3125 2.6175 -0.3125 1.9375 C-3.60487055 2.04709718 -6.89606887 2.17778931 -10.1875 2.3125 C-11.12464844 2.3434375 -12.06179688 2.374375 -13.02734375 2.40625 C-14.37119141 2.46425781 -14.37119141 2.46425781 -15.7421875 2.5234375 C-16.56960449 2.5548584 -17.39702148 2.5862793 -18.24951172 2.61865234 C-20.53236085 2.76349137 -20.53236085 2.76349137 -22.3125 4.9375 C-22.125 2.5625 -22.125 2.5625 -21.3125 -0.0625 C-15.46608534 -3.71650916 -5.28241445 -4.71134261 0 0 Z " fill="#49B0F3" transform="translate(274.3125,205.0625)"/>
<path d="M0 0 C2.97 0 5.94 0 9 0 C9.10901505 2.83439137 9.18777904 5.66450203 9.25 8.5 C9.30027344 9.68722656 9.30027344 9.68722656 9.3515625 10.8984375 C9.43948884 16.26194415 8.53963706 19.77567616 5.76855469 24.38867188 C5.51493164 24.92041016 5.26130859 25.45214844 5 26 C5.33 26.66 5.66 27.32 6 28 C6.33 28.66 6.66 29.32 7 30 C6.236875 30.70125 5.47375 31.4025 4.6875 32.125 C2.03409522 34.96352604 0.55999257 37.46949051 -1 41 C-2.30879058 37.07362826 -0.94137099 35.64128504 0.74609375 32.0546875 C4.77097084 22.24953521 7.48784376 11.58456224 8 1 C5.36 1 2.72 1 0 1 C0 0.67 0 0.34 0 0 Z " fill="#4C9EF3" transform="translate(242,141)"/>
<path d="M0 0 C6.6 0 13.2 0 20 0 C20 2.31 20 4.62 20 7 C18.88625 6.7525 18.88625 6.7525 17.75 6.5 C14.80993422 5.88074304 14.80993422 5.88074304 11 6 C10.34 5.34 9.68 4.68 9 4 C9 3.01 9 2.02 9 1 C6.03 1 3.06 1 0 1 C0 0.67 0 0.34 0 0 Z " fill="#34B5FE" transform="translate(145,117)"/>
<path d="M0 0 C5.2668774 -0.65835967 8.88198405 -0.56449777 13.1875 2.75 C14.46258376 3.82832735 15.73360365 4.91148323 17 6 C18.96979604 7.38599721 20.98020627 8.68713408 23 10 C21 11 21 11 18.49609375 10.1796875 C12.10849032 7.45496266 5.97461289 4.54554048 0 1 C0 0.67 0 0.34 0 0 Z " fill="#498FE1" transform="translate(129,239)"/>
<path d="M0 0 C1.49249268 0.01571045 1.49249268 0.01571045 3.01513672 0.03173828 C4.6296875 0.04140625 4.6296875 0.04140625 6.27685547 0.05126953 C7.40478516 0.06802734 8.53271484 0.08478516 9.69482422 0.10205078 C11.39832031 0.11558594 11.39832031 0.11558594 13.13623047 0.12939453 C15.94763721 0.1530198 18.7586272 0.18596065 21.56982422 0.22705078 C21.89982422 0.88705078 22.22982422 1.54705078 22.56982422 2.22705078 C14.97982422 2.22705078 7.38982422 2.22705078 -0.43017578 2.22705078 C-0.10017578 3.21705078 0.22982422 4.20705078 0.56982422 5.22705078 C2.21982422 5.55705078 3.86982422 5.88705078 5.56982422 6.22705078 C5.56982422 6.55705078 5.56982422 6.88705078 5.56982422 7.22705078 C3.25982422 7.22705078 0.94982422 7.22705078 -1.43017578 7.22705078 C-1.55392578 6.58767578 -1.67767578 5.94830078 -1.80517578 5.28955078 C-2.11455078 4.26861328 -2.11455078 4.26861328 -2.43017578 3.22705078 C-3.09017578 2.89705078 -3.75017578 2.56705078 -4.43017578 2.22705078 C-2.43017578 0.22705078 -2.43017578 0.22705078 0 0 Z " fill="#49B8F2" transform="translate(260.43017578125,70.77294921875)"/>
<path d="M0 0 C0.495 0.99 0.495 0.99 1 2 C-10.22 2.33 -21.44 2.66 -33 3 C-25.8234333 -4.1765667 -9.14281009 -1.82856202 0 0 Z " fill="#4DBCF3" transform="translate(237,71)"/>
<path d="M0 0 C1.37652616 3.77168167 0.60432755 6.48952871 -0.375 10.3125 C-1.28169208 13.94743673 -2.13802805 17.45761511 -2.5 21.1875 C-2.665 22.115625 -2.83 23.04375 -3 24 C-3.99 24.66 -4.98 25.32 -6 26 C-6.70855903 17.14301208 -4.27769006 7.78462516 0 0 Z " fill="#54BDF4" transform="translate(132,84)"/>
<path d="M0 0 C3.90312284 5.85468426 6.71800107 15.51056743 5.8125 22.5625 C5.544375 23.696875 5.27625 24.83125 5 26 C4.814375 27.155 4.62875 28.31 4.4375 29.5 C4.2209375 30.7375 4.2209375 30.7375 4 32 C3.67 32 3.34 32 3 32 C2.95101562 30.865625 2.90203125 29.73125 2.8515625 28.5625 C2.7764586 27.04164602 2.70091416 25.52081375 2.625 24 C2.5940625 23.25621094 2.563125 22.51242188 2.53125 21.74609375 C2.26179558 16.58155062 1.31310399 11.9982668 0 7 C-0.15151418 4.63456972 -0.09887654 2.37303705 0 0 Z " fill="#4EBCF6" transform="translate(248,86)"/>
<path d="M0 0 C0 0.99 0 1.98 0 3 C-6.6 3 -13.2 3 -20 3 C-20.33 3.99 -20.66 4.98 -21 6 C-21.33 4.35 -21.66 2.7 -22 1 C-14.63512596 0.00137301 -7.42686315 -0.10331031 0 0 Z " fill="#40A8ED" transform="translate(165,138)"/>
<path d="M0 0 C0.66 0.66 1.32 1.32 2 2 C1.6875 4.8125 1.6875 4.8125 1 8 C0.814375 8.94875 0.62875 9.8975 0.4375 10.875 C0.293125 11.57625 0.14875 12.2775 0 13 C-0.66 13 -1.32 13 -2 13 C-2 12.01 -2 11.02 -2 10 C-3.32 10 -4.64 10 -6 10 C-5.67 8.02 -5.34 6.04 -5 4 C-4.0409375 3.8453125 -4.0409375 3.8453125 -3.0625 3.6875 C-2.381875 3.460625 -1.70125 3.23375 -1 3 C-0.67 2.01 -0.34 1.02 0 0 Z " fill="#7B7EF3" transform="translate(866,213)"/>
<path d="M0 0 C0.33 1.32 0.66 2.64 1 4 C1.66 4 2.32 4 3 4 C3.22786458 6.01822917 3.45572917 8.03645833 3.68359375 10.0546875 C3.91292961 12.07404316 3.91292961 12.07404316 5 14 C2.11788698 14.96070434 0.30149956 15.10581883 -2.6875 15.0625 C-3.89986328 15.04896484 -3.89986328 15.04896484 -5.13671875 15.03515625 C-6.05904297 15.01775391 -6.05904297 15.01775391 -7 15 C-7 14.67 -7 14.34 -7 14 C-4.36 14 -1.72 14 1 14 C1 12.35 1 10.7 1 9 C0.01 9 -0.98 9 -2 9 C-1.34 6.03 -0.68 3.06 0 0 Z " fill="#888AF4" transform="translate(874,213)"/>
<path d="M0 0 C0.66 0 1.32 0 2 0 C4 3 4 3 4 6 C5.32 6 6.64 6 8 6 C8 5.34 8 4.68 8 4 C8.66 4 9.32 4 10 4 C9.67 5.65 9.34 7.3 9 9 C1.25 9.125 1.25 9.125 -1 8 C-0.67 5.36 -0.34 2.72 0 0 Z " fill="#7173F2" transform="translate(687,214)"/>
<path d="M0 0 C0 0.66 0 1.32 0 2 C-0.81154541 1.99476318 -1.62309082 1.98952637 -2.45922852 1.98413086 C-6.16031104 1.96325662 -9.86138113 1.95030664 -13.5625 1.9375 C-14.83931641 1.92912109 -16.11613281 1.92074219 -17.43164062 1.91210938 C-18.67236328 1.90888672 -19.91308594 1.90566406 -21.19140625 1.90234375 C-22.32779541 1.89710693 -23.46418457 1.89187012 -24.63500977 1.88647461 C-28.15208567 2.00513095 -31.52771145 2.44219489 -35 3 C-34.34 2.01 -33.68 1.02 -33 0 C-30.71264648 -0.44824219 -30.71264648 -0.44824219 -27.87109375 -0.546875 C-26.83533203 -0.58683594 -25.79957031 -0.62679687 -24.73242188 -0.66796875 C-23.64509766 -0.69503906 -22.55777344 -0.72210938 -21.4375 -0.75 C-19.84711914 -0.81380859 -19.84711914 -0.81380859 -18.22460938 -0.87890625 C-12.02906597 -1.08529696 -6.14007975 -0.85046225 0 0 Z " fill="#50C0F5" transform="translate(184,71)"/>
<path d="M0 0 C3.37483413 -0.08767555 6.74937215 -0.14061628 10.125 -0.1875 C11.55199219 -0.22520508 11.55199219 -0.22520508 13.0078125 -0.26367188 C18.46921074 -0.32056144 22.2531332 -0.04470749 27 3 C23.38273953 4.24070287 20.60323595 3.78081018 16.875 3.125 C11.25789464 2.18564227 5.67289639 1.48661414 0 1 C0 0.67 0 0.34 0 0 Z " fill="#4DBBF4" transform="translate(115,203)"/>
<path d="M0 0 C0 0.66 0 1.32 0 2 C-3.21752529 3.60876265 -6.71840075 3.39590948 -10.2734375 3.62109375 C-14.1324837 4.15737954 -16.25863106 5.25863106 -19 8 C-18.8125 5.625 -18.8125 5.625 -18 3 C-12.92161237 -0.17399227 -5.82972893 0 0 0 Z " fill="#4FBDF6" transform="translate(271,202)"/>
<path d="M0 0 C0 0.99 0 1.98 0 3 C-2.04159095 3.0272616 -4.08328963 3.04651345 -6.125 3.0625 C-7.26195312 3.07410156 -8.39890625 3.08570313 -9.5703125 3.09765625 C-12.8129156 3.005327 -15.81932612 2.61389906 -19 2 C-19 1.67 -19 1.34 -19 1 C-12.65758005 -0.15316726 -6.43311296 -0.09507063 0 0 Z " fill="#44ADEE" transform="translate(288,138)"/>
<path d="M0 0 C0.66 0 1.32 0 2 0 C2 1.65 2 3.3 2 5 C2.66 5 3.32 5 4 5 C4 3.35 4 1.7 4 0 C4.66 0 5.32 0 6 0 C7.35439668 2.70879335 7.06501451 5.00933268 7 8 C5.02 8 3.04 8 1 8 C-0.35439668 5.29120665 -0.06501451 2.99066732 0 0 Z " fill="#B4B1C3" transform="translate(219,144)"/>
<path d="M0 0 C3.32132706 2.59929944 3.49950189 4.91901537 4 9 C4.06522873 11.29083289 4.0858841 13.58335794 4.0625 15.875 C4.05347656 17.02742188 4.04445313 18.17984375 4.03515625 19.3671875 C4.02355469 20.23601562 4.01195313 21.10484375 4 22 C3.67 22 3.34 22 3 22 C2.49465273 19.27172635 1.99556155 16.54255306 1.5 13.8125 C1.35691406 13.04357422 1.21382813 12.27464844 1.06640625 11.48242188 C0.36761285 7.60578227 -0.19039017 3.958529 0 0 Z " fill="#4CA7EF" transform="translate(72,143)"/>
<path d="M0 0 C1.67542976 0.28604898 3.34385343 0.61781233 5 1 C4.25 5.75 4.25 5.75 2 8 C-0.125 7.625 -0.125 7.625 -2 7 C-1.125 1.125 -1.125 1.125 0 0 Z " fill="#777AF2" transform="translate(851,216)"/>
<path d="M0 0 C2.08940868 3.13411302 2.27364412 3.97450472 2.25 7.5625 C2.25515625 8.34753906 2.2603125 9.13257813 2.265625 9.94140625 C2 12 2 12 0 14 C0 12.68 0 11.36 0 10 C-0.99 10 -1.98 10 -3 10 C-2.39009109 6.44219804 -1.4216319 3.3171411 0 0 Z " fill="#8486F4" transform="translate(672,212)"/>
<path d="M0 0 C2.3089326 6.92679779 -0.32985208 15.09672191 -2 22 C-3.32 21.67 -4.64 21.34 -6 21 C-4 16 -4 16 -2.9375 13.8125 C-1.75225657 10.25676972 -1.51615968 6.83518248 -1.24609375 3.109375 C-1 1 -1 1 0 0 Z " fill="#4FBDF7" transform="translate(253,149)"/>
<path d="M0 0 C5.625 -0.25 5.625 -0.25 9 2 C10.9896995 2.39013716 12.99019869 2.73202649 15 3 C11.71921451 5.18719033 11.19409949 5.21791927 7.5 4.75 C6.7265625 4.66234375 5.953125 4.5746875 5.15625 4.484375 C3 4 3 4 0 2 C0 1.34 0 0.68 0 0 Z " fill="#4CA8F0" transform="translate(156,247)"/>
<path d="M0 0 C0.66 0 1.32 0 2 0 C1.67 1.65 1.34 3.3 1 5 C0.05125 5.12375 -0.8975 5.2475 -1.875 5.375 C-5.08667191 5.71687177 -5.08667191 5.71687177 -7 8 C-8.24546405 5.50907189 -7.7767578 4.58919267 -7 2 C-4.69 2 -2.38 2 0 2 C0 1.34 0 0.68 0 0 Z " fill="#7477F2" transform="translate(709,218)"/>
<path d="M0 0 C0.83265381 0.00523682 1.66530762 0.01047363 2.52319336 0.01586914 C3.42231445 0.0190918 4.32143555 0.02231445 5.24780273 0.02563477 C6.66609375 0.03820312 6.66609375 0.03820312 8.11303711 0.05102539 C9.06243164 0.05553711 10.01182617 0.06004883 10.98999023 0.06469727 C13.34356776 0.07652429 15.69702188 0.09300514 18.05053711 0.11352539 C17.72053711 1.10352539 17.39053711 2.09352539 17.05053711 3.11352539 C16.72053711 2.45352539 16.39053711 1.79352539 16.05053711 1.11352539 C13.48562255 1.1738054 10.92631954 1.26090486 8.36303711 1.36352539 C7.64180664 1.37770508 6.92057617 1.39188477 6.17749023 1.40649414 C1.25425967 1.63129919 -1.30623444 2.52059792 -4.94946289 6.11352539 C-2.65763199 0.15476504 -2.65763199 0.15476504 0 0 Z " fill="#5D77F2" transform="translate(255.949462890625,206.886474609375)"/>
<path d="M0 0 C0.33 0 0.66 0 1 0 C1.12375 1.299375 1.2475 2.59875 1.375 3.9375 C1.73800041 7.27815597 2.28779633 10.48086038 3.0625 13.75 C3.80894095 16.90716878 4.21061456 19.73547425 4 23 C-0.70999292 15.93501061 -0.24577235 8.19241175 0 0 Z " fill="#4D99F3" transform="translate(121,142)"/>
<path d="M0 0 C0.66 0.33 1.32 0.66 2 1 C1.37351562 1.58007812 0.74703125 2.16015625 0.1015625 2.7578125 C-0.71570313 3.53898437 -1.53296875 4.32015625 -2.375 5.125 C-3.18710937 5.89070313 -3.99921875 6.65640625 -4.8359375 7.4453125 C-7.19015721 10.22448161 -8.07814775 12.50506564 -9 16 C-9.33 16 -9.66 16 -10 16 C-9.74017526 9.63429392 -7.60776634 6.34413792 -3 2 C-2.01 1.34 -1.02 0.68 0 0 Z " fill="#D8D9FB" transform="translate(872,111)"/>
<path d="M0 0 C0.33 0 0.66 0 1 0 C1 1.65 1 3.3 1 5 C1.99 5 2.98 5 4 5 C4 3.35 4 1.7 4 0 C6 2 6 2 6.125 5.125 C6.08375 6.07375 6.0425 7.0225 6 8 C4.02 8 2.04 8 0 8 C0 5.36 0 2.72 0 0 Z " fill="#B1AEC0" transform="translate(211,144)"/>
<path d="M0 0 C2.125 0.375 2.125 0.375 4 1 C3.67 2.32 3.34 3.64 3 5 C1.68 5.33 0.36 5.66 -1 6 C-1.625 4.125 -1.625 4.125 -2 2 C-1.34 1.34 -0.68 0.68 0 0 Z " fill="#8486F3" transform="translate(814,217)"/>
<path d="M0 0 C0.66 0.33 1.32 0.66 2 1 C1.50628906 1.38929688 1.01257813 1.77859375 0.50390625 2.1796875 C-3.50231651 5.67807921 -5.44519365 8.02982242 -5.9375 13.4375 C-5.9896042 14.95758329 -6.02142007 16.47917482 -6 18 C-6.33 18 -6.66 18 -7 18 C-7.62675326 8.05899689 -7.62675326 8.05899689 -5.1875 3.9375 C-3 2 -3 2 0 0 Z " fill="#D8D9FB" transform="translate(584,215)"/>
<path d="M0 0 C0.33 0.66 0.66 1.32 1 2 C1.99 1.67 2.98 1.34 4 1 C2.125 5.75 2.125 5.75 1 8 C0.01 8 -0.98 8 -2 8 C-1.125 2.25 -1.125 2.25 0 0 Z " fill="#8A8CF4" transform="translate(842,215)"/>
<path d="M0 0 C1.32 0 2.64 0 4 0 C3.67 1.65 3.34 3.3 3 5 C1.35 5 -0.3 5 -2 5 C-1.125 1.125 -1.125 1.125 0 0 Z " fill="#7E81F3" transform="translate(883,217)"/>
<path d="M0 0 C0.99 0 1.98 0 3 0 C3.33 2.31 3.66 4.62 4 7 C2.68 7.33 1.36 7.66 0 8 C0 5.36 0 2.72 0 0 Z " fill="#A6A4B7" transform="translate(228,144)"/>
<path d="M0 0 C1.32 0 2.64 0 4 0 C3.75 1.875 3.75 1.875 3 4 C0.9375 5.25 0.9375 5.25 -1 6 C-1.33 5.01 -1.66 4.02 -2 3 C-1.34 2.01 -0.68 1.02 0 0 Z " fill="#8B8EF4" transform="translate(774,217)"/>
<path d="M0 0 C0.94875 0.04125 1.8975 0.0825 2.875 0.125 C2.875 0.455 2.875 0.785 2.875 1.125 C1.225 1.125 -0.425 1.125 -2.125 1.125 C-3.99051426 4.71252742 -5.55035928 8.40312193 -7.125 12.125 C-7.8125 10.5 -7.8125 10.5 -8.125 8.125 C-4.79302278 0.19172091 -4.79302278 0.19172091 0 0 Z " fill="#8A8DF4" transform="translate(945.125,121.875)"/>
<path d="M0 0 C0.66 0.33 1.32 0.66 2 1 C-0.97 3.97 -3.94 6.94 -7 10 C-7.99 9.67 -8.98 9.34 -10 9 C-6.7 6.03 -3.4 3.06 0 0 Z " fill="#5E77F3" transform="translate(131,41)"/>
<path d="M0 0 C1.65 0 3.3 0 5 0 C5 1.32 5 2.64 5 4 C3.35 4 1.7 4 0 4 C0 2.68 0 1.36 0 0 Z " fill="#E2E3FC" transform="translate(964,223)"/>
<path d="M0 0 C1.65 0 3.3 0 5 0 C5 1.32 5 2.64 5 4 C3.35 4 1.7 4 0 4 C0 2.68 0 1.36 0 0 Z " fill="#E4E4FC" transform="translate(954,223)"/>
<path d="M0 0 C1.65 0 3.3 0 5 0 C5 1.32 5 2.64 5 4 C3.35 4 1.7 4 0 4 C0 2.68 0 1.36 0 0 Z " fill="#E2E3FC" transform="translate(944,223)"/>
<path d="M0 0 C1.65 0 3.3 0 5 0 C5 1.32 5 2.64 5 4 C3.35 4 1.7 4 0 4 C0 2.68 0 1.36 0 0 Z " fill="#E4E4FC" transform="translate(934,223)"/>
<path d="M0 0 C1.65 0 3.3 0 5 0 C5 1.32 5 2.64 5 4 C3.35 4 1.7 4 0 4 C0 2.68 0 1.36 0 0 Z " fill="#E2E3FC" transform="translate(924,223)"/>
<path d="M0 0 C2.56616632 3.84924948 2.55097676 6.4349304 3 11 C2.01 11 1.02 11 0 11 C0 10.01 0 9.02 0 8 C-0.66 7.34 -1.32 6.68 -2 6 C-1.34 4.02 -0.68 2.04 0 0 Z " fill="#888AF4" transform="translate(626,215)"/>
<path d="M0 0 C0.99 0 1.98 0 3 0 C2.34 1.98 1.68 3.96 1 6 C0.01 6 -0.98 6 -2 6 C-1.125 1.125 -1.125 1.125 0 0 Z " fill="#787AF2" transform="translate(635,216)"/>
<path d="M0 0 C0.66 0.33 1.32 0.66 2 1 C0.375 6.75 0.375 6.75 -3 9 C-3.26218749 5.85375007 -3.24754367 4.38162983 -1.5 1.6875 C-1.005 1.130625 -0.51 0.57375 0 0 Z " fill="#48C4FE" transform="translate(142,91)"/>
<path d="M0 0 C0.66 0 1.32 0 2 0 C2.125 5.75 2.125 5.75 1 8 C0.01 8 -0.98 8 -2 8 C-1.34 5.36 -0.68 2.72 0 0 Z " fill="#A5A3B7" transform="translate(177,144)"/>
<path d="M0 0 C-0.99 0.66 -1.98 1.32 -3 2 C-5.95318163 4.23289343 -7.93108922 5.89663383 -10 9 C-9.65544802 5.89903219 -9.15182706 4.20062862 -7.25 1.6875 C-4.58761061 -0.30929204 -3.25047681 -0.36116409 0 0 Z " fill="#888AF4" transform="translate(532,122)"/>
<path d="M0 0 C-1.5830577 4.2742558 -4.50568404 6.26531794 -8 9 C-6.68994234 5.06982701 -4.75047804 0 0 0 Z " fill="#D6D7FB" transform="translate(1054,113)"/>
<path d="M0 0 C0.66 0 1.32 0 2 0 C1.67 1.98 1.34 3.96 1 6 C-0.98 6.33 -2.96 6.66 -5 7 C-4.21654285 5.82780457 -3.42297164 4.66236332 -2.625 3.5 C-2.18414063 2.8503125 -1.74328125 2.200625 -1.2890625 1.53125 C-0.65097656 0.77328125 -0.65097656 0.77328125 0 0 Z " fill="#898BF4" transform="translate(823,220)"/>
<path d="M0 0 C1.65 0 3.3 0 5 0 C5 1.32 5 2.64 5 4 C3.35 4 1.7 4 0 4 C0 2.68 0 1.36 0 0 Z " fill="#E9E9FD" transform="translate(871,207)"/>
<path d="M0 0 C0.66 0 1.32 0 2 0 C1.125 6.75 1.125 6.75 0 9 C-0.66 9 -1.32 9 -2 9 C-1.34 6.03 -0.68 3.06 0 0 Z " fill="#C6C3D8" transform="translate(175,143)"/>
<path d="M0 0 C1.53166168 4.08443115 0.63081652 7.79455657 0 12 C-0.33 12 -0.66 12 -1 12 C-1.92470553 7.28400182 -2.22923777 4.32734391 0 0 Z " fill="#4BA4ED" transform="translate(72,101)"/>
<path d="M0 0 C2.97 0 5.94 0 9 0 C9 0.66 9 1.32 9 2 C9.66 2.33 10.32 2.66 11 3 C9.741875 2.87625 8.48375 2.7525 7.1875 2.625 C6.12595703 2.52058594 6.12595703 2.52058594 5.04296875 2.4140625 C3 2 3 2 0 0 Z " fill="#4992E2" transform="translate(155,251)"/>
<path d="M0 0 C0.66 0.99 1.32 1.98 2 3 C2.66 3.33 3.32 3.66 4 4 C3.34 5.32 2.68 6.64 2 8 C0.68 7.34 -0.64 6.68 -2 6 C-1.34 4.02 -0.68 2.04 0 0 Z " fill="#7D80F3" transform="translate(764,215)"/>
<path d="M0 0 C-0.28875 0.515625 -0.5775 1.03125 -0.875 1.5625 C-2.28780027 4.62356725 -3.1248517 7.74944918 -4 11 C-4.33 11 -4.66 11 -5 11 C-5.36717663 3.5340751 -5.36717663 3.5340751 -3.625 1 C-2 0 -2 0 0 0 Z " fill="#8385F3" transform="translate(880,147)"/>
<path d="M0 0 C-2 2 -2 2 -4.1640625 2.1953125 C-5.38222656 2.16050781 -5.38222656 2.16050781 -6.625 2.125 C-7.44226563 2.10695312 -8.25953125 2.08890625 -9.1015625 2.0703125 C-9.72804688 2.04710937 -10.35453125 2.02390625 -11 2 C-7.00042393 -0.06874624 -4.43559483 -1.37656391 0 0 Z " fill="#DBDCFB" transform="translate(378,136)"/>
<path d="M0 0 C0.66 0.33 1.32 0.66 2 1 C-0.64 3.64 -3.28 6.28 -6 9 C-6 6 -6 6 -3.5625 3.375 C-2.716875 2.59125 -1.87125 1.8075 -1 1 C-0.67 0.67 -0.34 0.34 0 0 Z " fill="#D8D9FB" transform="translate(991,110)"/>
<path d="M0 0 C3.375 -0.125 3.375 -0.125 7 0 C7.66 0.66 8.32 1.32 9 2 C8.625 4.125 8.625 4.125 8 6 C7.4121875 5.0409375 7.4121875 5.0409375 6.8125 4.0625 C4.61527704 1.56221181 3.24208567 1.35049575 0 1 C0 0.67 0 0.34 0 0 Z " fill="#49B3F2" transform="translate(234,73)"/>
<path d="M0 0 C1.32 0.33 2.64 0.66 4 1 C3.67 2.32 3.34 3.64 3 5 C2.34 4.34 1.68 3.68 1 3 C0.01 3.33 -0.98 3.66 -2 4 C-1.34 2.68 -0.68 1.36 0 0 Z " fill="#DBDBFB" transform="translate(848,212)"/>
<path d="M0 0 C2.3431213 0.25561323 4.67843403 0.59270772 7 1 C7.33 1.66 7.66 2.32 8 3 C5.03 3 2.06 3 -1 3 C-0.67 2.01 -0.34 1.02 0 0 Z " fill="#4FBEF4" transform="translate(243,136)"/>
<path d="M0 0 C0.94875 0.04125 1.8975 0.0825 2.875 0.125 C2.875 0.455 2.875 0.785 2.875 1.125 C1.225 1.125 -0.425 1.125 -2.125 1.125 C-2.393125 1.764375 -2.66125 2.40375 -2.9375 3.0625 C-4.125 5.125 -4.125 5.125 -7.125 6.125 C-4.34782609 0.17391304 -4.34782609 0.17391304 0 0 Z " fill="#9B9DF6" transform="translate(377.125,120.875)"/>
<path d="M0 0 C0.66 0.33 1.32 0.66 2 1 C-0.31 3.31 -2.62 5.62 -5 8 C-5.66 7.67 -6.32 7.34 -7 7 C-4.66666667 4.66666667 -2.33333333 2.33333333 0 0 Z " fill="#D9D9FB" transform="translate(365,111)"/>
<path d="M0 0 C0.66 0 1.32 0 2 0 C1.67 1.65 1.34 3.3 1 5 C-0.98 5 -2.96 5 -5 5 C-4.34 4.01 -3.68 3.02 -3 2 C-2.01 2 -1.02 2 0 2 C0 1.34 0 0.68 0 0 Z " fill="#9395F5" transform="translate(709,218)"/>
<path d="M0 0 C0.66 0 1.32 0 2 0 C1.67 1.65 1.34 3.3 1 5 C-0.98 5 -2.96 5 -5 5 C-4.34 4.01 -3.68 3.02 -3 2 C-2.01 2 -1.02 2 0 2 C0 1.34 0 0.68 0 0 Z " fill="#9798F5" transform="translate(799,218)"/>
<path d="M0 0 C0.66 0 1.32 0 2 0 C1.67 1.65 1.34 3.3 1 5 C-0.98 5 -2.96 5 -5 5 C-4.34 4.01 -3.68 3.02 -3 2 C-2.01 2 -1.02 2 0 2 C0 1.34 0 0.68 0 0 Z " fill="#9698F5" transform="translate(695,218)"/>
<path d="M0 0 C0.66 0 1.32 0 2 0 C2.33 2.64 2.66 5.28 3 8 C2.34 8 1.68 8 1 8 C-0.35439668 5.29120665 -0.06501451 2.99066732 0 0 Z " fill="#AEABBD" transform="translate(219,144)"/>
<path d="M0 0 C1.98 0.66 3.96 1.32 6 2 C6 2.99 6 3.98 6 5 C4.68 5 3.36 5 2 5 C2 4.34 2 3.68 2 3 C1.34 3 0.68 3 0 3 C0 2.01 0 1.02 0 0 Z " fill="#47C8FE" transform="translate(159,122)"/>
</svg>
