<?xml version="1.0" encoding="UTF-8"?>
<svg version="1.1" xmlns="http://www.w3.org/2000/svg" width="1129" height="277">
<path d="M0 0 C372.57 0 745.14 0 1129 0 C1129 91.41 1129 182.82 1129 277 C756.43 277 383.86 277 0 277 C0 185.59 0 94.18 0 0 Z " fill="#6366F1" transform="translate(0,0)"/>
<path d="M0 0 C77.88 0 155.76 0 236 0 C236 77.88 236 155.76 236 236 C158.12 236 80.24 236 0 236 C0 158.12 0 80.24 0 0 Z " fill="#6364F0" transform="translate(19,22)"/>
<path d="M0 0 C77.88 0 155.76 0 236 0 C236 77.88 236 155.76 236 236 C158.12 236 80.24 236 0 236 C0 158.12 0 80.24 0 0 Z M28.0625 30 C24.9857391 34.47528858 24.87359168 37.82019656 24.85282898 43.19769287 C24.84567368 44.47058167 24.83851837 45.74347046 24.83114624 47.05493164 C24.82830617 48.46337866 24.82559442 49.87182595 24.82299805 51.28027344 C24.81673067 52.76540281 24.81008363 54.25053063 24.80308533 55.73565674 C24.78207586 60.61021845 24.77168615 65.48478036 24.76171875 70.359375 C24.75767009 72.03947211 24.75355314 73.71956906 24.74936867 75.39966583 C24.73032418 83.29337504 24.71609135 91.18707493 24.7077567 99.08080268 C24.69798539 108.18411386 24.67166563 117.28718183 24.63125581 126.39040732 C24.60107074 133.43259502 24.58628558 140.47471308 24.58297569 147.5169642 C24.58062802 151.72029945 24.57170458 155.92337463 24.54651451 160.12664032 C24.5231866 164.08298424 24.51901929 168.03889772 24.52927589 171.99529266 C24.52977022 173.44325189 24.52348037 174.89123266 24.50971985 176.33912659 C24.36102036 188.44837226 24.36102036 188.44837226 30.48278332 198.54351425 C34.9666383 202.50019206 38.32441599 203.12500992 44.1355896 203.13371277 C45.41985336 203.13797775 46.70411713 203.14224274 48.02729797 203.14663696 C49.45358279 203.14628744 50.87986759 203.1458259 52.30615234 203.14526367 C53.80585311 203.14825532 55.3055531 203.15165787 56.80525208 203.15544128 C60.88173053 203.16428512 64.958188 203.16661957 69.03467512 203.16725707 C72.43677099 203.16820609 75.83886196 203.17188433 79.24095595 203.17542917 C87.26741065 203.18357527 95.29385414 203.18601327 103.3203125 203.18530273 C111.60171762 203.18470197 119.8830576 203.19525324 128.16444623 203.2110464 C135.27280941 203.22411976 142.38115129 203.22948671 149.48952639 203.22884732 C153.73573064 203.22859227 157.98187702 203.23144773 162.22806931 203.24202538 C166.22205625 203.25170286 170.21592996 203.25178795 174.20992088 203.24450874 C175.67525205 203.24346245 177.14059026 203.24582846 178.60590935 203.2518692 C180.60740632 203.25958542 182.60894185 203.25374661 184.61044312 203.24723816 C186.2900969 203.24805531 186.2900969 203.24805531 188.00368309 203.24888897 C193.38276622 202.8020756 197.1578929 200.74359153 201 197 C205.82244108 189.67348966 205.56974031 182.71086097 205.51757812 174.15795898 C205.52300526 172.6607597 205.53013124 171.16356576 205.53881836 169.66638184 C205.55698295 165.61885961 205.55001326 161.57174729 205.53730202 157.52421832 C205.52714046 153.27940477 205.53657626 149.03462518 205.54284668 144.78981018 C205.55011313 137.6639275 205.54056094 130.53821094 205.52148438 123.41235352 C205.49970913 115.18360322 205.50677564 106.95524929 205.52879 98.72650856 C205.54696266 91.64940426 205.54949347 84.57241902 205.53903532 77.49529892 C205.53281169 73.27365471 205.53193366 69.05219662 205.54518127 64.8305645 C205.55676675 60.86179743 205.54866538 56.89353981 205.52560425 52.92482758 C205.52033183 51.47163042 205.52180579 50.01839012 205.53065491 48.56521034 C205.57915573 39.78903895 205.44406674 33.95513441 199.4375 27.2578125 C194.41948028 23.30339478 191.08746542 22.8770962 184.80230713 22.85282898 C183.52941833 22.84567368 182.25652954 22.83851837 180.94506836 22.83114624 C179.53662134 22.82830617 178.12817405 22.82559442 176.71972656 22.82299805 C175.23459719 22.81673067 173.74946937 22.81008363 172.26434326 22.80308533 C167.38978155 22.78207586 162.51521964 22.77168615 157.640625 22.76171875 C155.96052789 22.75767009 154.28043094 22.75355314 152.60033417 22.74936867 C144.70662496 22.73032418 136.81292507 22.71609135 128.91919732 22.7077567 C119.81588614 22.69798539 110.71281817 22.67166563 101.60959268 22.63125581 C94.56740498 22.60107074 87.52528692 22.58628558 80.4830358 22.58297569 C76.27970055 22.58062802 72.07662537 22.57170458 67.87335968 22.54651451 C63.91701576 22.5231866 59.96110228 22.51901929 56.00470734 22.52927589 C54.55674811 22.52977022 53.10876734 22.52348037 51.66087341 22.50971985 C42.2630259 22.42543765 34.70387724 22.60285429 28.0625 30 Z " fill="#FEFEFE" transform="translate(19,22)"/>
<path d="M0 0 C0.4846875 0.46664062 0.969375 0.93328125 1.46875 1.4140625 C1.46875 2.7340625 1.46875 4.0540625 1.46875 5.4140625 C2.45875 5.7440625 3.44875 6.0740625 4.46875 6.4140625 C5.50101957 17.88372444 5.50101957 17.88372444 1.90625 22.8515625 C-2.58894621 27.95249437 -7.58993082 32.06212512 -14.57080078 32.55932617 C-16.9328968 32.58420442 -19.29399548 32.6038473 -21.65625 32.6015625 C-22.93568481 32.600354 -22.93568481 32.600354 -24.2409668 32.59912109 C-32.4843063 32.51892838 -39.77712975 31.27084364 -47.53125 28.4140625 C-54.75080732 46.19556479 -61.20281706 65.11075334 -53.7265625 83.984375 C-51.40393733 88.70552813 -49.40143209 91.59118238 -44.40625 93.7890625 C-31.01628447 95.94873436 -19.57848411 93.33358604 -8.53125 85.4140625 C-5.79787513 82.92365429 -3.45635009 80.3279276 -1.03125 77.5390625 C1.46875 75.4140625 1.46875 75.4140625 4.28125 75.6015625 C5.003125 75.8696875 5.725 76.1378125 6.46875 76.4140625 C7.04043936 85.41816997 5.01631658 91.54773266 -0.65625 98.6015625 C-8.38954322 106.91443872 -19.61890319 111.94177024 -30.91308594 112.5402832 C-33.7032245 112.62079746 -36.49001895 112.64897476 -39.28125 112.6640625 C-40.2196875 112.6846875 -41.158125 112.7053125 -42.125 112.7265625 C-53.75775507 112.79083187 -62.81908528 109.45095914 -71.47265625 101.66796875 C-80.93654736 91.83615098 -82.22178988 81.59629903 -82.05273438 68.48242188 C-81.49565391 52.16502858 -76.65557501 35.65120675 -67.03125 22.2890625 C-64.82469838 19.17086414 -64.82469838 19.17086414 -64.40625 15.3515625 C-65.60200871 12.22930364 -67.10393352 9.39430528 -68.67578125 6.44921875 C-69.99584157 3.30880128 -69.81158018 0.7780246 -69.53125 -2.5859375 C-65.49411738 -2.5859375 -63.45689818 -2.34738374 -60.28515625 0.26171875 C-58.30393422 2.26413032 -56.38840655 4.29642165 -54.53125 6.4140625 C-51.1892329 4.82601182 -48.11278018 2.92326561 -44.96875 0.9765625 C-30.67258006 -7.33113916 -14.43656483 -8.60641365 0 0 Z " fill="#FAF7FC" transform="translate(133.53125,81.5859375)"/>
<path d="M0 0 C5.03573167 3.68865085 5.03573167 3.68865085 6.55078125 6.71875 C6.88078125 4.73875 7.21078125 2.75875 7.55078125 0.71875 C12.17078125 0.71875 16.79078125 0.71875 21.55078125 0.71875 C21.64141231 9.82054822 21.71468662 18.92204318 21.75802994 28.02419186 C21.7788402 32.25140687 21.80703647 36.47829521 21.85253906 40.70532227 C21.8962329 44.79022462 21.91996762 48.87481419 21.93029022 52.95993233 C21.93763964 54.51276124 21.9519908 56.06557444 21.97370148 57.61826897 C22.2143243 75.55211488 22.2143243 75.55211488 16.10308838 82.32261658 C10.50870304 87.35416492 4.856279 86.92745632 -2.26171875 86.96875 C-3.13892578 86.989375 -4.01613281 87.01 -4.91992188 87.03125 C-10.55175649 87.06494834 -14.52191241 86.52631415 -19.44921875 83.71875 C-21.4453125 81.66796875 -21.4453125 81.66796875 -22.88671875 79.40625 C-23.38042969 78.66761719 -23.87414062 77.92898437 -24.3828125 77.16796875 C-25.44921875 74.71875 -25.44921875 74.71875 -25.44921875 68.71875 C-19.50921875 69.04875 -13.56921875 69.37875 -7.44921875 69.71875 C-6.78921875 71.03875 -6.12921875 72.35875 -5.44921875 73.71875 C-3.26380323 74.4181014 -3.26380323 74.4181014 -0.82421875 74.46875 C0.40167969 74.55382812 0.40167969 74.55382812 1.65234375 74.640625 C2.27882813 74.66640625 2.9053125 74.6921875 3.55078125 74.71875 C5.90186683 71.01053372 5.98233183 67.23269762 6.17578125 62.96875 C6.21445312 62.27136719 6.253125 61.57398438 6.29296875 60.85546875 C6.38676749 59.14364182 6.46984299 57.43123318 6.55078125 55.71875 C6.02871094 56.151875 5.50664063 56.585 4.96875 57.03125 C-0.36082982 61.06343649 -4.23259166 62.54225014 -10.94140625 62.09375 C-15.4805785 61.41499527 -18.13312858 60.33611382 -21.0703125 56.7265625 C-26.83156585 48.51988506 -27.77161031 41.76960062 -27.69921875 31.90625 C-27.70695313 30.86404297 -27.7146875 29.82183594 -27.72265625 28.74804688 C-27.69843992 19.10389258 -26.87827348 10.31360665 -20.44921875 2.71875 C-15.0027908 -2.32950567 -6.59082718 -3.44783304 0 0 Z " fill="#FBFBFE" transform="translate(1007.44921875,110.28125)"/>
<path d="M0 0 C5.52527989 2.71051466 9.527892 6.61415159 11.9765625 12.24609375 C16.09706722 25.51257857 16.35572335 42.88402111 10.4296875 55.58984375 C7.73898661 60.12580672 4.90670581 62.89971264 0 65 C-6.01160466 65.8556258 -10.70729209 64.85806227 -16 62 C-16.99 61.01 -17.98 60.02 -19 59 C-19.33 68.57 -19.66 78.14 -20 88 C-25.28 88 -30.56 88 -36 88 C-36 59.29 -36 30.58 -36 1 C-30.72 1 -25.44 1 -20 1 C-20 2.98 -20 4.96 -20 7 C-19.44570313 6.57847656 -18.89140625 6.15695313 -18.3203125 5.72265625 C-17.23363281 4.90087891 -17.23363281 4.90087891 -16.125 4.0625 C-15.40570312 3.51722656 -14.68640625 2.97195312 -13.9453125 2.41015625 C-9.5648373 -0.76524847 -5.26427674 -0.57590701 0 0 Z " fill="#F9F9FE" transform="translate(540,109)"/>
<path d="M0 0 C3.37597295 1.6519324 5.51832273 3.72699579 6.875 7.3125 C6.91625 7.869375 6.9575 8.42625 7 9 C7.66 9 8.32 9 9 9 C9.2578125 8.39671875 9.515625 7.7934375 9.78125 7.171875 C11.89015441 3.41369919 15.09206057 1.64510595 19 0 C23.86172601 -0.88739773 28.41021895 -0.62556478 32.9375 1.4375 C37.55271783 5.29921288 38.70868828 9.84554002 39.25619507 15.77420044 C39.3452594 18.86594068 39.33775971 21.94248217 39.29296875 25.03515625 C39.28872391 26.15442001 39.28447906 27.27368378 39.28010559 28.42686462 C39.26342531 31.97232983 39.22579232 35.51720902 39.1875 39.0625 C39.17243943 41.47850737 39.15875343 43.89452372 39.14648438 46.31054688 C39.11355659 52.20725416 39.06184778 58.10352801 39 64 C33.72 64 28.44 64 23 64 C22.97494385 62.52088135 22.9498877 61.0417627 22.92407227 59.51782227 C22.830195 54.05174468 22.729927 48.58580006 22.62768555 43.11987305 C22.5842619 40.75011292 22.54259251 38.38032 22.50268555 36.01049805 C22.44516232 32.61236667 22.38141697 29.21440157 22.31640625 25.81640625 C22.29969376 24.74975235 22.28298126 23.68309845 22.26576233 22.5841217 C22.2358445 21.11270973 22.2358445 21.11270973 22.20532227 19.61157227 C22.18200584 18.30918358 22.18200584 18.30918358 22.15821838 16.98048401 C22.21537575 14.99919221 22.21537575 14.99919221 21 14 C18.12693772 13.49904977 18.12693772 13.49904977 15 14 C10.87154617 18.016874 9.91526768 21.63618166 9.79467773 27.21777344 C9.77473251 28.03832214 9.75478729 28.85887085 9.73423767 29.70428467 C9.70916893 31.01855438 9.70916893 31.01855438 9.68359375 32.359375 C9.66281265 33.26375305 9.64203156 34.1681311 9.62062073 35.09991455 C9.5553406 37.98320055 9.49634048 40.8665761 9.4375 43.75 C9.39429429 45.70704044 9.35067935 47.66407188 9.30664062 49.62109375 C9.19968128 54.4139712 9.09835327 59.20693854 9 64 C3.72 64 -1.56 64 -7 64 C-7.01981934 62.59194092 -7.03963867 61.18388184 -7.06005859 59.7331543 C-7.13604295 54.51666156 -7.22477144 49.30045039 -7.31738281 44.08422852 C-7.35570221 41.82517041 -7.39054981 39.56605068 -7.421875 37.30688477 C-7.46746107 34.06243843 -7.52546638 30.81841752 -7.5859375 27.57421875 C-7.59748871 26.56163498 -7.60903992 25.54905121 -7.62094116 24.50578308 C-7.64081085 23.56503433 -7.66068054 22.62428558 -7.68115234 21.6550293 C-7.69447601 20.82674118 -7.70779968 19.99845306 -7.7215271 19.14506531 C-7.87738759 16.70403867 -7.87738759 16.70403867 -10 14 C-13.40614946 14.02126462 -13.40614946 14.02126462 -17 15 C-20.55275987 20.08325021 -20.46981118 25.02665033 -20.51171875 30.9921875 C-20.52966995 31.93812775 -20.54762115 32.88406799 -20.56611633 33.8586731 C-20.62006637 36.86407079 -20.65406604 39.86931104 -20.6875 42.875 C-20.72068657 44.91929267 -20.75517747 46.9635646 -20.79101562 49.0078125 C-20.87578415 54.00509448 -20.94266839 59.00233099 -21 64 C-26.28 64 -31.56 64 -37 64 C-37 43.21 -37 22.42 -37 1 C-32.05 1 -27.1 1 -22 1 C-21.67 3.31 -21.34 5.62 -21 8 C-20.278125 7.236875 -19.55625 6.47375 -18.8125 5.6875 C-12.9312633 0.06765159 -8.09356073 -1.2798017 0 0 Z " fill="#F8F8FE" transform="translate(451,109)"/>
<path d="M0 0 C1.4614466 0.00568748 1.4614466 0.00568748 2.95241737 0.01148987 C15.8072199 0.0789768 28.66029561 0.30708344 41.51318359 0.52734375 C44.21700451 0.57254726 46.92083447 0.61719859 49.62466431 0.66186523 C55.94924842 0.76665497 62.27380015 0.87327776 68.59834158 0.98060894 C75.81513516 1.10298915 83.0319636 1.22325002 90.24879527 1.34335899 C105.0583179 1.58987846 119.86779649 1.83897452 134.67724609 2.08984375 C135.61482982 15.01959195 135.82067766 27.88416773 135.80664062 40.84448242 C135.80799891 42.97515899 135.80978123 45.10583533 135.81195068 47.23651123 C135.81647114 52.96920158 135.81475866 58.70187373 135.8115716 64.43456435 C135.80902359 70.45217036 135.81139196 76.46977491 135.81295776 82.48738098 C135.81477082 92.57663246 135.81239425 102.66587659 135.80761719 112.75512695 C135.80215998 124.41546851 135.80395125 136.07579261 135.80944359 147.73613375 C135.81398001 157.76960976 135.81462316 167.80308051 135.81200492 177.83655721 C135.81044716 183.82022692 135.81023504 189.80388842 135.81354141 195.7875576 C135.81642834 201.40273737 135.81442928 207.01789457 135.80864716 212.6330719 C135.80732468 214.69302648 135.807705 216.75298296 135.80990982 218.81293678 C135.81264098 221.62350109 135.80921624 224.43399293 135.80422974 227.24455261 C135.80646046 228.05981531 135.80869118 228.875078 135.8109895 229.71504563 C135.78082367 238.47600609 135.78082367 238.47600609 134.67724609 242.08984375 C130.55695222 245.91845948 125.91030364 245.4936019 120.60812378 245.41937256 C119.6928136 245.41855785 118.77750342 245.41774313 117.83445656 245.41690373 C114.76602993 245.41047365 111.69818337 245.38243551 108.62988281 245.35449219 C106.43027734 245.3454207 104.2306661 245.33766602 102.03105164 245.33113098 C96.05339808 245.3095 90.07600302 245.26904873 84.09847784 245.22502804 C77.84028906 245.18185886 71.58202946 245.15506 65.32376099 245.12628174 C54.80707687 245.07556136 44.29049833 245.01361253 33.77392578 244.94384766 C22.97025204 244.87219605 12.16657883 244.8094801 1.36279297 244.75732422 C0.69825202 244.75411446 0.03371106 244.75090469 -0.65096749 244.74759766 C-1.98983691 244.74113764 -3.32870634 244.73467881 -4.66757577 244.72822119 C-16.93773561 244.66901888 -29.20784692 244.60198745 -41.47795248 244.53251362 C-45.19978699 244.51175099 -48.92162606 244.4920478 -52.64346695 244.47246552 C-58.50558415 244.44107732 -64.36764944 244.40459116 -70.22971153 244.36423302 C-72.3762368 244.35014335 -74.52277299 244.33761511 -76.66931725 244.32679939 C-101.73976084 244.19783461 -101.73976084 244.19783461 -106.32275391 243.08984375 C-108.55102539 240.60691267 -109.32275391 239.4022761 -109.32275391 236.08984375 C-108.66275391 236.08984375 -108.00275391 236.08984375 -107.32275391 236.08984375 C-107.32459749 234.90209697 -107.32644108 233.71435019 -107.32834053 232.49061108 C-107.37163039 204.31339397 -107.40462199 176.13617851 -107.42488457 147.9589353 C-107.42738606 144.49288715 -107.4299747 141.02683906 -107.43261719 137.56079102 C-107.43314181 136.87074593 -107.43366643 136.18070085 -107.43420695 135.46974532 C-107.44291611 124.28790361 -107.45868889 113.10608242 -107.4770595 101.92425289 C-107.49574434 90.45574222 -107.50671786 78.98724821 -107.5109309 67.51872188 C-107.5135439 61.07489147 -107.51970801 54.63110762 -107.53421402 48.1872921 C-107.54774562 42.12747739 -107.55198554 36.06772861 -107.54896927 30.00790024 C-107.54952142 27.77898997 -107.55352508 25.55007759 -107.56116486 23.32118034 C-107.5710569 20.2874583 -107.56874384 17.253988 -107.56326294 14.22026062 C-107.56908862 13.33019009 -107.57491431 12.44011956 -107.58091652 11.52307719 C-107.55099633 5.43220738 -107.55099633 5.43220738 -105.32275391 2.08984375 C-96.37893747 -0.02876583 -86.10017165 0.97036601 -76.92905807 1.01467896 C-74.23074305 1.02759724 -71.5324779 1.03399565 -68.83413696 1.03881836 C-63.1219865 1.05015345 -57.40987822 1.06944502 -51.69775391 1.08984375 C-45.03989599 1.11346106 -38.38206053 1.13380027 -31.72417068 1.14578247 C-29.06399689 1.15226984 -26.40389413 1.16476751 -23.7437439 1.17749023 C-22.12473615 1.18112007 -20.50572774 1.18447214 -18.88671875 1.1875 C-18.14600128 1.19266632 -17.40528381 1.19783264 -16.64212036 1.20315552 C-10.97730709 1.20374682 -5.79888841 -0.04234485 0 0 Z M-104.32275391 4.08984375 C-104.32275391 81.96984375 -104.32275391 159.84984375 -104.32275391 240.08984375 C-26.44275391 240.08984375 51.43724609 240.08984375 131.67724609 240.08984375 C131.67724609 162.20984375 131.67724609 84.32984375 131.67724609 4.08984375 C53.79724609 4.08984375 -24.08275391 4.08984375 -104.32275391 4.08984375 Z " fill="#0071BC" transform="translate(123.32275390625,17.91015625)"/>
<path d="M0 0 C8.55557713 3.90547659 14.02127596 11.01017416 17.4375 19.625 C17.7159375 20.800625 17.7159375 20.800625 18 22 C21.62939337 18.51835185 24.69030814 14.93571155 27.6875 10.875 C28.45449219 9.84117188 29.22148437 8.80734375 30.01171875 7.7421875 C31.37970722 5.8554922 32.70729721 3.93905418 34 2 C39.39540294 1.46930463 42.55447158 1.63217544 47 5 C48 6 48 6 48.375 8.75 C47.62830341 15.22137041 39.57973436 20.1685973 34.81640625 24.45117188 C31.20103018 27.74754418 27.90233448 31.0491499 25 35 C24.8682678 42.90393179 28.07324878 50.86267562 33 57 C39.91928653 56.8558482 43.28194797 53.86258754 48 49 C49.37013339 47.36345179 50.7120272 45.70196405 52 44 C54 41.6875 54 41.6875 56 40 C57.32 40 58.64 40 60 40 C60.87485106 50.40100705 58.21915281 56.22546577 51.75 64.1875 C46.06968608 70.38758121 38.94190123 75.50930245 30.3984375 76.21484375 C24.70112539 76.40680171 20.94774117 76.1088748 16 73 C13.734375 70.30078125 13.734375 70.30078125 11.75 67.3125 C10.54441656 65.51113405 9.30476856 63.73087541 8 62 C7.34 62 6.68 62 6 62 C4.62340232 63.72147778 3.32227237 65.50377655 2.0625 67.3125 C-3.8638121 75.78657244 -3.8638121 75.78657244 -7.12109375 76.3984375 C-13.42835693 76.33462033 -13.42835693 76.33462033 -16.5625 74.5 C-17.036875 74.005 -17.51125 73.51 -18 73 C-17.46639231 68.84809361 -16.25983913 66.66950915 -13.5625 63.5 C-12.85351562 62.63761719 -12.14453125 61.77523437 -11.4140625 60.88671875 C-10.15627255 59.38266248 -8.89750432 57.87937608 -7.62792969 56.38525391 C-6.21251365 54.70889798 -4.8243933 53.01248342 -3.4375 51.3125 C-2.98383057 50.79042969 -2.53016113 50.26835937 -2.06274414 49.73046875 C0.35661536 46.73134839 1.01000111 45.2729714 0.8671875 41.375 C0.19176842 38.74634196 -0.45975535 36.2154512 -1.4375 33.6875 C-1.80681641 32.70330078 -1.80681641 32.70330078 -2.18359375 31.69921875 C-2.9819808 29.79726354 -2.9819808 29.79726354 -5 28 C-6.46801351 27.67408429 -7.95025501 27.40973201 -9.4375 27.1875 C-12.6471948 26.51150319 -13.72380216 26.28456747 -16.0625 23.875 C-17.84967355 18.39433443 -17.71693545 14.00591334 -15.375 8.8125 C-11.84985147 2.54144629 -7.61555134 -1.41984855 0 0 Z " fill="#FAF8FC" transform="translate(156,117)"/>
<path d="M0 0 C5.94 0 11.88 0 18 0 C26.57142857 17 26.57142857 17 30 25 C33.11547582 22.4247801 34.0499085 19.63683694 35.375 15.875 C37.462021 10.21022873 39.9232036 5.18659965 43 0 C48.94 0 54.88 0 61 0 C59.43645028 3.90887431 57.7801295 7.4952517 55.84765625 11.21875 C55.54685654 11.79911011 55.24605682 12.37947021 54.93614197 12.97741699 C54.30270811 14.19825597 53.66813139 15.41850259 53.0324707 16.63818359 C52.06618334 18.49292999 51.10411269 20.34981728 50.14257812 22.20703125 C45.34738215 31.43910837 45.34738215 31.43910837 43.32055664 34.71166992 C41.55153979 37.77711546 41.54181325 39.49443909 42 43 C42.99243866 45.68366489 44.27727515 48.16677223 45.625 50.6875 C45.98746826 51.38794434 46.34993652 52.08838867 46.72338867 52.81005859 C49.72828288 58.58691973 52.85528571 64.29836848 56 70 C59 75.6 59 75.6 59 79 C59.66 79 60.32 79 61 79 C62.4606285 81.64738916 63 82.89448334 63 86 C56.73 86 50.46 86 44 86 C43.525625 84.72125 43.05125 83.4425 42.5625 82.125 C39.26692449 73.83213363 35.0546378 65.94054868 31 58 C28.83149137 60.75406098 27.12491254 63.49347527 25.5546875 66.625 C25.11769531 67.49640625 24.68070313 68.3678125 24.23046875 69.265625 C23.55951172 70.61914062 23.55951172 70.61914062 22.875 72 C22.41996094 72.90234375 21.96492187 73.8046875 21.49609375 74.734375 C21.06167969 75.60578125 20.62726562 76.4771875 20.1796875 77.375 C19.78507324 78.16648437 19.39045898 78.95796875 18.98388672 79.7734375 C17.82065061 82.23495608 17.82065061 82.23495608 17 86 C10.4 86 3.8 86 -3 86 C-2.05942528 82.2377011 -0.85068314 79.55081452 0.94140625 76.140625 C1.52470703 75.02558594 2.10800781 73.91054687 2.70898438 72.76171875 C3.32064453 71.60285156 3.93230469 70.44398438 4.5625 69.25 C5.18463621 68.06400733 5.80638531 66.8778115 6.42773438 65.69140625 C7.94802438 62.79224856 9.47224431 59.89522849 11 57 C11.66 57 12.32 57 13 57 C13.11085938 56.26523438 13.22171875 55.53046875 13.3359375 54.7734375 C14.20508758 51.14345777 16.00484099 48.56723053 18.0390625 45.4765625 C19.42216276 41.91198703 18.90690638 39.69436757 18 36 C16.8356732 33.39929425 15.41430863 30.99654468 13.9375 28.5625 C13.12056378 27.16458729 12.3068504 25.76478701 11.49609375 24.36328125 C11.08214355 23.64865723 10.66819336 22.9340332 10.24169922 22.19775391 C8.21254455 18.60623792 6.34500563 14.93873267 4.5 11.25 C4.16218506 10.58299072 3.82437012 9.91598145 3.47631836 9.22875977 C1.93254194 6.12405828 0.84674859 3.38699438 0 0 Z " fill="#F9F9FE" transform="translate(678,87)"/>
<path d="M0 0 C2.6875 2.375 2.6875 2.375 5 5 C5.721875 5.78375 6.44375 6.5675 7.1875 7.375 C10.30180572 11.8853738 11.32950974 16.56308925 11 22 C5.42932723 23.59162079 0.78898419 24.20674944 -5 24 C-5.17015625 23.38511719 -5.3403125 22.77023438 -5.515625 22.13671875 C-6.97197218 17.23949029 -6.97197218 17.23949029 -9.625 12.9375 C-13.40154585 11.44675822 -17.00656981 11.33948968 -21 12 C-24.64648645 14.82308629 -25.14058434 19.64291993 -26 24 C-26.36468826 28.85862835 -26.37164854 33.7104658 -26.37060547 38.58056641 C-26.37497714 40.86306517 -26.4113712 43.14362339 -26.44921875 45.42578125 C-26.51107167 53.50077868 -26.24239078 60.85358005 -22 68 C-20.08071951 70.32357994 -20.08071951 70.32357994 -16.75 70.4375 C-13.10308709 70.01202683 -11.01531848 69.41043914 -8.2890625 66.91015625 C-5.53103072 62.82325461 -4.86918588 57.78052235 -4 53 C-0.73479256 53.80075325 2.50746067 54.67466185 5.75 55.5625 C6.73484375 55.83191406 7.7196875 56.10132813 8.734375 56.37890625 C9.48203125 56.58386719 10.2296875 56.78882813 11 57 C12.97120849 61.98886098 10.35778797 66.19382285 8.44921875 70.86328125 C5.23084798 77.82918888 1.04174952 81.12731976 -6 84 C-9.45731264 85.15243755 -12.23259213 85.16824837 -15.875 85.1875 C-17.69644531 85.20876953 -17.69644531 85.20876953 -19.5546875 85.23046875 C-22.87708271 85.00822236 -25.02617973 84.42638105 -28 83 C-29.2065625 82.443125 -29.2065625 82.443125 -30.4375 81.875 C-39.25571122 75.42265033 -42.42079669 65.10278261 -44.25 54.75 C-46.41079761 38.40896804 -46.58450637 19.10134271 -37 5 C-28.80034227 -4.8319081 -10.7085046 -6.75101377 0 0 Z " fill="#F9F9FE" transform="translate(333,89)"/>
<path d="M0 0 C5.28 0 10.56 0 16 0 C16.33 9.24 16.66 18.48 17 28 C19.97 25.525 19.97 25.525 23 23 C28.45115277 21.18294908 34.61999011 20.91799298 39.875 23.5 C43.7394183 26.24163052 45.52030833 29.54369586 47 34 C47.51328653 37.99089805 47.46784631 41.91927957 47.390625 45.9375 C47.38496521 47.05817871 47.37930542 48.17885742 47.37347412 49.33349609 C47.35120292 52.88944417 47.30102177 56.44435989 47.25 60 C47.22992313 62.4205583 47.21167445 64.84113249 47.1953125 67.26171875 C47.15136813 73.17487289 47.08240308 79.08726181 47 85 C42.05 85 37.1 85 32 85 C31.98541748 83.62223389 31.97083496 82.24446777 31.95581055 80.82495117 C31.89790098 75.72019304 31.82066762 70.61587942 31.73754883 65.51147461 C31.70426492 63.30093594 31.67624388 61.09031157 31.65356445 58.87963867 C31.62008241 55.70454334 31.56776948 52.53023583 31.51171875 49.35546875 C31.50532883 48.36475876 31.4989389 47.37404877 31.49235535 46.35331726 C31.47256119 45.43258926 31.45276703 44.51186127 31.43237305 43.56323242 C31.42126999 42.7527092 31.41016693 41.94218597 31.39872742 41.10710144 C30.90602725 38.50339478 30.07693552 37.60001707 28 36 C25.94636394 35.6393369 25.94636394 35.6393369 23.8125 35.8125 C22.554375 35.874375 21.29625 35.93625 20 36 C19.5359375 37.175625 19.5359375 37.175625 19.0625 38.375 C18 41 18 41 17 43 C16.88273341 44.38817673 16.82318594 45.78148714 16.79467773 47.17431641 C16.77473251 48.03505768 16.75478729 48.89579895 16.73423767 49.78262329 C16.70916893 51.1779982 16.70916893 51.1779982 16.68359375 52.6015625 C16.66281265 53.55316254 16.64203156 54.50476257 16.62062073 55.48519897 C16.55511867 58.53172432 16.4962372 61.57833743 16.4375 64.625 C16.39431541 66.68750916 16.35070114 68.75000937 16.30664062 70.8125 C16.1994366 75.87490954 16.09817098 80.93740755 16 86 C10.72 86 5.44 86 0 86 C0 57.62 0 29.24 0 0 Z " fill="#FAFAFE" transform="translate(801,87)"/>
<path d="M0 0 C4.20954294 2.41519968 6.75844761 4.88728744 9.5 8.875 C10.056875 9.6175 10.61375 10.36 11.1875 11.125 C14.97869326 19.06845255 14.5 27.10685617 14.5 35.875 C2.95 35.875 -8.6 35.875 -20.5 35.875 C-18.71967489 45.9860844 -18.71967489 45.9860844 -15.5 48.875 C-13.05987051 49.11787489 -13.05987051 49.11787489 -10.375 49 C-9.46492188 48.98195312 -8.55484375 48.96390625 -7.6171875 48.9453125 C-6.91851563 48.92210937 -6.21984375 48.89890625 -5.5 48.875 C-5.190625 47.905625 -4.88125 46.93625 -4.5625 45.9375 C-3.5 42.875 -3.5 42.875 -2.5 41.875 C2.65197086 41.69734583 7.42193071 42.02865512 12.5 42.875 C12.23160155 49.31656291 9.99057033 53.26414654 5.5 57.875 C-2.11486615 63.58614961 -10.30237075 63.57616456 -19.5 62.875 C-25.75451117 61.41954772 -28.81567173 57.76042089 -32.17578125 52.484375 C-35.91900367 45.1083497 -37.02633039 39.2750808 -36.9375 31.0625 C-36.92992676 30.08853271 -36.92235352 29.11456543 -36.91455078 28.11108398 C-36.6954856 18.56256031 -35.01588852 10.37325589 -28.17578125 3.3125 C-20.13129905 -3.58812809 -9.61725167 -4.43541905 0 0 Z " fill="#F7F7FE" transform="translate(1078.5,111.125)"/>
<path d="M0 0 C5.28419373 5.28419373 5.62795423 10.57929044 5.62890625 17.64453125 C5.64211411 18.54693039 5.65532196 19.44932953 5.66893005 20.3790741 C5.70966001 23.25274735 5.73143385 26.12610448 5.75 29 C5.77391339 31.86308465 5.80226663 34.7258772 5.84178162 37.58879089 C5.86582127 39.36514645 5.88093646 41.14165449 5.88539124 42.91816711 C5.95550304 48.56769547 6.75069917 53.7243065 8.1875 59.1875 C5.70826199 59.21435095 3.2293116 59.23426547 0.75 59.25 C0.04294922 59.25837891 -0.66410156 59.26675781 -1.39257812 59.27539062 C-3.19943559 59.28403588 -5.00637603 59.23970011 -6.8125 59.1875 C-7.8125 58.1875 -7.8125 58.1875 -7.875 55.625 C-7.854375 54.820625 -7.83375 54.01625 -7.8125 53.1875 C-8.864375 53.97125 -9.91625 54.755 -11 55.5625 C-16.94057002 59.74817109 -21.58997842 60.79487841 -28.8125 60.1875 C-33.52775765 59.09092845 -36.92961987 56.00093005 -39.8125 52.1875 C-42.07023404 46.00560917 -41.5303562 38.00764936 -39.9375 31.75 C-33.44965513 23.92642236 -23.39327214 21.30548604 -13.8125 19.1875 C-12.8225 19.1875 -11.8325 19.1875 -10.8125 19.1875 C-11.09491641 17.72734709 -11.38876614 16.26940207 -11.6875 14.8125 C-11.84992188 14.00039062 -12.01234375 13.18828125 -12.1796875 12.3515625 C-12.67908932 10.00076077 -12.67908932 10.00076077 -14.8125 8.1875 C-18.96289464 7.72966317 -18.96289464 7.72966317 -22.625 9.4375 C-23.9259395 11.354674 -24.30774397 12.94619801 -24.8125 15.1875 C-26.58369803 15.04616501 -28.35445287 14.89926792 -30.125 14.75 C-31.11113281 14.66878906 -32.09726562 14.58757812 -33.11328125 14.50390625 C-35.8125 14.1875 -35.8125 14.1875 -38.8125 13.1875 C-38.43033542 7.55057241 -38.07847823 4.22895306 -33.8125 0.1875 C-23.610263 -7.14226251 -10.35678809 -6.67437455 0 0 Z " fill="#F8F8FE" transform="translate(394.8125,113.8125)"/>
<path d="M0 0 C3.7374363 3.63361862 5.38654723 7.29638516 5.63476562 12.47363281 C5.65579138 14.11251099 5.66218397 15.7516227 5.65625 17.390625 C5.66708618 18.26845642 5.67792236 19.14628784 5.68908691 20.05072021 C5.72321297 22.84638851 5.73890345 25.64165134 5.75 28.4375 C5.53562112 44.10920993 5.53562112 44.10920993 9.25 59.1875 C3.97 59.1875 -1.31 59.1875 -6.75 59.1875 C-7.08 57.5375 -7.41 55.8875 -7.75 54.1875 C-8.74 53.6925 -8.74 53.6925 -9.75 53.1875 C-10.08 54.1775 -10.41 55.1675 -10.75 56.1875 C-15.58872464 60.05589216 -21.09017248 60.88389173 -27.1328125 60.6328125 C-32.85280327 59.65956034 -35.68469423 56.5259611 -39.1875 52.125 C-41.71499053 47.12472652 -41.48116606 41.62323962 -40.75 36.1875 C-39.09392412 31.22812837 -35.99682579 28.11712848 -31.75 25.1875 C-28.79020848 23.90103719 -25.76258308 22.91040764 -22.6875 21.9375 C-21.88505859 21.669375 -21.08261719 21.40125 -20.25585938 21.125 C-16.47349687 19.8945551 -13.79783865 19.1875 -9.75 19.1875 C-9.87375 17.90875 -9.9975 16.63 -10.125 15.3125 C-10.19460938 14.59320313 -10.26421875 13.87390625 -10.3359375 13.1328125 C-10.61374749 10.96081755 -10.61374749 10.96081755 -12.75 9.1875 C-18.02255894 8.59650252 -18.02255894 8.59650252 -22.6875 10.5 C-23.92571726 12.31820391 -23.92571726 12.31820391 -24.75 15.1875 C-29.37 14.5275 -33.99 13.8675 -38.75 13.1875 C-37.70437494 5.86812455 -36.80185642 3.89768497 -31.75 -0.8125 C-22.13344895 -7.68146503 -9.44862324 -6.22750168 0 0 Z " fill="#F9F9FE" transform="translate(900.75,113.8125)"/>
<path d="M0 0 C5.28 0 10.56 0 16 0 C16.01981934 1.44358887 16.03963867 2.88717773 16.06005859 4.37451172 C16.13596638 9.71583906 16.22470618 15.05688866 16.31738281 20.39794922 C16.35573401 22.71234669 16.3905759 25.02680502 16.421875 27.34130859 C16.4673924 30.66265664 16.52540843 33.98358341 16.5859375 37.3046875 C16.59748871 38.34430634 16.60903992 39.38392517 16.62094116 40.45504761 C16.64081085 41.41589264 16.66068054 42.37673767 16.68115234 43.36669922 C16.69447601 44.21497284 16.70779968 45.06324646 16.7215271 45.93722534 C16.81776158 48.22186119 16.81776158 48.22186119 19 50 C22.39597063 50.21676408 24.75778445 50.08073852 28 49 C30.19552205 43.43275041 30.33644889 38.05897165 30.4140625 32.12890625 C30.43342865 31.206577 30.4527948 30.28424774 30.4727478 29.33396912 C30.5321612 26.41023789 30.57877509 23.48646647 30.625 20.5625 C30.66321502 18.5709471 30.70226877 16.5794101 30.7421875 14.58789062 C30.83783104 9.72539077 30.92200221 4.86281362 31 0 C36.28 0 41.56 0 47 0 C47 20.46 47 40.92 47 62 C42.38 62 37.76 62 33 62 C33 59.69 33 57.38 33 55 C32.34 55.7425 31.68 56.485 31 57.25 C26.20027666 61.955874 21.15835996 64.22450066 14.4375 64.75 C11.12303157 64.63491429 9.49186864 64.3645098 6.8125 62.37890625 C2.27018796 57.37289986 -0.26102951 52.59744679 -0.22705078 45.75073242 C-0.22689972 44.73005173 -0.22674866 43.70937103 -0.22659302 42.65776062 C-0.21627045 41.5680043 -0.20594788 40.47824799 -0.1953125 39.35546875 C-0.1924826 38.2305452 -0.18965271 37.10562164 -0.18673706 35.9466095 C-0.17555836 32.36013064 -0.15045763 28.77390315 -0.125 25.1875 C-0.11496723 22.75325882 -0.1058419 20.31901372 -0.09765625 17.88476562 C-0.07562652 11.9230805 -0.04111218 5.96158284 0 0 Z " fill="#F9F9FE" transform="translate(566,110)"/>
<path d="M0 0 C3.79841669 1.42088921 7.64654494 3.65561649 10 7 C12.29355814 13.21791519 12.25950761 19.04422639 12.1953125 25.62109375 C12.1924826 26.72099136 12.18965271 27.82088898 12.18673706 28.95411682 C12.1755898 32.44869103 12.15049498 35.94300394 12.125 39.4375 C12.11496316 41.81444941 12.10583854 44.19140286 12.09765625 46.56835938 C12.07566827 52.37900611 12.04117582 58.18945883 12 64 C6.72 64 1.44 64 -4 64 C-4.02505615 62.62223389 -4.0501123 61.24446777 -4.07592773 59.82495117 C-4.16999594 54.72036197 -4.27021817 49.61590904 -4.37231445 44.51147461 C-4.41566552 42.30089502 -4.45734046 40.09028191 -4.49731445 37.87963867 C-4.55501266 34.70481251 -4.61870862 31.53015514 -4.68359375 28.35546875 C-4.70030624 27.36475876 -4.71701874 26.37404877 -4.73423767 25.35331726 C-4.75418289 24.43258926 -4.77412811 23.51186127 -4.79467773 22.56323242 C-4.81799416 21.34744759 -4.81799416 21.34744759 -4.84178162 20.10710144 C-4.92809721 17.80853317 -4.92809721 17.80853317 -6 15 C-8.82883747 13.58558126 -10.87376745 13.68099668 -14 14 C-17.92494726 17.36424051 -18.72015659 23.18245465 -19.21270752 28.14160156 C-19.32289234 30.38711615 -19.38025372 32.62705497 -19.4140625 34.875 C-19.43342865 35.68493408 -19.4527948 36.49486816 -19.4727478 37.3293457 C-19.53196002 39.88612734 -19.57869246 42.44295545 -19.625 45 C-19.66323367 46.7461121 -19.70228843 48.49220642 -19.7421875 50.23828125 C-19.83761252 54.4920411 -19.92185549 58.74588904 -20 63 C-24.95 63 -29.9 63 -35 63 C-35 42.87 -35 22.74 -35 2 C-30.38 2 -25.76 2 -21 2 C-21 4.31 -21 6.62 -21 9 C-20.34 9 -19.68 9 -19 9 C-18.773125 8.4225 -18.54625 7.845 -18.3125 7.25 C-14.08303177 -0.00051697 -7.66593677 -0.84922054 0 0 Z " fill="#FBFBFE" transform="translate(956,109)"/>
<path d="M0 0 C8.29044643 4.98154018 8.29044643 4.98154018 9.4921875 8.67578125 C9.94791667 10.69401042 10.40364583 12.71223958 10.859375 14.73046875 C0.06976918 17.41588176 0.06976918 17.41588176 -4.140625 16.73046875 C-4.78 15.90546875 -5.419375 15.08046875 -6.078125 14.23046875 C-6.75875 13.40546875 -7.439375 12.58046875 -8.140625 11.73046875 C-11.80862315 11.31275071 -11.80862315 11.31275071 -15.140625 11.73046875 C-15.81229207 14.47350771 -15.81229207 14.47350771 -15.140625 17.73046875 C-11.4388553 21.77441884 -6.36089364 24.19375168 -1.578125 26.73046875 C3.20432524 29.26823134 7.025311 31.89640475 10.859375 35.73046875 C10.859375 36.72046875 10.859375 37.71046875 10.859375 38.73046875 C11.519375 38.73046875 12.179375 38.73046875 12.859375 38.73046875 C13.24981055 46.85731242 12.91736157 51.86301515 7.734375 58.41796875 C0.1747329 64.49855044 -8.76370667 64.55419322 -18.140625 63.73046875 C-24.0299826 62.42733474 -27.89334397 58.84099106 -31.37109375 54.02734375 C-33.22695016 51.11371253 -34.18715385 49.27718271 -33.890625 45.79296875 C-33.519375 44.77203125 -33.519375 44.77203125 -33.140625 43.73046875 C-28.37755063 42.77785388 -23.9739722 42.64713518 -19.140625 42.73046875 C-18.13151042 44.52083333 -17.12239583 46.31119792 -16.11328125 48.1015625 C-15.2433737 49.70925021 -15.2433737 49.70925021 -14.140625 50.73046875 C-8.26416469 51.19378312 -8.26416469 51.19378312 -3.140625 48.73046875 C-3.4613692 45.72158269 -3.6694964 44.16860804 -5.92578125 42.0703125 C-6.67730469 41.60753906 -7.42882812 41.14476562 -8.203125 40.66796875 C-9.01523437 40.16265625 -9.82734375 39.65734375 -10.6640625 39.13671875 C-12.85578905 37.89220525 -15.05583305 36.75586142 -17.328125 35.66796875 C-22.86704209 32.98109843 -27.53636471 29.46016494 -30.4453125 23.88671875 C-32.35199482 17.97386121 -32.11198531 11.82262942 -29.515625 6.23046875 C-21.89304992 -1.79329449 -10.34834509 -4.18309969 0 0 Z " fill="#F8F8FE" transform="translate(658.140625,110.26953125)"/>
<path d="M0 0 C5.28085698 3.41805884 10.02901588 7.79952024 12.22265625 13.83203125 C12.22265625 15.81203125 12.22265625 17.79203125 12.22265625 19.83203125 C7.27265625 20.16203125 2.32265625 20.49203125 -2.77734375 20.83203125 C-3.10734375 18.85203125 -3.43734375 16.87203125 -3.77734375 14.83203125 C-7.25059556 13.67428065 -10.13801823 13.76336473 -13.77734375 13.83203125 C-17.19691324 19.28705877 -17.23169062 23.91580167 -17.15234375 30.14453125 C-17.16394531 31.04365234 -17.17554688 31.94277344 -17.1875 32.86914062 C-17.16077092 39.03019249 -16.08199797 44.12289352 -13.77734375 49.83203125 C-10.41391685 49.80553903 -10.41391685 49.80553903 -6.77734375 48.83203125 C-4.33620768 45.87697179 -2.98559029 43.45677086 -1.77734375 39.83203125 C3.37437248 39.74165026 8.14178829 39.98521992 13.22265625 40.83203125 C12.32203949 48.26988344 10.46155718 54.30020253 5.22265625 59.83203125 C-1.01323942 64.41325362 -8.29422184 64.81342429 -15.77734375 63.83203125 C-22.5169145 61.99813445 -26.77769744 57.36487531 -30.77734375 51.83203125 C-35.82101223 42.43246727 -35.09121857 26.80249183 -32.52734375 16.64453125 C-30.02806632 8.96070623 -25.80658012 3.98501829 -19.0078125 -0.27734375 C-13.25083539 -2.57610169 -5.67065344 -2.38470518 0 0 Z " fill="#F8F8FE" transform="translate(777.77734375,110.16796875)"/>
<path d="M0 0 C3.12330219 3.12330219 2.30528717 6.94589577 2.31211853 11.14183044 C2.32143876 12.1010574 2.33075899 13.06028436 2.34036165 14.0485788 C2.36921788 17.28295562 2.38368746 20.51723821 2.39819336 23.75170898 C2.41566555 26.06238402 2.43394412 28.37305308 2.45297241 30.68371582 C2.50179867 36.97488243 2.53742073 43.26605723 2.5693748 49.55732989 C2.58977815 53.48347122 2.61276185 57.40958883 2.6366291 61.33571053 C2.70240259 72.20024825 2.76521838 83.06478556 2.81447506 93.92941189 C2.81763024 94.6249756 2.82078542 95.32053932 2.82403621 96.03718073 C2.83041914 97.44732987 2.83679963 98.85747902 2.84317773 100.26762819 C2.84634754 100.96765317 2.84951734 101.66767815 2.8527832 102.38891602 C2.85753995 103.44023082 2.85753995 103.44023082 2.86239279 104.51278431 C2.91442242 115.87571738 2.98995992 127.23836064 3.07584041 138.60108351 C3.16364795 150.25943236 3.23232683 161.91775916 3.28275019 173.57633072 C3.31145458 180.12533814 3.34823817 186.67406553 3.40458488 193.22289848 C3.45696132 199.37962037 3.48561688 205.53599253 3.49572372 211.6929245 C3.50355256 213.95735651 3.52001484 216.22177691 3.54556847 218.48607826 C3.57903925 221.56822549 3.58189896 224.64889737 3.57676697 227.73118591 C3.59385788 228.635456 3.6109488 229.53972608 3.62855762 230.47139829 C3.57306615 236.40089494 3.57306615 236.40089494 1.03077221 239.05870533 C-3.08130886 240.33583199 -6.78570543 240.3894957 -11.06912231 240.32952881 C-11.9844325 240.3287141 -12.89974268 240.32789938 -13.84278953 240.32705998 C-16.91121616 240.3206299 -19.97906273 240.29259176 -23.04736328 240.26464844 C-25.24696875 240.25557695 -27.44657999 240.24782227 -29.64619446 240.24128723 C-35.62384802 240.21965625 -41.60124307 240.17920498 -47.57876825 240.13518429 C-53.83695704 240.09201511 -60.09521664 240.06521625 -66.35348511 240.03643799 C-76.87016923 239.98571761 -87.38674776 239.92376878 -97.90332031 239.85400391 C-108.70699405 239.7823523 -119.51066727 239.71963635 -130.31445312 239.66748047 C-130.97899408 239.66427071 -131.64353503 239.66106094 -132.32821359 239.65775391 C-133.66708301 239.65129389 -135.00595243 239.64483506 -136.34482186 239.63837744 C-148.6149817 239.57917513 -160.88509302 239.5121437 -173.15519857 239.44266987 C-176.87703309 239.42190724 -180.59887215 239.40220405 -184.32071304 239.38262177 C-190.18283024 239.35123357 -196.04489554 239.31474741 -201.90695763 239.27438927 C-204.05348289 239.2602996 -206.20001908 239.24777136 -208.34656334 239.23695564 C-233.24711754 239.10886479 -233.24711754 239.10886479 -238 238 C-238.33 237.34 -238.66 236.68 -239 236 C-160.13 236 -81.26 236 0 236 C0 158.12 0 80.24 0 0 Z " fill="#0069B9" transform="translate(255,23)"/>
<path d="M0 0 C0.66 0 1.32 0 2 0 C2 77.88 2 155.76 2 236 C79.88 236 157.76 236 238 236 C238 236.33 238 236.66 238 237 C207.8758203 237.21870299 177.75155892 237.41691523 147.62706326 237.58644359 C144.07217541 237.60646717 140.51728858 237.62666581 136.96240234 237.64697266 C136.25467588 237.65101251 135.54694943 237.65505237 134.81777671 237.65921465 C123.35200416 237.72508146 111.8863722 237.80513617 100.42072949 237.89041659 C88.65960885 237.97757959 76.8984664 238.04953669 65.13716435 238.10732102 C58.52943664 238.14044799 51.9219222 238.18069629 45.31435394 238.2377243 C39.09943148 238.29114227 32.88468943 238.32585974 26.66957283 238.34602928 C24.38460264 238.3567787 22.0996533 238.37445102 19.81479454 238.39944649 C16.70243718 238.43247447 13.5909637 238.44092031 10.47845459 238.4430542 C9.56795121 238.45859651 8.65744783 238.47413883 7.71935344 238.49015212 C1.62317842 238.45738094 1.62317842 238.45738094 -1.59240341 236.09730911 C-3 234 -3 234 -3 232 C-2.34 232 -1.68 232 -1 232 C-1.00092179 230.81040963 -1.00184359 229.62081926 -1.00279331 228.3951807 C-1.02442973 200.18577613 -1.04092976 171.97637197 -1.05106533 143.76696089 C-1.0523161 140.29833524 -1.05361042 136.82970961 -1.05493164 133.36108398 C-1.05519395 132.67051428 -1.05545626 131.97994458 -1.05572652 131.26844852 C-1.06008327 120.07233082 -1.06797084 108.87621822 -1.0771528 97.68010355 C-1.0864892 86.20030266 -1.09198068 74.72050593 -1.09408849 63.24070114 C-1.09539604 56.78912507 -1.09848463 50.3375606 -1.10573006 43.88598824 C-1.11248625 37.82126818 -1.11461778 31.75656459 -1.11310768 25.69184113 C-1.11338419 23.45886839 -1.11539168 21.22589514 -1.11920547 18.99292564 C-1.12413646 15.95856573 -1.1230005 12.92426903 -1.12025452 9.88990784 C-1.12316736 8.99401162 -1.1260802 8.09811541 -1.12908131 7.17507082 C-1.11412121 1.11412121 -1.11412121 1.11412121 0 0 Z " fill="#1F83C4" transform="translate(17,22)"/>
<path d="M0 0 C3.44125336 0.67146407 5.10033154 2.03783154 7.5625 4.5 C9.06535073 8.95245823 8.7854064 13.60344806 8.8125 18.25 C8.833125 19.11882812 8.85375 19.98765625 8.875 20.8828125 C8.91048105 26.79040714 8.04664532 31.1217048 5.5625 36.5 C3.5625 38.5 3.5625 38.5 0.1875 38.875 C-3.4375 38.5 -3.4375 38.5 -5.75 36.9375 C-10.57294162 29.97102876 -10.03807435 21.66781113 -9.4375 13.5 C-8.30762209 7.66092294 -6.51181872 1.33575769 0 0 Z " fill="#686AF1" transform="translate(529.4375,121.5)"/>
<path d="M0 0 C3.67334775 2.75723439 6.30093478 5.36074899 7 10 C8.0800348 29.19138756 8.0800348 29.19138756 2.25 36.0625 C-1.16818028 37.48674178 -3.47979972 36.96005462 -7 36 C-10.52324899 32.96271639 -11.3740766 28.45882509 -12 24 C-12.41172814 17.19388175 -12.82315281 10.31848486 -10 4 C-6.90530381 0.73802293 -4.52499379 -1.10365702 0 0 Z " fill="#6B6EF1" transform="translate(1007,122)"/>
<path d="M0 0 C1.26899643 -0.00274933 2.53799286 -0.00549866 3.84544373 -0.0083313 C5.24406528 -0.00125393 6.64268588 0.00601567 8.04130554 0.01345825 C9.51985669 0.01402264 10.9984084 0.01370527 12.47695923 0.01257324 C16.48484903 0.01199979 20.49261893 0.0237529 24.50048089 0.03772116 C28.69118151 0.05022973 32.88188492 0.05139912 37.07260132 0.05377197 C45.00563796 0.05998636 52.93861944 0.07639664 60.8716318 0.09647095 C69.90421627 0.11883121 78.93680338 0.1298237 87.96940863 0.13986182 C106.54768614 0.1607629 125.1259123 0.1959381 143.70414734 0.24050903 C144.03414734 0.90050903 144.36414734 1.56050903 144.70414734 2.24050903 C143.95484483 2.23774365 143.20554232 2.23497828 142.43353367 2.2321291 C124.17944501 2.16580097 105.9253805 2.11619525 87.67119694 2.08507252 C78.84351326 2.06962075 70.01591015 2.04856363 61.1882782 2.01419067 C53.49178097 1.98423647 45.79534211 1.96492175 38.0987882 1.95824355 C34.02562477 1.95434147 29.9526283 1.94520648 25.87951851 1.92331886 C22.04066011 1.90285844 18.20203641 1.8966944 14.36312866 1.90118599 C12.9591335 1.90036504 11.55512996 1.89445643 10.15118217 1.88289261 C-2.07107705 1.55379014 -2.07107705 1.55379014 -12.87171841 6.55094624 C-17.35712622 11.49894471 -18.54386723 16.90701073 -18.55654907 23.40623474 C-18.56363388 24.62152863 -18.57071869 25.83682251 -18.57801819 27.08894348 C-18.57572471 28.42242469 -18.57321506 29.75590555 -18.57051086 31.08938599 C-18.57486169 32.50422433 -18.58004607 33.91906031 -18.58599854 35.33389282 C-18.59936198 39.16669088 -18.59997003 42.99939016 -18.59743524 46.83220696 C-18.59636343 50.03774116 -18.6012544 53.24325554 -18.60604066 56.44878548 C-18.61712729 64.015687 -18.61757841 71.58253888 -18.61152649 79.14944458 C-18.60549066 86.9406599 -18.61778966 94.73169446 -18.63909656 102.52287894 C-18.65674624 109.22458299 -18.6627085 115.92622968 -18.65945882 122.62795609 C-18.65765071 126.6249945 -18.66023442 130.62190403 -18.67417336 134.61892128 C-18.68680154 138.38073927 -18.68476082 142.14227691 -18.67176247 145.90409088 C-18.66829079 147.93123107 -18.67953861 149.95838002 -18.69132996 151.98548889 C-18.64289021 160.43653855 -18.51924084 168.0543048 -12.29585266 174.24050903 C-12.29585266 174.90050903 -12.29585266 175.56050903 -12.29585266 176.24050903 C-10.64585266 176.57050903 -8.99585266 176.90050903 -7.29585266 177.24050903 C-8.98335266 177.99050903 -8.98335266 177.99050903 -11.29585266 178.24050903 C-16.10005336 175.47809363 -18.62845753 171.41838709 -20.29585266 166.24050903 C-20.87196763 161.3274404 -20.8334804 156.42953633 -20.79756165 151.49026489 C-20.80134961 150.00291941 -20.80685357 148.51557747 -20.81393433 147.02824402 C-20.82784297 143.00756343 -20.81675231 138.98731296 -20.80022311 134.96665645 C-20.78632554 130.74987791 -20.79283794 126.53312316 -20.7963562 122.31632996 C-20.79905432 115.23751939 -20.78561609 108.15887877 -20.7624054 101.08010864 C-20.73578785 92.90594011 -20.7340533 84.73205544 -20.74579376 76.55785841 C-20.75658662 68.68013767 -20.75037331 60.80251922 -20.73623848 52.92480659 C-20.73049278 49.57847222 -20.73055016 46.23221305 -20.73530388 42.88587761 C-20.74008924 38.94344072 -20.72990781 35.00131325 -20.70834923 31.05893517 C-20.70280274 29.61541538 -20.70229636 28.17186573 -20.70730209 26.72834396 C-20.75386926 11.36934306 -20.75386926 11.36934306 -15.86616516 5.53347778 C-10.57152793 1.48379579 -6.65528431 -0.01113855 0 0 Z " fill="#6F27B7" transform="translate(64.29585266113281,44.759490966796875)"/>
<path d="M0 0 C5.80083114 0.78088111 9.32993641 5.36666473 13.25 9.4375 C13.79269531 9.06496094 14.33539063 8.69242188 14.89453125 8.30859375 C15.96767578 7.59896484 15.96767578 7.59896484 17.0625 6.875 C17.77019531 6.39933594 18.47789063 5.92367187 19.20703125 5.43359375 C21.25 4.4375 21.25 4.4375 24.25 5.4375 C20.95 7.7475 17.65 10.0575 14.25 12.4375 C10.15062397 10.38781198 7.61478108 8.12032246 4.34765625 4.99609375 C1.96397114 3.22497576 0.1679584 2.80795385 -2.75 2.4375 C-1.66335741 9.66185064 -1.66335741 9.66185064 1.4375 16.1875 C3.6124018 20.08732391 3.35507096 21.2137913 2.25 25.4375 C0.83203125 27.90234375 0.83203125 27.90234375 -0.9375 30.375 C-12.43343644 47.77234118 -15.66850633 67.91098112 -13.75 88.4375 C-11.7630077 97.61814035 -6.42112207 105.02949148 0.96875 110.7734375 C8.93617068 115.77186651 17.93000256 116.94973877 27.125 116.8125 C28.08519043 116.80524902 29.04538086 116.79799805 30.03466797 116.79052734 C37.77895093 116.63991132 45.38914679 115.96657861 52.3671875 112.3359375 C54.25 111.4375 54.25 111.4375 57.25 111.4375 C57.25 112.0975 57.25 112.7575 57.25 113.4375 C49.5506308 116.70792171 42.64885658 119.24473936 34.25 119.4375 C33.46367188 119.47617188 32.67734375 119.51484375 31.8671875 119.5546875 C19.14819526 119.92276123 5.32520263 117.7215555 -4.75 109.4375 C-14.74893928 98.73533862 -17.34054014 87.094652 -17.0859375 72.85546875 C-16.27624014 54.36960949 -9.08641175 36.61910476 1.25 21.4375 C0.816875 20.73625 0.38375 20.035 -0.0625 19.3125 C-3.53358406 13.39880123 -5.75270892 9.3311238 -4.75 2.4375 C-2.75 0.4375 -2.75 0.4375 0 0 Z " fill="#681CB3" transform="translate(66.75,76.5625)"/>
<path d="M0 0 C0.495 1.485 0.495 1.485 1 3 C-3.286493 7.97233188 -8.62885683 9.99451112 -15 11 C-26.00574261 11.54647452 -36.60280556 10.93407357 -47 7 C-47.11472656 7.54398437 -47.22945312 8.08796875 -47.34765625 8.6484375 C-48.12423096 11.44782656 -49.25733831 13.97051168 -50.4375 16.625 C-54.16427851 25.60804415 -55.18150623 33.45431931 -55.3125 43.125 C-55.33030518 43.97255859 -55.34811035 44.82011719 -55.36645508 45.69335938 C-55.35753864 52.72225345 -53.9988646 58.63799248 -49.6875 64.375 C-45.16684102 68.79052737 -41.30382961 69.10211976 -35.1875 69.1875 C-30.06490492 69.10436175 -25.07615694 68.67682093 -20 68 C-21 70 -21 70 -22.6796875 70.6328125 C-30.69467206 72.42976633 -39.47984003 73.569717 -47.21875 70.16015625 C-52.79875134 66.52581327 -55.89800095 60.3934249 -57.53125 54.09375 C-59.22462221 42.9174934 -58.59670575 31.72915615 -55 21 C-54.51273437 19.515 -54.51273437 19.515 -54.015625 18 C-52.39801 13.3213597 -50.64573262 9.20160379 -48 5 C-42.50811359 5.86713996 -42.50811359 5.86713996 -40.04296875 6.51171875 C-34.13958128 7.96947292 -28.36488725 8.24685841 -22.3125 8.3125 C-21.10074097 8.33872437 -21.10074097 8.33872437 -19.86450195 8.36547852 C-13.12527007 8.35924682 -7.71094632 6.95865887 -2.5625 2.3125 C-1.716875 1.549375 -0.87125 0.78625 0 0 Z " fill="#7F3FBF" transform="translate(134,105)"/>
<path d="M0 0 C3.72586758 -0.5479217 4.94459557 -0.03767501 8.125 2.125 C11.87748824 5.22840919 13.79339592 9.31301682 14.38031673 14.10539818 C14.38274663 15.21775148 14.38517653 16.33010479 14.38768005 17.47616577 C14.39758469 18.76021805 14.40748932 20.04427032 14.41769409 21.36723328 C14.41345654 22.77786351 14.40889873 24.18849282 14.40405273 25.59912109 C14.4097591 27.09440114 14.41672439 28.58967683 14.42485046 30.08494568 C14.44276927 34.13671421 14.44161574 38.18826601 14.43590808 42.24006224 C14.43281387 45.62712743 14.43891137 49.01415114 14.44494683 52.40121043 C14.45898671 60.39478748 14.4574357 68.38825765 14.44604492 76.38183594 C14.43456844 84.61732866 14.44863257 92.85249556 14.4754414 101.08794534 C14.49762402 108.1684108 14.50422989 115.24877418 14.49836498 122.32927191 C14.4949998 126.55378562 14.49738095 130.77809056 14.51461601 135.00257492 C14.53012369 138.97704256 14.52608768 142.95102909 14.50731087 146.92547798 C14.50363528 148.37987364 14.50670335 149.83430523 14.51719666 151.28866768 C14.5822664 161.05695753 14.10628402 167.51173607 7.3125 174.9375 C3.17519359 177.51355871 -0.20435097 177.88277302 -5 178 C-2.86224011 175.86224011 -1.40527526 175.2728234 1.375 174.1875 C5.4134735 172.42431414 7.72834217 170.90725147 10 167 C12.63099449 160.18184117 12.28834188 153.34234343 12.2746582 146.11352539 C12.27901036 144.70676911 12.28419519 143.3000152 12.29014587 141.89326477 C12.30349231 138.08745148 12.30411947 134.28173777 12.30158257 130.47590566 C12.30050999 127.29259493 12.30540351 124.10930412 12.310188 120.92599767 C12.32126791 113.41329633 12.321729 105.900645 12.31567383 98.38793945 C12.30963334 90.65064649 12.32195038 82.91353535 12.3432439 75.17627341 C12.36088433 68.52042424 12.36685745 61.86463282 12.36360615 55.20876116 C12.36179719 51.23915593 12.36439077 47.26968046 12.37832069 43.30009651 C12.39093446 39.56617396 12.38892169 35.83253407 12.37590981 32.09861565 C12.37243278 30.08441296 12.38369552 28.0702015 12.39547729 26.05603027 C12.34868452 17.96726196 12.06307504 11.53431735 6.5625 5.1875 C4.42601615 3.36367233 2.29675697 1.61623639 0 0 Z " fill="#7C3ABD" transform="translate(210,47)"/>
<path d="M0 0 C0.56905158 11.84470327 0.56905158 11.84470327 -3 17 C-6.70415293 19.46943529 -8.62144505 19.46913089 -13 19 C-15.28412799 17.23164284 -15.83469473 15.90639292 -16.34765625 13.09375 C-16.61822087 9.37522086 -16.50702037 7.60515335 -14.0625 4.6875 C-9.83105605 2.35588803 -4.92091513 0 0 0 Z " fill="#686BF1" transform="translate(891,143)"/>
<path d="M0 0 C0.55607983 11.76005866 0.55607983 11.76005866 -3 16 C-5 18 -5 18 -8.9375 18.375 C-11.79152833 18.28694468 -12.69940383 18.23484076 -15 16.4375 C-16.40962258 13.00154495 -16.5168609 10.68263393 -16 7 C-11.82726297 1.30990405 -6.85635295 0 0 0 Z " fill="#6A6DF1" transform="translate(384,144)"/>
<path d="M0 0 C2.96858157 2.20740681 3.82865791 3.48597373 5 7 C5 9.31 5 11.62 5 14 C-0.94 14 -6.88 14 -13 14 C-13 4.80769231 -13 4.80769231 -10 1 C-6.80508241 -0.59745879 -3.46790611 -0.50816842 0 0 Z " fill="#6B6EF1" transform="translate(1071,122)"/>
<path d="M0 0 C1.04285156 -0.01417969 2.08570313 -0.02835937 3.16015625 -0.04296875 C5.9375 0.1875 5.9375 0.1875 8.9375 2.1875 C9.3125 5.1875 9.3125 5.1875 8.9375 8.1875 C5.90470951 10.20936033 5.28969748 10.44224783 1.8828125 10.453125 C0.71298828 10.45699219 0.71298828 10.45699219 -0.48046875 10.4609375 C-1.29128906 10.45320313 -2.10210937 10.44546875 -2.9375 10.4375 C-3.74058594 10.44523437 -4.54367188 10.45296875 -5.37109375 10.4609375 C-9.71426129 10.44662723 -13.10832338 10.20461034 -17.0625 8.1875 C-10.95982737 2.08482737 -8.71677068 0.05400725 0 0 Z " fill="#6011AF" transform="translate(112.0625,91.8125)"/>
<path d="M0 0 C1.26899643 -0.00274933 2.53799286 -0.00549866 3.84544373 -0.0083313 C5.24406528 -0.00125393 6.64268588 0.00601567 8.04130554 0.01345825 C9.51985669 0.01402264 10.9984084 0.01370527 12.47695923 0.01257324 C16.48484903 0.01199979 20.49261893 0.0237529 24.50048089 0.03772116 C28.69118151 0.05022973 32.88188492 0.05139912 37.07260132 0.05377197 C45.00563796 0.05998636 52.93861944 0.07639664 60.8716318 0.09647095 C69.90421627 0.11883121 78.93680338 0.1298237 87.96940863 0.13986182 C106.54768614 0.1607629 125.1259123 0.1959381 143.70414734 0.24050903 C144.03414734 0.90050903 144.36414734 1.56050903 144.70414734 2.24050903 C143.95484483 2.23774365 143.20554232 2.23497828 142.43353367 2.2321291 C124.17944501 2.16580097 105.9253805 2.11619525 87.67119694 2.08507252 C78.84351326 2.06962075 70.01591015 2.04856363 61.1882782 2.01419067 C53.49178097 1.98423647 45.79534211 1.96492175 38.0987882 1.95824355 C34.02562477 1.95434147 29.9526283 1.94520648 25.87951851 1.92331886 C22.04066011 1.90285844 18.20203641 1.8966944 14.36312866 1.90118599 C12.9591335 1.90036504 11.55512996 1.89445643 10.15118217 1.88289261 C-0.84917617 1.79678031 -9.13066244 2.49404651 -17.29585266 10.24050903 C-17.29585266 9.25050903 -17.29585266 8.26050903 -17.29585266 7.24050903 C-11.91421205 2.10917729 -7.57383011 -0.01267587 0 0 Z " fill="#732EBA" transform="translate(64.29585266113281,44.759490966796875)"/>
<path d="M0 0 C0.66 0.33 1.32 0.66 2 1 C1.38511719 1.67095703 1.38511719 1.67095703 0.7578125 2.35546875 C-4.06299224 7.7644578 -6.37014083 11.71380328 -6.203125 19.0625 C-5.93571227 21.613206 -5.14222587 23.71554827 -4 26 C-3.39671875 26.02578125 -2.7934375 26.0515625 -2.171875 26.078125 C4.26347668 26.53482738 4.26347668 26.53482738 7.375 28.5 C10.43646852 33.20995158 12.05309929 37.7167304 11.921875 43.359375 C10.74737392 47.99765894 8.62177374 50.47495015 5.4375 53.9375 C4.65729492 54.82018555 4.65729492 54.82018555 3.86132812 55.72070312 C2.58707008 57.15862734 1.29526535 58.58096959 0 60 C-0.495 58.515 -0.495 58.515 -1 57 C-0.45730469 56.40832031 0.08539063 55.81664062 0.64453125 55.20703125 C1.35996094 54.41683594 2.07539063 53.62664062 2.8125 52.8125 C3.87404297 51.64654297 3.87404297 51.64654297 4.95703125 50.45703125 C7.00894551 47.98924144 8.70636639 45.94413166 10 43 C9.31951857 38.49698812 7.55390654 34.75354949 5 31 C2.44328039 29.37925857 0.21885383 28.52999564 -2.6953125 27.74609375 C-5.2654844 26.91405505 -6.34168334 26.10637117 -8 24 C-10.1571694 17.5284918 -8.9504821 11.93831206 -6 6 C-2.75409836 1.37704918 -2.75409836 1.37704918 0 0 Z " fill="#722CB8" transform="translate(146,117)"/>
<path d="M0 0 C1.00088989 3.11387965 0.88201243 4.88675069 0 8 C-0.24187362 11.24697015 -0.23101973 14.49488291 -0.25 17.75 C-0.270625 18.61882812 -0.29125 19.48765625 -0.3125 20.3828125 C-0.3556462 27.56665501 0.90293812 33.50086823 5.3125 39.375 C9.83315898 43.79052737 13.69617039 44.10211976 19.8125 44.1875 C24.93509508 44.10436175 29.92384306 43.67682093 35 43 C34 45 34 45 32.3203125 45.6328125 C24.30532794 47.42976633 15.52015997 48.569717 7.78125 45.16015625 C2.20462209 41.52801044 -0.88957832 35.40244976 -2.53125 29.109375 C-3.147483 25.02169613 -3.3218869 21.00517603 -3.375 16.875 C-3.38901855 16.12299316 -3.40303711 15.37098633 -3.41748047 14.59619141 C-3.37078938 9.13093952 -2.15206401 5.0214827 0 0 Z " fill="#6F27B7" transform="translate(79,130)"/>
<path d="M0 0 C0.66 0.33 1.32 0.66 2 1 C1.55527344 1.51949219 1.11054688 2.03898438 0.65234375 2.57421875 C-2.96238026 6.74652678 -2.96238026 6.74652678 -4 11.9375 C-3.17910254 14.16449488 -3.17910254 14.16449488 -1 15 C2.10767449 15.54695071 4.90117828 15.63337403 8 15 C10.58257789 13.0573019 12.21645506 10.67016266 14 8 C14.95796596 6.68723184 15.91627854 5.37471652 16.875 4.0625 C17.57625 3.051875 18.2775 2.04125 19 1 C22.87364992 2.29121664 23.63999862 3.98310741 25.9375 7.3125 C28.40503134 10.87354234 30.84252086 14.02617736 34 17 C29.47301364 15.60089587 27.24844018 13.4384826 24.1875 9.875 C23.39730469 8.96492187 22.60710937 8.05484375 21.79296875 7.1171875 C21.20128906 6.41851562 20.60960937 5.71984375 20 5 C19.01 5.33 18.02 5.66 17 6 C16.62889562 7.32331796 16.30191693 8.65920357 16 10 C14.09279323 13.19617526 11.96532239 15.73994347 9 18 C4.32286273 19.15655494 0.40846435 18.51739507 -4.0625 16.875 C-6 15 -6 15 -7.25 12.375 C-6.85591312 7.0548271 -3.45630262 3.87864384 0 0 Z " fill="#7028B7" transform="translate(143,177)"/>
<path d="M0 0 C0.66 0.33 1.32 0.66 2 1 C2.29520842 4.76390738 2.4731793 7.21136783 0.5 10.5 C-2.25874146 13.25874146 -5.13155332 15.82319038 -8.1015625 18.3515625 C-10.13584914 20.07175418 -10.13584914 20.07175418 -12.375 22.4375 C-14 24 -14 24 -16 24 C-16.2475 24.556875 -16.495 25.11375 -16.75 25.6875 C-18 28 -18 28 -20.25 30.3125 C-21.11625 31.6428125 -21.11625 31.6428125 -22 33 C-21.25156841 36.57784653 -21.25156841 36.57784653 -20 40 C-20.42578125 42.21484375 -20.42578125 42.21484375 -21 44 C-24.55923778 35.25020713 -24.55923778 35.25020713 -24 31 C-22.41796875 28.67578125 -22.41796875 28.67578125 -20.1875 26.3125 C-19.37539062 25.45140625 -18.56328125 24.5903125 -17.7265625 23.703125 C-14.03036139 20.03869639 -10.20052846 16.55967543 -6.28515625 13.12890625 C-3.84905276 11.02348515 -3.84905276 11.02348515 -2 8 C-1.34 8 -0.68 8 0 8 C0 5.36 0 2.72 0 0 Z " fill="#6C23B5" transform="translate(204,121)"/>
<path d="M0 0 C3.62326676 0.71171311 6.32253683 1.82752156 9.5 3.6875 C8.51 4.1825 8.51 4.1825 7.5 4.6875 C6.51 4.3575 5.52 4.0275 4.5 3.6875 C0.40710112 2.98042681 0.40710112 2.98042681 -3.5 3.6875 C-5.35752305 5.64181705 -6.57219442 7.68725354 -7.921875 10.01953125 C-9.66223193 12.96176834 -11.62643331 15.57262545 -13.75 18.25 C-14.41515625 19.09691406 -15.0803125 19.94382813 -15.765625 20.81640625 C-16.33796875 21.43386719 -16.9103125 22.05132812 -17.5 22.6875 C-18.16 22.6875 -18.82 22.6875 -19.5 22.6875 C-20.16 20.7075 -20.82 18.7275 -21.5 16.6875 C-19.52 17.6775 -19.52 17.6775 -17.5 18.6875 C-16.29001189 17.18883452 -15.08211435 15.68848114 -13.875 14.1875 C-12.77478516 12.83011719 -12.77478516 12.83011719 -11.65234375 11.4453125 C-9.7793034 9.04537332 -8.11474537 6.59882227 -6.4375 4.0625 C-4.20518605 1.0679325 -3.87753503 0.76165867 0 0 Z " fill="#671BB3" transform="translate(193.5,116.3125)"/>
<path d="M0 0 C0 0.66 0 1.32 0 2 C-7.69758711 5.26966474 -14.60269118 7.81068869 -23 8 C-23.91394531 8.03867188 -24.82789062 8.07734375 -25.76953125 8.1171875 C-30.82074465 8.24726166 -30.82074465 8.24726166 -33 8 C-33.66 7.34 -34.32 6.68 -35 6 C-33.98421875 5.96261719 -32.9684375 5.92523438 -31.921875 5.88671875 C-17.97269653 5.31576731 -17.97269653 5.31576731 -4.859375 0.90234375 C-3 0 -3 0 0 0 Z " fill="#7632BA" transform="translate(124,188)"/>
<path d="M0 0 C0.94875 0.04125 1.8975 0.0825 2.875 0.125 C2.875 0.455 2.875 0.785 2.875 1.125 C1.225 1.125 -0.425 1.125 -2.125 1.125 C-2.41375 1.7025 -2.7025 2.28 -3 2.875 C-3.69469771 4.26439542 -4.41503183 5.64169636 -5.17538452 6.99627686 C-6.21069153 9.31709201 -6.39815522 10.9062556 -6.44384766 13.43457031 C-6.46371735 14.27513977 -6.48358704 15.11570923 -6.50405884 15.98175049 C-6.51561005 16.87980408 -6.52716125 17.77785767 -6.5390625 18.703125 C-6.55842865 19.6296991 -6.5777948 20.55627319 -6.5977478 21.51092529 C-6.65744767 24.46552371 -6.70389068 27.42016129 -6.75 30.375 C-6.7881886 32.38022517 -6.82724085 34.38543409 -6.8671875 36.390625 C-6.9631414 41.30195111 -7.04720803 46.213354 -7.125 51.125 C-7.455 51.125 -7.785 51.125 -8.125 51.125 C-8.19932654 45.11102991 -8.25368588 39.09732904 -8.28979492 33.08300781 C-8.30485288 31.03836406 -8.32530357 28.99375245 -8.35131836 26.94921875 C-8.38783311 24.00512748 -8.40475651 21.06146443 -8.41796875 18.1171875 C-8.44119453 16.7527803 -8.44119453 16.7527803 -8.46488953 15.36080933 C-8.46625501 10.17568853 -8.01189448 6.61786937 -5.125 2.125 C-3.125 0.125 -3.125 0.125 0 0 Z " fill="#6F72F2" transform="translate(945.125,121.875)"/>
<path d="M0 0 C0.33 0.99 0.66 1.98 1 3 C-3.27433677 7.95823065 -8.63419237 10.0289446 -15 11 C-17.61481958 11.06774144 -20.19979256 11.09500258 -22.8125 11.0625 C-23.50537109 11.05798828 -24.19824219 11.05347656 -24.91210938 11.04882812 C-26.60811068 11.03713156 -28.30406703 11.01919924 -30 11 C-30 10.67 -30 10.34 -30 10 C-29.16597656 9.96261719 -28.33195312 9.92523438 -27.47265625 9.88671875 C-16.85826781 9.2666342 -7.76131742 7.76131742 0 0 Z " fill="#6518B2" transform="translate(134,105)"/>
<path d="M0 0 C0.66 0.33 1.32 0.66 2 1 C1.55527344 1.51949219 1.11054688 2.03898438 0.65234375 2.57421875 C-2.91243464 6.73375837 -2.91243464 6.73375837 -4.125 11.875 C-3.15688445 14.04440126 -3.15688445 14.04440126 -1.4375 15.25 C2.02212021 16.31449853 5.39784871 16.63978487 9 17 C9 17.33 9 17.66 9 18 C0.24893798 18.45879354 0.24893798 18.45879354 -4.0625 16.875 C-6 15 -6 15 -7.25 12.375 C-6.85591312 7.0548271 -3.45630262 3.87864384 0 0 Z " fill="#691EB4" transform="translate(143,177)"/>
<path d="M0 0 C0.33 0 0.66 0 1 0 C1.56197637 5.50736843 0.71606786 8.31426038 -2.65625 12.4921875 C-6.9453131 17.30491528 -10.75626 17.61310158 -17 18 C-14.86224011 15.86224011 -13.40527526 15.2728234 -10.625 14.1875 C-6.5865265 12.42431414 -4.27165783 10.90725147 -2 7 C-1.1611402 4.67252772 -0.56867549 2.41687082 0 0 Z " fill="#6D24B6" transform="translate(222,207)"/>
<path d="M0 0 C0.66 0.33 1.32 0.66 2 1 C0.61240749 2.61130023 -0.78545623 4.21375841 -2.1875 5.8125 C-2.96480469 6.70582031 -3.74210938 7.59914062 -4.54296875 8.51953125 C-7.69759348 11.70424779 -10.26656155 13.88443744 -14.8125 14.1875 C-15.534375 14.125625 -16.25625 14.06375 -17 14 C-17.33 13.34 -17.66 12.68 -18 12 C-16.906875 11.896875 -15.81375 11.79375 -14.6875 11.6875 C-11.01463192 11.00272798 -10.24762314 10.72080696 -8 8 C-7.34 8 -6.68 8 -6 8 C-5.34 6.68 -4.68 5.36 -4 4 C-3.34 4 -2.68 4 -2 4 C-1.34 2.68 -0.68 1.36 0 0 Z " fill="#6C23B5" transform="translate(206,161)"/>
<path d="M0 0 C0 2.97748203 -0.40191046 4.32953734 -1.53125 7.01171875 C-1.84707031 7.76904297 -2.16289063 8.52636719 -2.48828125 9.30664062 C-2.82214844 10.09232422 -3.15601562 10.87800781 -3.5 11.6875 C-3.83386719 12.48478516 -4.16773437 13.28207031 -4.51171875 14.10351562 C-5.33641316 16.07100087 -6.1675898 18.03576674 -7 20 C-8.34221519 15.67967115 -7.29232487 13.12082536 -5.75 8.875 C-5.31171875 7.63492188 -4.8734375 6.39484375 -4.421875 5.1171875 C-3 2 -3 2 0 0 Z " fill="#7936BC" transform="translate(86,113)"/>
<path d="M0 0 C0.33 0.66 0.66 1.32 1 2 C-0.125 4.25 -0.125 4.25 -2 7 C-2.70125 8.093125 -3.4025 9.18625 -4.125 10.3125 C-7.2664747 13.24909592 -7.76383431 13.38135583 -11.8125 13.375 C-13.21064132 13.27920565 -14.6081797 13.16374356 -16 13 C-16 12.67 -16 12.34 -16 12 C-14.96875 11.979375 -13.9375 11.95875 -12.875 11.9375 C-7.69733531 10.68483919 -6.01578612 8.18554558 -3 4 C-2.071875 2.7934375 -2.071875 2.7934375 -1.125 1.5625 C-0.75375 1.046875 -0.3825 0.53125 0 0 Z " fill="#8243C0" transform="translate(160,181)"/>
<path d="M0 0 C-1.45317939 3.3907519 -3.41300312 5.41300312 -6 8 C-7.00259507 11.00778521 -7.30314642 13.53820647 -7.5625 16.6875 C-7.64628906 17.68136719 -7.73007812 18.67523438 -7.81640625 19.69921875 C-7.87699219 20.45847656 -7.93757812 21.21773437 -8 22 C-8.33 22 -8.66 22 -9 22 C-9.52529075 13.11383146 -9.18556873 7.9904858 -3.375 1.0625 C-2 0 -2 0 0 0 Z " fill="#DBDCFB" transform="translate(869,140)"/>
<path d="M0 0 C5 10 5 10 5.875 12.3125 C6.92737766 14.28572724 6.92737766 14.28572724 9.625 14.75 C10.40875 14.8325 11.1925 14.915 12 15 C10.3125 15.75 10.3125 15.75 8 16 C3.7734843 13.42285628 1.74661372 10.59635188 0 6 C-0.1875 2.625 -0.1875 2.625 0 0 Z " fill="#6518B2" transform="translate(45,207)"/>
<path d="M0 0 C0.268125 0.55558594 0.53625 1.11117187 0.8125 1.68359375 C2.10877118 4.21217537 3.53219771 6.6296177 5 9.0625 C5.515625 9.91972656 6.03125 10.77695313 6.5625 11.66015625 C7.67060302 13.4638348 8.82577048 15.23865572 10 17 C7.1092042 16.66693005 6.17686199 16.21539844 4.296875 13.92578125 C-0.83097262 5.26282657 -0.83097262 5.26282657 0 0 Z " fill="#6F27B7" transform="translate(53,167)"/>
<path d="M0 0 C1.32 0 2.64 0 4 0 C4 3.63 4 7.26 4 11 C3.67 11 3.34 11 3 11 C3 8.03 3 5.06 3 2 C2.52949219 2.44472656 2.05898437 2.88945312 1.57421875 3.34765625 C0.64029297 4.19650391 0.64029297 4.19650391 -0.3125 5.0625 C-0.92738281 5.63097656 -1.54226562 6.19945312 -2.17578125 6.78515625 C-2.77777344 7.18605469 -3.37976563 7.58695313 -4 8 C-4.99 7.67 -5.98 7.34 -7 7 C-5.47005208 5.76302083 -3.94010417 4.52604167 -2.41015625 3.2890625 C-0.86733563 2.0333609 -0.86733563 2.0333609 0 0 Z " fill="#D1BAE8" transform="translate(212,157)"/>
<path d="M0 0 C0.66 0.33 1.32 0.66 2 1 C1.37351562 1.58007812 0.74703125 2.16015625 0.1015625 2.7578125 C-0.71570313 3.53898437 -1.53296875 4.32015625 -2.375 5.125 C-3.18710937 5.89070313 -3.99921875 6.65640625 -4.8359375 7.4453125 C-7.19015721 10.22448161 -8.07814775 12.50506564 -9 16 C-9.33 16 -9.66 16 -10 16 C-9.74017526 9.63429392 -7.60776634 6.34413792 -3 2 C-2.01 1.34 -1.02 0.68 0 0 Z " fill="#D8D9FB" transform="translate(872,111)"/>
<path d="M0 0 C0 0.66 0 1.32 0 2 C-2.09950586 2.86555948 -4.2047907 3.71711277 -6.3125 4.5625 C-8.07013672 5.27599609 -8.07013672 5.27599609 -9.86328125 6.00390625 C-13 7 -13 7 -16 6 C-15.39671875 5.73445312 -14.7934375 5.46890625 -14.171875 5.1953125 C-13.37265625 4.84210938 -12.5734375 4.48890625 -11.75 4.125 C-10.96109375 3.77695313 -10.1721875 3.42890625 -9.359375 3.0703125 C-7.84694933 2.38421211 -6.35375628 1.65294319 -4.890625 0.8671875 C-3 0 -3 0 0 0 Z " fill="#6E26B6" transform="translate(124,188)"/>
<path d="M0 0 C0.33 0.99 0.66 1.98 1 3 C0.07421875 4.82421875 0.07421875 4.82421875 -1.3125 6.6875 C-1.76238281 7.31011719 -2.21226562 7.93273437 -2.67578125 8.57421875 C-3.11277344 9.04472656 -3.54976562 9.51523438 -4 10 C-4.66 10 -5.32 10 -6 10 C-6.66 11.32 -7.32 12.64 -8 14 C-8.66 14 -9.32 14 -10 14 C-8.43632643 10.47761953 -6.30504111 7.72876006 -3.875 4.75 C-3.15054688 3.85796875 -2.42609375 2.9659375 -1.6796875 2.046875 C-0.84824219 1.03367188 -0.84824219 1.03367188 0 0 Z " fill="#712AB8" transform="translate(214,172)"/>
<path d="M0 0 C-1.36911804 3.1489715 -2.8752136 5.0478487 -5.5 7.25 C-6.41265625 8.03117188 -6.41265625 8.03117188 -7.34375 8.828125 C-9 10 -9 10 -11 10 C-9.86349426 6.59048278 -8.74186875 5.62363724 -6.0625 3.3125 C-5.35222656 2.68988281 -4.64195312 2.06726563 -3.91015625 1.42578125 C-2 0 -2 0 0 0 Z " fill="#722CB8" transform="translate(136,178)"/>
<path d="M0 0 C-1 2 -1 2 -2.734375 2.62109375 C-5.28144284 3.04706889 -7.66856169 3.09646629 -10.25 3.0625 C-11.14203125 3.05347656 -12.0340625 3.04445313 -12.953125 3.03515625 C-13.62859375 3.02355469 -14.3040625 3.01195313 -15 3 C-15.33 2.34 -15.66 1.68 -16 1 C-10.65097076 0.40801257 -5.39115154 -0.14187241 0 0 Z " fill="#CFB8E7" transform="translate(120,101)"/>
<path d="M0 0 C0.66 0.33 1.32 0.66 2 1 C-1.3 4.3 -4.6 7.6 -8 11 C-8 6.67750434 -5.85084926 5.11604454 -3 2 C-2.01 1.34 -1.02 0.68 0 0 Z " fill="#DEDFFC" transform="translate(303,88)"/>
<path d="M0 0 C-8.261959 5.55580866 -8.261959 5.55580866 -13 6 C-10.99322227 2.9898334 -10.15893736 2.29533559 -7.0625 0.75 C-6.37285156 0.39421875 -5.68320313 0.0384375 -4.97265625 -0.328125 C-3 -1 -3 -1 0 0 Z " fill="#6D25B6" transform="translate(203,188)"/>
<path d="M0 0 C0.94875 0.04125 1.8975 0.0825 2.875 0.125 C2.875 0.455 2.875 0.785 2.875 1.125 C1.225 1.125 -0.425 1.125 -2.125 1.125 C-3.99051426 4.71252742 -5.55035928 8.40312193 -7.125 12.125 C-7.8125 10.5 -7.8125 10.5 -8.125 8.125 C-4.79302278 0.19172091 -4.79302278 0.19172091 0 0 Z " fill="#8A8DF4" transform="translate(945.125,121.875)"/>
<path d="M0 0 C0.66 0.33 1.32 0.66 2 1 C-1.20760251 4.80635497 -4.40746109 8.54563567 -8 12 C-6.74337944 7.49710965 -5.16038089 4.4566666 -2 1 C-1.34 0.67 -0.68 0.34 0 0 Z " fill="#6619B2" transform="translate(146,117)"/>
<path d="M0 0 C5.94 0 11.88 0 18 0 C17.67 0.66 17.34 1.32 17 2 C15.95199219 1.98839844 14.90398438 1.97679688 13.82421875 1.96484375 C12.44531428 1.95546345 11.06640789 1.9463635 9.6875 1.9375 C8.99720703 1.92912109 8.30691406 1.92074219 7.59570312 1.91210938 C4.4516975 1.89692094 2.00579981 1.99806673 -1 3 C-0.67 2.01 -0.34 1.02 0 0 Z " fill="#EAEBFD" transform="translate(721,87)"/>
<path d="M0 0 C0.5775 0.37125 1.155 0.7425 1.75 1.125 C4 2.29166667 4 2.29166667 6.25 1.125 C6.8275 0.75375 7.405 0.3825 8 0 C6.7260411 2.03833424 5.38938077 4.03852126 4 6 C3.34 6 2.68 6 2 6 C1.34 4.02 0.68 2.04 0 0 Z " fill="#6E27B6" transform="translate(172,133)"/>
<path d="M0 0 C-0.99 0.66 -1.98 1.32 -3 2 C-5.95318163 4.23289343 -7.93108922 5.89663383 -10 9 C-9.65544802 5.89903219 -9.15182706 4.20062862 -7.25 1.6875 C-4.58761061 -0.30929204 -3.25047681 -0.36116409 0 0 Z " fill="#888AF4" transform="translate(532,122)"/>
<path d="M0 0 C-1.5830577 4.2742558 -4.50568404 6.26531794 -8 9 C-6.68994234 5.06982701 -4.75047804 0 0 0 Z " fill="#D6D7FB" transform="translate(1054,113)"/>
<path d="M0 0 C0.33 0.99 0.66 1.98 1 3 C-2.32307692 6.93846154 -2.32307692 6.93846154 -5.75 7.25 C-6.4925 7.1675 -7.235 7.085 -8 7 C-7.236875 6.401875 -6.47375 5.80375 -5.6875 5.1875 C-3.6516425 3.53040668 -1.8021721 1.89702326 0 0 Z " fill="#7A38BC" transform="translate(134,105)"/>
<path d="M0 0 C0.66 0.33 1.32 0.66 2 1 C-0.80804268 3.96404505 -3.18315774 6.44499019 -7 8 C-7 7.34 -7 6.68 -7 6 C-5.46875 4.4921875 -5.46875 4.4921875 -3.5 2.875 C-2.8503125 2.33617187 -2.200625 1.79734375 -1.53125 1.2421875 C-1.0259375 0.83226562 -0.520625 0.42234375 0 0 Z " fill="#671CB3" transform="translate(129,161)"/>
<path d="M0 0 C-0.28875 0.515625 -0.5775 1.03125 -0.875 1.5625 C-2.28780027 4.62356725 -3.1248517 7.74944918 -4 11 C-4.33 11 -4.66 11 -5 11 C-5.36717663 3.5340751 -5.36717663 3.5340751 -3.625 1 C-2 0 -2 0 0 0 Z " fill="#8385F3" transform="translate(880,147)"/>
<path d="M0 0 C0.66 0 1.32 0 2 0 C0.7874262 3.72433382 -0.50859979 7.37802806 -2 11 C-2.95465783 8.83032311 -3.14401212 7.43671207 -2.3984375 5.17578125 C-1.64129615 3.4315257 -0.82390802 1.71372869 0 0 Z " fill="#6E26B6" transform="translate(59,114)"/>
<path d="M0 0 C-1.28519565 2.86697492 -2.57129254 4.97607712 -5 7 C-5.66 7 -6.32 7 -7 7 C-3.86206897 0 -3.86206897 0 0 0 Z " fill="#E3D5F1" transform="translate(149,118)"/>
<path d="M0 0 C0.66 0.33 1.32 0.66 2 1 C-0.64 3.64 -3.28 6.28 -6 9 C-6 6 -6 6 -3.5625 3.375 C-2.716875 2.59125 -1.87125 1.8075 -1 1 C-0.67 0.67 -0.34 0.34 0 0 Z " fill="#D8D9FB" transform="translate(991,110)"/>
<path d="M0 0 C1.23556641 0.01740234 1.23556641 0.01740234 2.49609375 0.03515625 C3.32238281 0.04417969 4.14867187 0.05320312 5 0.0625 C5.63808594 0.07410156 6.27617187 0.08570312 6.93359375 0.09765625 C6.93359375 0.42765625 6.93359375 0.75765625 6.93359375 1.09765625 C4.29359375 1.09765625 1.65359375 1.09765625 -1.06640625 1.09765625 C-1.72640625 2.41765625 -2.38640625 3.73765625 -3.06640625 5.09765625 C-3.72640625 5.09765625 -4.38640625 5.09765625 -5.06640625 5.09765625 C-2.6606399 0.12573913 -2.6606399 0.12573913 0 0 Z " fill="#7F82F3" transform="translate(314.06640625,99.90234375)"/>
<path d="M0 0 C0.94875 0.04125 1.8975 0.0825 2.875 0.125 C2.875 0.455 2.875 0.785 2.875 1.125 C1.225 1.125 -0.425 1.125 -2.125 1.125 C-2.393125 1.764375 -2.66125 2.40375 -2.9375 3.0625 C-4.125 5.125 -4.125 5.125 -7.125 6.125 C-4.34782609 0.17391304 -4.34782609 0.17391304 0 0 Z " fill="#9B9DF6" transform="translate(377.125,120.875)"/>
<path d="M0 0 C0.66 0.33 1.32 0.66 2 1 C-0.31 3.31 -2.62 5.62 -5 8 C-5.66 7.67 -6.32 7.34 -7 7 C-4.66666667 4.66666667 -2.33333333 2.33333333 0 0 Z " fill="#D9D9FB" transform="translate(365,111)"/>
<path d="M0 0 C-1.45255699 3.82946843 -3.42895561 5.12050295 -7 7 C-3.86206897 0 -3.86206897 0 0 0 Z " fill="#7C3ABD" transform="translate(53,48)"/>
<path d="M0 0 C0.33 0.99 0.66 1.98 1 3 C-0.40445835 5.2636564 -2.1967913 7.0208685 -4 9 C-4.33 8.01 -4.66 7.02 -5 6 C-3.59554165 3.7363436 -1.8032087 1.9791315 0 0 Z " fill="#6519B2" transform="translate(150,168)"/>
</svg>
